<svg width="16" height="16" viewBox="0 0 16 16" fill="none" xmlns="http://www.w3.org/2000/svg">
<path d="M12.0467 8.96143C11.26 8.96143 10.624 9.61209 10.624 10.4165C10.624 11.221 11.26 11.8716 12.0467 11.8716C12.8334 11.8716 13.4694 11.221 13.4694 10.4165C13.4694 9.61209 12.8334 8.96143 12.0467 8.96143Z" fill="#9364ED"/>
<path d="M4.51983 8.96143C3.73317 8.96143 3.09717 9.61209 3.09717 10.4165C3.09717 11.221 3.73317 11.8716 4.51983 11.8716C5.3065 11.8716 5.9425 11.221 5.9425 10.4165C5.9425 9.61209 5.3065 8.96143 4.51983 8.96143Z" fill="#9364ED"/>
<path d="M14.2602 7.62089C13.3522 7.308 13.0367 7.24356 11.8811 7.04978C11.6576 7.01023 11.4442 6.92578 11.2985 6.752L9.47758 4.96445C9.24469 4.736 8.94336 4.592 8.61802 4.55734C7.35502 4.41401 6.08024 4.4073 4.8158 4.53734C4.3838 4.58222 3.99047 4.81022 3.73802 5.168L2.74247 6.58311C2.69564 6.65257 2.62468 6.70215 2.54336 6.72222L1.94113 6.876C1.56736 6.97511 1.31491 7.328 1.33402 7.71511L1.4358 9.64667C1.46025 10.0836 1.80958 10.4213 2.23713 10.4213H2.54291V10.4116C2.54291 9.29423 3.42647 8.39022 4.51936 8.39022C5.61225 8.39022 6.4958 9.29423 6.4958 10.4116V10.4213H10.0696V10.4116C10.0696 9.29423 10.9531 8.39022 12.046 8.39022C13.1389 8.39022 14.0225 9.29423 14.0225 10.4116V10.4213H14.2798C14.5371 10.4213 14.7607 10.2276 14.7994 9.96934L14.9402 8.70311C14.9887 8.22623 14.7074 7.76934 14.2607 7.62045L14.2602 7.62089ZM5.75313 6.78667L4.07313 6.76178C3.92247 6.76178 3.8158 6.60311 3.87402 6.45867L4.21402 5.57956C4.30158 5.356 4.50069 5.20222 4.73358 5.18222L5.75313 5.12267V6.78622V6.78667ZM9.74469 6.84134L6.48158 6.79645V5.10311L8.41891 5.18267C8.56262 5.19709 8.69584 5.26441 8.79269 5.37156L9.86113 6.57334C9.95358 6.67778 9.88069 6.84134 9.74469 6.84134Z" fill="#9364ED"/>
</svg>
