<svg width="24" height="24" viewBox="0 0 24 24" fill="none" xmlns="http://www.w3.org/2000/svg">
<path d="M18.07 13.442C16.89 13.442 15.936 14.418 15.936 15.6247C15.936 16.8313 16.89 17.8073 18.07 17.8073C19.25 17.8073 20.204 16.8313 20.204 15.6247C20.204 14.418 19.25 13.442 18.07 13.442Z" fill="black"/>
<path d="M6.78 13.442C5.6 13.442 4.646 14.418 4.646 15.6247C4.646 16.8313 5.6 17.8073 6.78 17.8073C7.96 17.8073 8.914 16.8313 8.914 15.6247C8.914 14.418 7.96 13.442 6.78 13.442Z" fill="black"/>
<path d="M21.3907 11.4313C20.0287 10.962 19.5553 10.8653 17.822 10.5747C17.4867 10.5153 17.1667 10.3887 16.948 10.128L14.2167 7.44667C13.8673 7.104 13.4153 6.888 12.9273 6.836C11.0328 6.62101 9.12066 6.61095 7.224 6.806C6.576 6.87333 5.986 7.21533 5.60733 7.752L4.114 9.87467C4.04376 9.97885 3.93732 10.0532 3.81533 10.0833L2.912 10.314C2.35133 10.4627 1.97267 10.992 2.00133 11.5727L2.154 14.47C2.19067 15.1253 2.71467 15.632 3.356 15.632H3.81467V15.6173C3.81467 13.9413 5.14 12.5853 6.77933 12.5853C8.41867 12.5853 9.744 13.9413 9.744 15.6173V15.632H15.1047V15.6173C15.1047 13.9413 16.43 12.5853 18.0693 12.5853C19.7087 12.5853 21.034 13.9413 21.034 15.6173V15.632H21.42C21.806 15.632 22.1413 15.3413 22.1993 14.954L22.4107 13.0547C22.4833 12.3393 22.0613 11.654 21.3913 11.4307L21.3907 11.4313ZM8.63 10.18L6.11 10.1427C5.884 10.1427 5.724 9.90467 5.81133 9.688L6.32133 8.36933C6.45267 8.034 6.75133 7.80333 7.10067 7.77333L8.63 7.684V10.1793V10.18ZM14.6173 10.262L9.72266 10.1947V7.65467L12.6287 7.774C12.8442 7.79563 13.0441 7.89662 13.1893 8.05733L14.792 9.86C14.9307 10.0167 14.8213 10.262 14.6173 10.262Z" fill="black"/>
</svg>
