<svg width="24" height="24" viewBox="0 0 24 24" fill="none" xmlns="http://www.w3.org/2000/svg">
<circle cx="12" cy="12" r="12" fill="white"/>
<path d="M16.0467 12.9613C15.26 12.9613 14.624 13.612 14.624 14.4164C14.624 15.2209 15.26 15.8716 16.0467 15.8716C16.8333 15.8716 17.4693 15.2209 17.4693 14.4164C17.4693 13.612 16.8333 12.9613 16.0467 12.9613Z" fill="#9364ED"/>
<path d="M8.52 12.9613C7.73334 12.9613 7.09734 13.612 7.09734 14.4164C7.09734 15.2209 7.73334 15.8716 8.52 15.8716C9.30667 15.8716 9.94267 15.2209 9.94267 14.4164C9.94267 13.612 9.30667 12.9613 8.52 12.9613Z" fill="#9364ED"/>
<path d="M18.2604 11.6209C17.3524 11.308 17.0369 11.2436 15.8813 11.0498C15.6578 11.0102 15.4444 10.9258 15.2987 10.752L13.4778 8.96445C13.2449 8.736 12.9435 8.592 12.6182 8.55734C11.3552 8.41401 10.0804 8.4073 8.81599 8.53734C8.38399 8.58222 7.99066 8.81022 7.73821 9.168L6.74266 10.5831C6.69583 10.6526 6.62487 10.7021 6.54355 10.7222L5.94133 10.876C5.56755 10.9751 5.3151 11.328 5.33421 11.7151L5.43599 13.6467C5.46044 14.0836 5.80977 14.4213 6.23732 14.4213H6.5431V14.4116C6.5431 13.2942 7.42666 12.3902 8.51955 12.3902C9.61244 12.3902 10.496 13.2942 10.496 14.4116V14.4213H14.0698V14.4116C14.0698 13.2942 14.9533 12.3902 16.0462 12.3902C17.1391 12.3902 18.0227 13.2942 18.0227 14.4116V14.4213H18.28C18.5373 14.4213 18.7609 14.2276 18.7995 13.9693L18.9404 12.7031C18.9889 12.2262 18.7075 11.7693 18.2609 11.6204L18.2604 11.6209ZM9.75332 10.7867L8.07333 10.7618C7.92266 10.7618 7.81599 10.6031 7.87421 10.4587L8.21421 9.57956C8.30177 9.356 8.50088 9.20222 8.73377 9.18222L9.75332 9.12267V10.7862V10.7867ZM13.7449 10.8413L10.4818 10.7964V9.10311L12.4191 9.18267C12.5628 9.19709 12.696 9.26441 12.7929 9.37156L13.8613 10.5733C13.9538 10.6778 13.8809 10.8413 13.7449 10.8413Z" fill="#9364ED"/>
</svg>
