<svg fill="none" height="373" viewBox="0 0 314 373" width="314" xmlns="http://www.w3.org/2000/svg" xmlns:xlink="http://www.w3.org/1999/xlink"><linearGradient id="a" gradientUnits="userSpaceOnUse" x1="180.869" x2="178.43" y1="170.415" y2="174.639"><stop offset=".133" stop-color="#ababab"/><stop offset=".158" stop-color="#c7c7c7"/></linearGradient><g fill="#9364ed"><path d="m27.1252 105.246c-.194-.486.0971-1.068.5822-1.262.4852-.194 1.0674.097 1.2615.582.194.485-.0971 1.068-.5822 1.262-.0971 0-.1941.097-.2911.097-.4852 0-.8733-.291-.9704-.679zm13.3907-4.949c-.1941-.4854.097-1.0676.5822-1.2616.4852-.1941 1.0674.097 1.2614.5822.1941.4854-.097 1.0674-.5822 1.2614-.097 0-.1941.097-.3881.097-.3882 0-.6792-.291-.8733-.679zm13.4877-4.9489c-.1941-.4852.0971-1.0674.5822-1.2615.4852-.194 1.0674.0971 1.2615.5822.194.4852-.0971 1.0674-.5822 1.2615-.0971 0-.1941.097-.2912.097-.4851 0-.8733-.2911-.9703-.6792zm13.3907-4.9488c-.1941-.4851.097-1.0673.5822-1.2614s1.0673.097 1.2614.5822-.097 1.0674-.5822 1.2614c-.097 0-.194.0971-.2911.0971-.3881 0-.7762-.2911-.9703-.6793zm13.4877-4.9487c-.194-.4852.0971-1.0674.5822-1.2614.4852-.1941 1.0673.097 1.2614.5822.1941.4851-.097 1.0673-.5822 1.2614-.097 0-.194.097-.291.097-.4852 0-.8733-.2911-.9704-.6792zm13.3907-4.9487c-.1941-.4852.097-1.0674.5821-1.2615.4852-.194 1.0675.0971 1.2615.5822.1941.4852-.097 1.0674-.5822 1.2615-.097 0-.1941.097-.3881.097-.2911 0-.6793-.2911-.8733-.6792zm13.4873-4.9487c-.194-.4852.097-1.0674.583-1.2615.485-.1941 1.067.097 1.261.5822s-.097 1.0674-.582 1.2615c-.097 0-.194.097-.291.097-.485 0-.874-.2911-.971-.6792zm13.391-4.9488c-.194-.4852.097-1.0673.582-1.2614s1.068.097 1.262.5822-.097 1.0674-.583 1.2614c-.097 0-.194.0971-.291.0971-.388 0-.776-.2911-.97-.6793zm13.488-4.9487c-.194-.4852.097-1.0674.582-1.2614.485-.1941 1.067.097 1.261.5822.194.4851-.097 1.0673-.582 1.2614-.097 0-.194.097-.291.097-.485 0-.873-.2911-.97-.6792zm13.39-4.9487c-.194-.4852.097-1.0674.583-1.2615.485-.194 1.067.0971 1.261.5822.194.4852-.097 1.0674-.582 1.2615-.097 0-.194.097-.388.097-.291 0-.679-.2911-.874-.6792zm13.488-4.9488c-.194-.4851.097-1.0673.582-1.2614.486-.1941 1.068.097 1.262.5822s-.097 1.0674-.582 1.2614c-.097 0-.194.0971-.291.0971-.486 0-.874-.2911-.971-.6793zm13.488-4.9487c-.194-.4852.097-1.0674.582-1.2614.485-.1941 1.067.097 1.261.5822.195.4851-.097 1.0673-.582 1.2614-.097.0971-.194.097-.388.097-.388 0-.776-.2911-.873-.6792zm13.391-4.9487c-.195-.4852.097-1.0674.582-1.2615.485-.194 1.067.0971 1.261.5822.194.4852-.097 1.0674-.582 1.2615-.097 0-.194.097-.291.097-.485 0-.776-.2911-.97-.6792zm13.487-4.9487c-.194-.4852.097-1.0674.582-1.2615.486-.1941 1.068.0971 1.262.5822.194.4852-.097 1.0674-.582 1.2615-.097 0-.194.097-.388.097-.389 0-.777-.2911-.874-.6792zm13.391-4.9488c-.194-.4851.097-1.0673.582-1.2614s1.067.097 1.262.5822c.194.4852-.097 1.0674-.583 1.2614-.097 0-.194.0971-.291.0971-.485 0-.776-.2911-.97-.6793zm13.488-4.9487c-.194-.4852.097-1.0674.582-1.2614.485-.1941 1.067.097 1.261.5822.194.4851-.097 1.0673-.582 1.2614-.097 0-.194.097-.291.097-.485 0-.873-.2911-.97-.6792zm13.39-4.9487c-.194-.4852.097-1.0674.583-1.2615.485-.194 1.067.0971 1.261.5822.194.4852-.097 1.0674-.582 1.2615-.097 0-.194.097-.291.097-.486 0-.777-.2911-.971-.6792zm13.488-4.9488c-.194-.4851.097-1.0673.582-1.2614s1.068.097 1.262.5822-.097 1.0674-.583 1.2614c-.097 0-.194.0971-.388.0971-.388 0-.776-.2911-.873-.6793zm13.391-4.9487c-.194-.4852.097-1.0674.582-1.2614.485-.1941 1.067.097 1.261.5822.194.4851-.097 1.0674-.582 1.2614-.097 0-.194.0971-.291.0971-.388 0-.776-.2911-.97-.6793zm13.487-4.9487c-.194-.4852.097-1.0674.583-1.26146.485-.19406 1.067.09706 1.261.58216.194.4852-.097 1.0674-.582 1.2615-.097 0-.194.097-.388.097-.388 0-.777-.2911-.874-.6792zm13.391-4.94874c-.194-.48517.097-1.06738.582-1.26144.485-.19407 1.068.09703 1.262.5822s-.097 1.06737-.582 1.26144c-.098 0-.194.09703-.292.09703-.388 0-.776-.2911-.97-.67923zm13.488-4.94873c-.194-.485171.097-1.067374.582-1.2614419.485-.1940681 1.067.0970339 1.261.5822029s-.097 1.067369-.582 1.261439c-.097 0-.194.09704-.291.09704-.485 0-.873-.29111-.97-.67924z"/><path d="m.246338 134.454c-.194068-.485.09701-1.067.582179-1.262.485173-.194 1.067363.098 1.261433.583.19406.485-.09701 1.067-.58218 1.261-.09704 0-.1941.097-.38816.097-.388138-.097-.776238-.291-.873272-.679zm13.390662-5.24c-.1941-.485.097-1.067.5822-1.261s1.0674.097 1.2615.582c.194.485-.0971 1.067-.5823 1.261-.097 0-.194.097-.3881.097-.3881 0-.6792-.291-.8733-.679zm13.4877-5.143c-.194-.485.097-1.067.5822-1.261s1.0674.097 1.2614.582c.1941.485-.097 1.067-.5821 1.261-.0971.098-.1941.098-.3882.098-.3881 0-.7762-.292-.8733-.68zm13.3907-5.142c-.1941-.486.097-1.068.5822-1.262.4851-.194 1.0673.097 1.2614.582s-.097 1.068-.5822 1.262c-.097 0-.1941.097-.3881.097-.3882 0-.6792-.291-.8733-.679zm13.4877-5.143c-.1941-.485.097-1.068.5822-1.262s1.0674.097 1.2614.582c.1941.486-.097 1.068-.5821 1.262-.0971 0-.1941.097-.3882.097-.3881 0-.7763-.291-.8733-.679zm13.3907-5.143c-.1941-.485.097-1.067.5822-1.262.4852-.194 1.0673.098 1.2614.583s-.097 1.067-.5822 1.261c-.097.097-.1941.097-.3881.097-.2911 0-.6792-.291-.8733-.679zm13.4877-5.143c-.194-.485 0-1.067.5822-1.261.4852-.194 1.0673.097 1.2614.582s-.097 1.067-.5822 1.261c-.097 0-.194.097-.291.097-.4852 0-.8733-.291-.9704-.679zm13.3906-5.1427c-.194-.4851.0971-1.0674.5822-1.2614.4852-.1941 1.0674.097 1.2615.5822s-.097 1.0674-.5822 1.2614c-.097 0-.1941.0971-.3881.0971-.2911 0-.6793-.2911-.8734-.6793zm13.4879-5.1428c-.194-.4851.097-1.0674.582-1.2614.485-.1941 1.067.097 1.262.5822.194.4852-.097 1.0674-.583 1.2614-.097 0-.194.0971-.388.0971-.388-.0971-.776-.2911-.873-.6793zm13.391-5.1428c-.194-.4851.097-1.0673.582-1.2614s1.067.097 1.261.5822-.097 1.0674-.582 1.2614c-.097 0-.194.0971-.388.0971-.291-.0971-.679-.2911-.873-.6793zm13.487-5.1428c-.194-.4851.097-1.0673.583-1.2614.485-.1941 1.067.097 1.261.5822s-.097 1.0674-.582 1.2614c-.097 0-.194.0971-.388.0971-.389-.0971-.777-.2911-.874-.6793zm13.391-5.1428c-.194-.4851.097-1.0673.582-1.2614s1.068.097 1.262.5822-.097 1.0674-.583 1.2614c-.097 0-.194.0971-.291.0971-.388-.0971-.776-.2911-.97-.6793zm13.488-5.1428c-.194-.4851 0-1.0673.582-1.2614.485-.1941 1.067.097 1.261.5822s-.097 1.0674-.582 1.2614c-.097 0-.194.0971-.388.0971-.388-.0971-.679-.2911-.873-.6793zm13.487-5.1428c-.194-.4851.097-1.0673.583-1.2614.485-.1941 1.067.097 1.261.5822s-.097 1.0674-.582 1.2614c-.097 0-.194.0971-.388.0971-.389-.0971-.777-.2911-.874-.6793zm13.391-5.1428c-.194-.4851.097-1.0673.582-1.2614s1.068.097 1.262.5822-.097 1.0674-.582 1.2615c-.098 0-.195.097-.292.097-.485-.097-.776-.2911-.97-.6793zm13.488-5.1427c-.194-.4852.097-1.0674.582-1.2615s1.067.097 1.261.5822-.097 1.0674-.582 1.2615c-.097 0-.194.097-.388.097-.388-.097-.776-.2911-.873-.6792zm13.39-5.1428c-.194-.4852.097-1.0674.583-1.2615.485-.1941 1.067.097 1.261.5822s-.097 1.0674-.582 1.2615c-.097.097-.194.097-.291.097-.485-.097-.776-.3881-.971-.6792zm13.488-5.2399c-.194-.4851.097-1.0673.582-1.2614.486-.1941 1.068.097 1.262.5822s-.097 1.0674-.582 1.2614c-.097 0-.195.0971-.389.0971-.388 0-.776-.2911-.873-.6793zm13.391-5.1428c-.194-.4851.097-1.0673.582-1.2614s1.067.097 1.261.5822c.195.4852-.097 1.0674-.582 1.2614-.097 0-.194.0971-.388.0971-.291 0-.679-.2911-.873-.6793zm13.488-5.1428c-.195-.4851.097-1.0673.582-1.2614s1.067 0 1.261.5822c.194.4852-.097 1.0674-.582 1.2614-.097.0971-.194.0971-.388.0971-.388 0-.776-.2911-.873-.6793zm13.39-5.1428c-.194-.4851.097-1.0673.582-1.2614.486-.1941 1.068.097 1.262.5822s-.097 1.0674-.582 1.2614c-.097 0-.194.0971-.389.0971-.291 0-.679-.2911-.873-.6793zm13.488-5.1428c-.194-.4851.097-1.0673.582-1.2614s1.067.097 1.262.5822c.194.4852-.097 1.0674-.583 1.2614-.097 0-.194.0971-.388.0971-.388 0-.776-.2911-.873-.6793zm13.391-5.1428c-.194-.4851.097-1.0673.582-1.2614s1.067.097 1.261.5822-.097 1.0674-.582 1.2614c-.097.0971-.194.0971-.291.0971-.388 0-.776-.2911-.97-.6793zm13.487-5.1428c-.194-.4851.097-1.0673.583-1.2614.485-.1941 1.067.097 1.261.5822s-.097 1.0674-.582 1.2615c-.097 0-.194.097-.388.097-.389-.097-.777-.2911-.874-.6793z"/><path d="m.246607 153.665c-.1940675-.485-.000023-1.067.58218-1.262.485173-.194 1.067363 0 1.261433.583.19406.485-.09701 1.067-.58218 1.261-.09704 0-.1941.097-.38816.097-.388139-.097-.776239-.291-.873273-.679zm13.390693-5.337c-.1941-.485-.0001-1.067.5822-1.261.4851-.194 1.0674.097 1.2614.582.1941.485 0 1.067-.5822 1.261-.097 0-.194.097-.3881.097-.3881-.097-.6793-.291-.8733-.679zm13.4877-5.337c-.1941-.485 0-1.067.5822-1.261.4852-.194 1.0673 0 1.2614.582.1941.485 0 1.067-.5822 1.261-.097 0-.1941.097-.3881.097-.3882-.097-.7763-.291-.8733-.679zm13.3907-5.337c-.1941-.485-.0001-1.067.5822-1.261.4851-.194 1.0673 0 1.2614.582.194.485 0 1.067-.5822 1.262-.097 0-.1941.097-.3882.097-.2911-.097-.6792-.292-.8732-.68zm13.4876-5.434c-.194-.485.0001-1.067.5823-1.261.4852-.194 1.0673 0 1.2614.582.1941.485 0 1.068-.5822 1.262-.097 0-.1941.097-.3881.097-.3882 0-.7763-.291-.8734-.68zm13.3908-5.336c-.1941-.486-.0001-1.068.5821-1.262.4852-.194 1.0674 0 1.2615.582.194.485 0 1.068-.5822 1.262-.097 0-.1941.097-.3882.097-.2911 0-.6792-.291-.8732-.679zm13.4877-5.337c-.1941-.485 0-1.068.5822-1.262.4852-.194 1.0673 0 1.2614.485.194.486 0 1.068-.5822 1.262-.0971 0-.1941.097-.3882.097-.3881.097-.7762-.194-.8732-.582zm13.3906-5.337c-.1941-.485 0-1.068.5822-1.262.4852-.194 1.0674 0 1.2615.583.194.485 0 1.067-.5822 1.261-.097 0-.1941.097-.3882.097-.2911-.097-.6792-.291-.8733-.679zm13.4876-5.337c-.194-.485 0-1.067.582-1.261.485-.195 1.068 0 1.262.582.194.485 0 1.067-.485 1.261-.097.097-.194.097-.389.097-.485-.097-.873-.291-.97-.679zm13.391-5.337c-.194-.485 0-1.067.582-1.261.485-.194 1.067.097 1.261.582s0 1.067-.582 1.261c-.097 0-.194.097-.388.097-.291-.097-.679-.291-.873-.679zm13.487-5.337c-.194-.4849.001-1.0671.583-1.2612.485-.1941 1.067 0 1.261.5822.194.485 0 1.067-.582 1.261-.097 0-.194.097-.388.097-.388-.097-.679-.291-.874-.679zm13.391-5.4337c-.194-.4851 0-1.0673.582-1.2614.486-.1941 1.068 0 1.262.5822.194.4852 0 1.0674-.582 1.2614-.097.0971-.194.0971-.388.0971-.292 0-.68-.2911-.874-.6793zm13.488-5.3368c-.194-.4852 0-1.0674.582-1.2615.485-.194 1.068 0 1.262.4852s0 1.0674-.583 1.2614c-.097 0-.194.0971-.388.0971-.388.097-.679-.1941-.873-.5822zm13.488-5.3369c-.194-.4852 0-1.0674.485-1.2614.485-.1941 1.067 0 1.261.5822.194.4851 0 1.0673-.582 1.2614-.097 0-.194.0971-.388.0971-.291-.0971-.679-.2912-.776-.6793zm13.39-5.3369c-.194-.4851 0-1.0673.582-1.2614.486-.1941 1.068 0 1.262.5822.194.4852 0 1.0674-.582 1.2614-.097 0-.194.0971-.388.0971-.389-.097-.68-.2911-.874-.6793zm13.488-5.3368c-.194-.4852 0-1.0674.582-1.2615.485-.194 1.068.0971 1.262.5822.194.4852 0 1.0674-.582 1.2615-.098 0-.195.097-.389.097-.388-.097-.776-.2911-.873-.6792zm13.391-5.3369c-.194-.4852 0-1.0673.485-1.2614s1.067 0 1.261.5822c.194.4852 0 1.0674-.582 1.2614-.097 0-.194.0971-.388.0971-.194-.0971-.582-.2911-.776-.6793zm13.487-5.3368c-.194-.4852 0-1.0674.583-1.2615.485-.1941 1.067 0 1.261.5822.194.4852 0 1.0674-.582 1.2615-.097 0-.194.097-.388.097-.388-.097-.777-.3881-.874-.6792zm13.391-5.4339c-.194-.4852 0-1.0674.582-1.2615.485-.194 1.068 0 1.262.5822.194.4852 0 1.0674-.582 1.2615-.097 0-.195.097-.389.097-.291 0-.679-.2911-.873-.6792zm13.488-5.3369c-.194-.4852 0-1.0674.485-1.2614.485-.1941 1.067 0 1.261.5822.194.4851 0 1.0673-.582 1.2614-.097 0-.194.097-.388.097-.291 0-.679-.2911-.776-.6792zm13.39-5.3369c-.194-.4851.001-1.0673.583-1.2614.485-.1941 1.067 0 1.261.5822.194.4852 0 1.0674-.582 1.2614-.097 0-.194.0971-.388.0971-.291-.0971-.68-.2911-.874-.6793zm13.488-5.3368c-.194-.4852 0-1.0674.582-1.2615.486-.194 1.068 0 1.262.5822.194.4852 0 1.0674-.582 1.2615-.097 0-.194.097-.389.097-.388-.097-.776-.2911-.873-.6792zm13.391-5.3369c-.194-.4852 0-1.0674.582-1.2614.485-.1941 1.067 0 1.262.5822.194.4851-.001 1.0673-.583 1.2614-.097 0-.194.097-.388.097-.291-.097-.679-.2911-.873-.6792zm13.488-5.3369c-.194-.4851 0-1.0673.582-1.2614.485-.1941 1.067.097 1.261.5822s-.097 1.0674-.582 1.2614c-.097 0-.194.0971-.388.0971-.388-.0971-.679-.2911-.873-.6793z"/><path d="m.246242 172.977c-.1940673-.485 0-1.067.48517-1.261.485168-.194 1.067358 0 1.261428.485s0 1.067-.48517 1.261c-.09703.097-.29112.097-.38816.097-.388134 0-.776234-.291-.873268-.582zm13.390658-5.628c-.1941-.485 0-1.067.4852-1.261.4851-.194 1.0673 0 1.2614.485s0 1.067-.4852 1.261c-.097.097-.194.097-.3881.097-.2911.097-.6792-.194-.8733-.582zm13.4877-5.531c-.194-.485 0-1.067.4852-1.261s1.0674 0 1.2614.485c.1941.485 0 1.067-.4851 1.261-.0971 0-.1941.097-.3882.097-.3881 0-.7762-.194-.8733-.582zm13.3907-5.531c-.1941-.485 0-1.067.4852-1.261.4851-.194 1.0673 0 1.2614.485s0 1.067-.4852 1.261c-.097.097-.2911.097-.3881.097-.2911 0-.6792-.194-.8733-.582zm13.4877-5.531c-.1941-.485 0-1.067.4852-1.261.4851-.194 1.0674 0 1.2614.485.1941.485 0 1.067-.4851 1.262-.0971 0-.1941.097-.3882.097-.3881 0-.7763-.195-.8733-.583zm13.3907-5.628c-.1941-.485 0-1.067.4852-1.261.4851-.194 1.0673 0 1.2614.485s0 1.067-.4852 1.262c-.097 0-.1941.097-.3881.097-.2911.097-.6792-.194-.8733-.583zm13.4877-5.531c-.194-.485 0-1.067.4852-1.261s1.0673 0 1.2614.485c.194.485 0 1.068-.4852 1.262-.097 0-.2911.097-.3882.097-.3881 0-.7761-.194-.8732-.583zm13.3906-5.53c-.194-.486 0-1.068.4852-1.262s1.0674 0 1.2615.485 0 1.068-.4852 1.262c-.097 0-.1941.097-.3881.097-.2911 0-.6793-.194-.8734-.582zm13.488-5.531c-.194-.486 0-1.068.485-1.262s1.067 0 1.261.485c.195.485 0 1.068-.485 1.262-.097.097-.291.097-.388.097-.388 0-.679-.194-.873-.582zm13.39-5.531c-.194-.486 0-1.068.486-1.262.485-.194 1.067 0 1.261.485.194.486 0 1.068-.485 1.262-.097 0-.194.097-.388.097-.291 0-.679-.291-.874-.582zm13.488-5.628c-.194-.485 0-1.068.485-1.262s1.068 0 1.262.485c.194.486 0 1.068-.485 1.262-.097 0-.194.097-.389.097-.388 0-.679-.194-.873-.582zm13.488-5.531c-.194-.485 0-1.068.485-1.262s1.067 0 1.262.485c.194.486 0 1.068-.486 1.262-.097.097-.291.097-.388.097-.388 0-.776-.194-.873-.582zm13.391-5.531c-.194-.485 0-1.068.485-1.262s1.067 0 1.261.486c.194.485 0 1.067-.485 1.261-.097 0-.194.097-.388.097-.388 0-.679-.194-.873-.582zm13.487-5.531c-.194-.485 0-1.0675.485-1.2616.486-.194 1.068 0 1.262.4856.194.485 0 1.067-.582 1.261-.097 0-.194.097-.388.097-.292 0-.68-.291-.777-.582zm13.391-5.6281c-.194-.4852 0-1.0674.485-1.2614.485-.1941 1.068 0 1.262.4851.194.4852 0 1.0674-.486 1.2615-.097.097-.291.097-.388.097-.388.0971-.679-.194-.873-.5822zm13.488-5.5309c-.194-.4852 0-1.0674.485-1.2615.485-.194 1.067 0 1.261.4852s0 1.0674-.485 1.2615c-.097 0-.194.097-.388.097-.388 0-.776-.1941-.873-.5822zm13.39-5.5309c-.194-.4852 0-1.0674.486-1.2615.485-.1941 1.067 0 1.261.4852s0 1.0674-.485 1.2614c-.097 0-.194.0971-.388.0971-.292 0-.68-.1941-.874-.5822zm13.488-5.531c-.194-.4851 0-1.0674.485-1.2614.485-.1941 1.068 0 1.262.4851.194.4852 0 1.0674-.486 1.2615-.097.097-.291.097-.388.097-.388 0-.776-.194-.873-.5822zm13.391-5.6279c-.194-.4852 0-1.0674.485-1.2615.485-.194 1.067 0 1.261.4852s0 1.0674-.485 1.2614c-.097 0-.194.0971-.388.0971-.291.097-.679-.1941-.873-.5822zm13.487-5.531c-.194-.4851 0-1.0674.486-1.2614.485-.1941 1.067 0 1.261.4852.194.4851 0 1.0673-.485 1.2614-.097 0-.291.097-.388.097-.388 0-.777-.194-.874-.5822zm13.391-5.5309c-.194-.4852 0-1.0674.485-1.2614.485-.1941 1.068 0 1.262.4851.194.4852 0 1.0674-.485 1.2615-.098.097-.195.097-.389.097-.291 0-.679-.1941-.873-.5822zm13.488-5.5309c-.194-.4852 0-1.0674.485-1.2615.485-.194 1.067 0 1.261.4852s0 1.0674-.582 1.2614c-.097 0-.194.0971-.388.0971-.291 0-.582-.1941-.776-.5822zm13.391-5.531c-.195-.4851 0-1.0673.485-1.2614s1.067 0 1.261.4852c.194.4851 0 1.0673-.485 1.2614-.097 0-.194.097-.388.097-.291 0-.679-.2911-.873-.5822zm13.487-5.6279c-.194-.4852 0-1.0674.485-1.2615.486-.194 1.068 0 1.262.4852s0 1.0674-.485 1.2614c-.097.0971-.194.0971-.389.0971-.388 0-.679-.1941-.873-.5822z"/><path d="m.246242 192.187c-.1940673-.485 0-1.067.48517-1.261.485168-.194 1.067358 0 1.261428.485s0 1.067-.48517 1.261c-.09703 0-.29112.097-.38816.097-.388134 0-.776234-.194-.873268-.582zm13.390658-5.725c-.1941-.485 0-1.067.4852-1.261.4851-.194 1.0673 0 1.2614.485s0 1.067-.4852 1.261c-.097.097-.291.097-.3881.097-.2911 0-.6792-.194-.8733-.582zm13.4877-5.725c-.194-.485 0-1.067.4852-1.261s1.0674 0 1.2614.485c.1941.485 0 1.067-.4851 1.261-.0971.097-.2912.097-.3882.097-.3881 0-.7762-.291-.8733-.582zm13.3907-5.822c-.1941-.485 0-1.067.4852-1.261.4851-.194 1.0673 0 1.2614.485s0 1.067-.4852 1.261c-.097.097-.2911.097-.3881.097-.2911 0-.6792-.194-.8733-.582zm13.4877-5.725c-.1941-.485 0-1.067.4852-1.261.4851-.194 1.0674 0 1.2614.485.1941.485 0 1.067-.4851 1.261-.0971 0-.2912.097-.3882.097-.3881 0-.7763-.194-.8733-.582zm13.3907-5.725c-.1941-.485 0-1.067.4852-1.261.4851-.194 1.0673 0 1.2614.485s0 1.067-.4852 1.261c-.097 0-.2911.097-.3881.097-.2911 0-.6792-.291-.8733-.582zm13.4877-5.822c-.194-.485 0-1.067.4852-1.261s1.0673 0 1.2614.485c.194.485 0 1.067-.4852 1.261-.097.097-.2911.097-.3882.097-.3881 0-.6791-.194-.8732-.582zm13.3906-5.725c-.194-.485 0-1.067.4852-1.261s1.0674 0 1.2615.485 0 1.067-.4852 1.261c-.097.097-.2911.097-.3881.097-.2911 0-.6793-.194-.8734-.582zm13.488-5.725c-.194-.485 0-1.067.485-1.261s1.067 0 1.261.485c.195.485 0 1.067-.485 1.261-.097 0-.291.097-.388.097-.388 0-.679-.291-.873-.582zm13.488-5.822c-.195-.485 0-1.067.485-1.261s1.067 0 1.261.485 0 1.067-.485 1.261c-.097.097-.291.097-.388.097-.388 0-.776-.194-.873-.582zm13.39-5.725c-.194-.485 0-1.067.485-1.261.485-.195 1.068 0 1.262.485s0 1.067-.485 1.261c-.097 0-.292.097-.389.097-.388 0-.679-.194-.873-.582zm13.488-5.725c-.194-.485 0-1.067.485-1.261.485-.195 1.067 0 1.262.485.194.485 0 1.067-.486 1.261-.097 0-.291.097-.388.097-.388 0-.776-.291-.873-.582zm13.391-5.822c-.194-.485 0-1.067.485-1.261.485-.195 1.067 0 1.261.485s0 1.067-.485 1.261c-.097 0-.291.097-.388.097-.388 0-.679-.194-.873-.582zm13.487-5.725c-.194-.485 0-1.067.485-1.261.486-.195 1.068 0 1.262.485s0 1.067-.485 1.261c-.097 0-.291.097-.388.097-.389 0-.777-.194-.874-.582zm13.391-5.725c-.194-.485 0-1.067.485-1.261.485-.195 1.068 0 1.262.485s0 1.067-.486 1.261c-.097.097-.291.097-.388.097-.291 0-.679-.194-.873-.582zm13.488-5.822c-.194-.485 0-1.067.485-1.261.485-.195 1.067 0 1.261.485s0 1.067-.485 1.261c-.097.097-.291.097-.388.097-.388 0-.776-.194-.873-.582zm13.39-5.725c-.194-.4852 0-1.0674.486-1.2615.485-.1941 1.067 0 1.261.4852.194.4851 0 1.0673-.485 1.2613-.097.097-.291.097-.388.097-.292 0-.68-.194-.874-.582zm13.488-5.7251c-.194-.4851 0-1.0673.485-1.2614s1.068 0 1.262.4852c.194.4851 0 1.0673-.486 1.2614-.097.097-.291.0971-.388.0971-.388 0-.776-.1941-.873-.5823zm13.391-5.822c-.194-.4852 0-1.0674.485-1.2614.485-.1941 1.067 0 1.261.4851.194.4852 0 1.0674-.485 1.2615-.097 0-.291.097-.388.097-.291.0971-.679-.1941-.873-.5822zm13.487-5.725c-.194-.4852 0-1.0674.486-1.2614.485-.1941 1.067 0 1.261.4851.194.4852 0 1.0674-.485 1.2615-.097 0-.291.097-.388.097-.388 0-.679-.194-.874-.5822zm13.391-5.725c-.194-.4852 0-1.0674.485-1.2614.485-.1941 1.068 0 1.262.4851.194.4852 0 1.0674-.485 1.2615-.098.097-.292.097-.389.097-.291 0-.679-.1941-.873-.5822zm13.488-5.725c-.194-.4852 0-1.0674.485-1.2614.485-.1941 1.067 0 1.261.4851.194.4852 0 1.0674-.485 1.2615-.097.097-.291.097-.388.097-.388 0-.679-.2911-.873-.5822zm13.391-5.822c-.195-.4852 0-1.0674.485-1.2615.485-.194 1.067 0 1.261.4852s0 1.0674-.485 1.2614c-.097.0971-.291.0971-.388.0971-.291 0-.679-.1941-.873-.5822zm13.487-5.725c-.194-.4852 0-1.0674.485-1.2615.486-.194 1.068 0 1.262.4852s0 1.0674-.485 1.2614c-.097 0-.292.0971-.389.0971-.388 0-.679-.1941-.873-.5822z"/><path d="m13.6369 205.48c-.1941-.485 0-1.067.4851-1.261.4852-.194 1.0674 0 1.2615.485.194.485 0 1.067-.4852 1.262-.097.097-.2911.097-.3881.097-.2911 0-.6793-.195-.8733-.583zm13.4877-5.919c-.1941-.485 0-1.067.4852-1.261.4851-.194 1.0673 0 1.2614.485s0 1.067-.4852 1.261c-.097.098-.2911.097-.3881.097-.3882 0-.7763-.194-.8733-.582zm13.3907-6.016c-.1941-.485 0-1.067.4851-1.261.4852-.194 1.0674 0 1.2615.485.194.485 0 1.067-.4852 1.261-.097.097-.2911.097-.3882.097-.2911 0-.6792-.194-.8732-.582zm13.4876-5.919c-.194-.485 0-1.067.4852-1.261s1.0674 0 1.2615.485 0 1.067-.4852 1.261c-.097.097-.2911.097-.3881.097-.3882 0-.6793-.194-.8734-.582zm13.3908-5.919c-.1941-.485 0-1.067.4851-1.261.4852-.194 1.0674 0 1.2615.485.194.485 0 1.067-.4852 1.261-.097.097-.2911.097-.3882.097-.2911 0-.6792-.291-.8732-.582zm13.4877-6.016c-.1941-.485 0-1.067.4852-1.261.4851-.195 1.0673 0 1.2613.485.1941.485 0 1.067-.4851 1.261-.0971.097-.2912.097-.3882.097-.3881 0-.6791-.194-.8732-.582zm13.4876-5.919c-.1941-.485 0-1.067.4852-1.262.4852-.194 1.0674 0 1.2615.486.194.485 0 1.067-.4852 1.261-.097.097-.2911.097-.3882.097-.3881 0-.7763-.194-.8733-.582zm13.391-6.016c-.194-.485 0-1.068.485-1.262s1.067 0 1.261.485c.194.486 0 1.068-.485 1.262-.097.097-.291.097-.388.097-.388 0-.679-.194-.873-.582zm13.487-5.919c-.194-.485 0-1.068.486-1.262.485-.194 1.067 0 1.261.485.194.486 0 1.068-.485 1.262-.097.097-.291.097-.388.097-.388 0-.776-.194-.874-.582zm13.391-5.919c-.194-.486 0-1.068.485-1.262s1.068 0 1.262.485c.194.486 0 1.068-.485 1.262-.097.097-.292.097-.389.097-.388 0-.679-.291-.873-.582zm13.488-6.016c-.194-.486 0-1.068.485-1.262s1.067 0 1.261.485c.195.485 0 1.068-.485 1.262-.097.097-.291.097-.388.097-.388 0-.776-.194-.873-.582zm13.391-5.92c-.195-.485 0-1.067.485-1.261s1.067 0 1.261.485 0 1.068-.485 1.262c-.097.097-.291.097-.388.097-.388 0-.679-.194-.873-.583zm13.487-6.016c-.194-.485 0-1.067.485-1.261.486-.194 1.068 0 1.262.485s0 1.067-.485 1.262c-.097.097-.291.097-.388.097-.389 0-.777-.194-.874-.583zm13.391-5.919c-.194-.485 0-1.067.485-1.261s1.067 0 1.262.485c.194.485 0 1.067-.486 1.261-.097.098-.291.098-.388.098-.291 0-.679-.195-.873-.583zm13.488-5.919c-.194-.485 0-1.067.485-1.261s1.067 0 1.261.485 0 1.067-.485 1.261c-.097.097-.291.097-.388.097-.388 0-.776-.291-.873-.582zm13.39-6.016c-.194-.485 0-1.067.486-1.261.485-.194 1.067 0 1.261.485s0 1.067-.485 1.261c-.097.097-.291.097-.388.097-.292 0-.68-.194-.874-.582zm13.488-5.919c-.194-.485 0-1.067.485-1.261s1.068 0 1.262.485 0 1.067-.486 1.261c-.097 0-.291.097-.388.097-.388 0-.679-.194-.873-.582zm13.391-5.919c-.194-.485 0-1.067.485-1.261.485-.195 1.067 0 1.261.485s0 1.067-.485 1.261c-.097.097-.291.097-.388.097-.291-.097-.679-.291-.873-.582zm13.487-6.0161c-.194-.4852 0-1.0674.486-1.2614.485-.1941 1.067 0 1.261.4851.194.4852 0 1.0674-.485 1.2615-.097.097-.291.097-.388.097-.388 0-.68-.1941-.874-.5822zm13.391-5.9191c-.194-.4851 0-1.0673.485-1.2614s1.068 0 1.262.4852c.194.4851 0 1.0673-.485 1.2614-.098.097-.292.097-.389.097-.291 0-.679-.2911-.873-.5822zm13.488-6.0161c-.194-.4851 0-1.0673.485-1.2614s1.067 0 1.261.4852c.194.4851 0 1.0673-.485 1.2614-.097 0-.291.097-.388.097-.388 0-.679-.194-.873-.5822zm13.487-5.919c-.194-.4852 0-1.0674.486-1.2615.485-.194 1.067 0 1.261.4852s0 1.0674-.485 1.2614c-.097.0971-.291.0971-.388.0971-.388 0-.776-.1941-.874-.5822zm13.391-6.0161c-.194-.4852 0-1.0674.485-1.2615.486-.194 1.068 0 1.262.4852s0 1.0674-.485 1.2614c-.097.0971-.292.0971-.389.0971-.388 0-.679-.1941-.873-.5822z"/><path d="m27.1232 218.388c-.1941-.485 0-1.067.4852-1.261.4851-.194 1.0673 0 1.2614.485s0 1.067-.4852 1.261c-.097.097-.2911.097-.3881.097-.3882 0-.6792-.194-.8733-.582zm13.3907-6.113c-.1941-.485 0-1.067.4851-1.262.4852-.194 1.0674 0 1.2615.486.194.485 0 1.067-.4852 1.261-.097.097-.2911.097-.3882.097-.2911 0-.6792-.291-.8732-.582zm13.4876-6.21c-.194-.485 0-1.068.4852-1.262s1.0674 0 1.2615.485c.1941.486 0 1.068-.4852 1.262-.097.097-.2911.097-.3881.097-.3882 0-.6793-.194-.8734-.582zm13.3908-6.113c-.1941-.486 0-1.068.4851-1.262.4852-.194 1.0674 0 1.2615.485.194.485 0 1.068-.4852 1.262-.097.097-.2911.097-.3882.097-.2911 0-.6792-.291-.8732-.582zm13.4877-6.211c-.1941-.485 0-1.067.4852-1.261.4851-.194 1.0673 0 1.2613.485.1941.485 0 1.068-.4851 1.262-.0971.097-.2912.097-.3882.097-.3881 0-.6791-.194-.8732-.583zm13.4876-6.113c-.1941-.485 0-1.067.4852-1.261s1.0674 0 1.2615.485c.194.485 0 1.067-.4852 1.261-.097.098-.2911.097-.3882.097-.3881 0-.7763-.291-.8733-.582zm13.3904-6.21c-.194-.485 0-1.067.486-1.261.485-.194 1.067 0 1.261.485s0 1.067-.485 1.261c-.097.097-.291.097-.388.097-.388 0-.68-.194-.874-.582zm13.488-6.113c-.194-.485 0-1.067.485-1.261.485-.195 1.068 0 1.262.485s0 1.067-.486 1.261c-.097.097-.291.097-.388.097-.388 0-.776-.194-.873-.582zm13.391-6.21c-.194-.485 0-1.068.485-1.262s1.067 0 1.261.486c.194.485 0 1.067-.485 1.261-.097.097-.291.097-.388.097-.388 0-.679-.194-.873-.582zm13.487-6.113c-.194-.485 0-1.068.486-1.262.485-.194 1.067 0 1.261.485.194.486 0 1.068-.485 1.262-.097.097-.291.097-.388.097-.388 0-.777-.194-.874-.582zm13.391-6.21c-.194-.486 0-1.068.485-1.262s1.068 0 1.262.485 0 1.068-.485 1.262c-.098.097-.291.097-.389.097-.291 0-.679-.194-.873-.582zm13.488-6.114c-.194-.485 0-1.067.485-1.261s1.067 0 1.261.485 0 1.067-.485 1.262c-.097.097-.291.097-.388.097-.388 0-.776-.194-.873-.583zm13.39-6.21c-.194-.485 0-1.067.486-1.261.485-.194 1.067 0 1.261.485s0 1.067-.485 1.261c-.097.097-.291.097-.388.097-.291 0-.679-.194-.874-.582zm13.488-6.113c-.194-.485 0-1.067.485-1.261.486-.194 1.068 0 1.262.485s0 1.067-.485 1.261c-.097.097-.291.097-.388.097-.389 0-.68-.194-.874-.582zm13.391-6.21c-.194-.485 0-1.067.485-1.262.485-.194 1.067 0 1.261.486.195.485 0 1.067-.485 1.261-.097.097-.291.097-.388.097-.291 0-.679-.194-.873-.582zm13.488-6.113c-.195-.485 0-1.068.485-1.262s1.067 0 1.261.486c.194.485 0 1.067-.485 1.261-.097.097-.291.097-.388.097-.388 0-.679-.194-.873-.582zm13.39-6.113c-.194-.486 0-1.068.485-1.262.486-.194 1.068 0 1.262.485.194.486 0 1.068-.485 1.262-.097.097-.291.097-.388.097-.291-.097-.68-.291-.874-.582zm13.488-6.211c-.194-.485 0-1.067.485-1.261s1.067 0 1.262.485c.194.485 0 1.068-.486 1.262-.097.097-.291.097-.388.097-.388 0-.679-.194-.873-.583zm13.488-6.113c-.194-.485 0-1.067.485-1.261s1.067 0 1.261.485 0 1.067-.485 1.262c-.097.097-.291.097-.388.097-.388-.097-.776-.292-.873-.583zm13.39-6.21c-.194-.485 0-1.067.486-1.261.485-.1943 1.067 0 1.261.485s0 1.067-.485 1.261c-.097.097-.291.097-.388.097-.388 0-.68-.194-.874-.582zm13.488-6.113c-.194-.4851 0-1.0673.485-1.2614s1.068 0 1.262.4852c.194.4851 0 1.0673-.485 1.2614-.097.097-.292.097-.389.097-.388-.097-.776-.2911-.873-.5822zm13.391-6.2101c-.194-.4852 0-1.0674.485-1.2615.485-.194 1.067 0 1.261.4852s0 1.0674-.485 1.2614c-.097.0971-.291.0971-.388.0971-.388 0-.679-.1941-.873-.5822z"/><path d="m38.2834 231.971c-.1941-.486 0-1.068.4851-1.262.4852-.194 1.0674 0 1.2615.485.194.486 0 1.068-.4852 1.262-.0971.097-.2911.097-.3882.097-.3881 0-.7762-.194-.8732-.582zm12.9054-6.114c-.194-.485 0-1.067.4852-1.261s1.0674 0 1.2614.485c.1941.485 0 1.068-.4851 1.262-.0971.097-.2911.097-.3882.097-.2911 0-.6792-.194-.8733-.583zm13.0026-6.113c-.1941-.485 0-1.067.4851-1.261.4852-.194 1.0674 0 1.2615.485s0 1.067-.4852 1.262c-.097.097-.2911.097-.3881.097-.3882-.097-.6793-.292-.8733-.583zm13.0025-6.21c-.194-.485 0-1.067.4852-1.261s1.0674 0 1.2615.485c.194.485 0 1.067-.4852 1.261-.097.097-.2911.097-.3882.097-.3881 0-.6792-.194-.8733-.582zm13.0026-6.113c-.1941-.485 0-1.067.4852-1.261.4851-.194 1.0673 0 1.2613.485.1941.485 0 1.067-.4851 1.261-.0971.097-.2911.097-.3881.097-.3881 0-.7763-.194-.8733-.582zm12.9055-6.113c-.194-.485 0-1.067.485-1.262.485-.194 1.068 0 1.262.486.194.485 0 1.067-.486 1.261-.097.097-.291.097-.388.097-.291 0-.679-.291-.873-.582zm13.002-6.21c-.194-.485 0-1.068.486-1.262.485-.194 1.067 0 1.261.485.194.486 0 1.068-.485 1.262-.097.097-.291.097-.388.097-.388 0-.679-.194-.874-.582zm13.003-6.113c-.194-.486 0-1.068.485-1.262s1.068 0 1.262.485 0 1.068-.485 1.262c-.098.097-.292.097-.389.097-.388 0-.679-.194-.873-.582zm13.003-6.114c-.194-.485 0-1.067.485-1.261s1.067 0 1.261.485 0 1.068-.485 1.262c-.097.097-.291.097-.388.097-.388 0-.776-.194-.873-.583zm12.905-6.113c-.194-.485 0-1.067.485-1.261s1.068 0 1.262.485 0 1.067-.485 1.261c-.098.098-.292.098-.389.098-.291-.098-.679-.292-.873-.583zm13.003-6.21c-.194-.485 0-1.067.485-1.261s1.067 0 1.261.485 0 1.067-.485 1.261c-.097.097-.291.097-.388.097-.388 0-.679-.194-.873-.582zm13.002-6.113c-.194-.485 0-1.067.485-1.261.486-.194 1.068 0 1.262.485s0 1.067-.485 1.261c-.097.097-.291.097-.388.097-.389 0-.68-.194-.874-.582zm13.003-6.113c-.194-.485 0-1.067.485-1.262.485-.194 1.067 0 1.261.486.194.485 0 1.067-.485 1.261-.097.097-.291.097-.388.097-.388-.097-.776-.291-.873-.582zm12.905-6.21c-.194-.485 0-1.068.485-1.262.486-.194 1.068 0 1.262.485.194.486 0 1.068-.485 1.262-.097.097-.291.097-.388.097-.292 0-.68-.194-.874-.582zm13.003-6.113c-.194-.486 0-1.068.485-1.262s1.067 0 1.261.485 0 1.068-.485 1.262c-.097.097-.291.097-.388.097-.291 0-.679-.194-.873-.582zm13.002-6.114c-.194-.485 0-1.067.485-1.261.486-.194 1.068 0 1.262.485s0 1.068-.485 1.262c-.097.097-.291.097-.388.097-.388-.097-.68-.291-.874-.583zm13.003-6.21c-.194-.485 0-1.067.485-1.261s1.067 0 1.261.485 0 1.067-.485 1.261c-.097.097-.291.097-.388.097-.388 0-.776-.194-.873-.582zm12.905-6.113c-.194-.485 0-1.067.485-1.261.486-.194 1.068 0 1.262.485s0 1.067-.485 1.261c-.097.097-.291.097-.388.097-.291 0-.68-.194-.874-.582zm13.003-6.113c-.194-.485 0-1.067.485-1.261.485-.195 1.067 0 1.262.485.194.485 0 1.067-.486 1.261-.097.097-.291.097-.388.097-.291 0-.679-.291-.873-.582zm13.002-6.113c-.194-.485 0-1.068.486-1.262.485-.194 1.067 0 1.261.486.194.485 0 1.067-.485 1.261-.097.097-.291.097-.388.097-.388-.097-.679-.291-.874-.582zm13.003-6.21c-.194-.485 0-1.068.485-1.262s1.067 0 1.262.485c.194.486 0 1.068-.486 1.262-.097.097-.291.097-.388.097-.388 0-.776-.194-.873-.582zm13.003-6.113c-.194-.486 0-1.068.485-1.262s1.067 0 1.261.485 0 1.068-.485 1.262c-.097.097-.291.097-.388.097-.388 0-.776-.194-.873-.582z"/><path d="m64.1916 237.987c-.1941-.485 0-1.067.4851-1.261.4852-.194 1.0674 0 1.2615.485s0 1.067-.4852 1.261c-.097.097-.2911.097-.3881.097-.3882 0-.6793-.194-.8733-.582zm13.0025-6.307c-.194-.485 0-1.067.4852-1.261s1.0674 0 1.2615.485c.194.485 0 1.067-.4852 1.261-.097.097-.2911.097-.3882.097-.3881 0-.6792-.194-.8733-.582zm13.0026-6.307c-.1941-.485 0-1.068.4852-1.262.4851-.194 1.0673 0 1.2613.486.1941.485 0 1.067-.4851 1.261-.0971.097-.2911.097-.3881.097-.3881-.097-.7763-.291-.8733-.582zm12.9053-6.404c-.194-.486 0-1.068.485-1.262s1.068 0 1.262.485c.194.486 0 1.068-.485 1.262-.097.097-.292.097-.389.097-.291 0-.679-.194-.873-.582zm13.003-6.308c-.194-.485 0-1.067.485-1.261s1.067 0 1.261.485 0 1.068-.485 1.262c-.097.097-.291.097-.388.097-.291 0-.679-.194-.873-.583zm13.002-6.307c-.194-.485 0-1.067.485-1.261.486-.194 1.068 0 1.262.485s0 1.067-.485 1.261c-.097.097-.291.097-.388.097-.389-.097-.68-.291-.874-.582zm13.003-6.404c-.194-.485 0-1.067.485-1.261.485-.195 1.067 0 1.261.485s0 1.067-.485 1.261c-.097.097-.291.097-.388.097-.388 0-.776-.194-.873-.582zm12.905-6.307c-.194-.485 0-1.068.485-1.262.486-.194 1.068 0 1.262.486.194.485 0 1.067-.485 1.261-.097.097-.291.097-.388.097-.292 0-.68-.194-.874-.582zm13.003-6.307c-.194-.486 0-1.068.485-1.262s1.067 0 1.261.485c.195.485 0 1.068-.485 1.262-.194.097-.291.097-.388.097-.291-.097-.679-.291-.873-.582zm13.002-6.405c-.194-.485 0-1.067.486-1.261.485-.194 1.067 0 1.261.485s0 1.067-.485 1.262c-.097.097-.291.097-.388.097-.388 0-.68-.195-.874-.583zm13.003-6.307c-.194-.485 0-1.067.485-1.261s1.067 0 1.262.485c.194.485 0 1.067-.486 1.261-.097.097-.291.097-.388.097-.388 0-.776-.194-.873-.582zm13.003-6.307c-.195-.485 0-1.067.485-1.261.485-.195 1.067 0 1.261.485s0 1.067-.485 1.261c-.097.097-.291.097-.388.097-.388-.097-.776-.291-.873-.582zm12.905-6.307c-.194-.485 0-1.068.485-1.262s1.068 0 1.262.485c.194.486 0 1.068-.486 1.262-.097.097-.291.097-.388.097-.291-.097-.679-.291-.873-.582zm13.003-6.404c-.195-.486 0-1.068.485-1.262s1.067 0 1.261.485 0 1.068-.485 1.262c-.097.097-.291.097-.388.097-.388 0-.679-.194-.873-.582zm13.002-6.308c-.194-.485 0-1.067.485-1.261s1.068 0 1.262.485 0 1.067-.486 1.261c-.097.098-.291.098-.388.098-.388 0-.679-.292-.873-.583zm13.003-6.307c-.194-.485 0-1.067.485-1.261s1.067 0 1.261.485 0 1.067-.485 1.261c-.097.097-.291.097-.388.097-.388-.097-.776-.291-.873-.582zm12.905-6.404c-.194-.485 0-1.068.485-1.262s1.068 0 1.262.486c.194.485 0 1.067-.485 1.261-.097.097-.292.097-.389.097-.291 0-.679-.194-.873-.582zm13.003-6.307c-.194-.486 0-1.068.485-1.262s1.067 0 1.261.485c.194.486 0 1.068-.485 1.262-.097.097-.291.097-.388.097-.388 0-.679-.291-.873-.582zm13.002-6.308c-.194-.485 0-1.067.485-1.261.486-.194 1.068 0 1.262.485s0 1.068-.485 1.262c-.097.097-.291.097-.388.097-.389-.097-.68-.291-.874-.583zm13.003-6.404c-.194-.485 0-1.067.485-1.261s1.067 0 1.261.485 0 1.067-.485 1.261c-.097.097-.291.097-.388.097-.388 0-.776-.194-.873-.582z"/><path d="m90.1953 243.226c-.1941-.485 0-1.067.3881-1.261.4852-.194 1.0673 0 1.2614.388.1941.485 0 1.067-.3882 1.261-.097.097-.2911.097-.4851.097-.2911.097-.6792-.097-.7762-.485zm13.0027-6.501c-.194-.485-.097-1.067.388-1.262.485-.194 1.067 0 1.261.389.194.485 0 1.067-.388 1.261-.097.097-.291.097-.485.097-.291 0-.679-.194-.776-.485zm12.905-6.501c-.194-.486 0-1.068.388-1.262.486-.194 1.068 0 1.359.388.194.486 0 1.068-.485 1.262-.097.097-.291.097-.388.097-.292 0-.68-.194-.874-.485zm13.003-6.599c-.194-.485 0-1.067.485-1.261s1.067-.097 1.261.388c.195.485 0 1.067-.388 1.261-.097.098-.291.098-.485.098-.388.097-.679-.098-.873-.486zm13.002-6.501c-.194-.485 0-1.067.486-1.261.485-.194 1.067 0 1.261.388.194.485 0 1.067-.485 1.261-.097.097-.291.097-.388.097-.388 0-.68-.194-.874-.485zm13.003-6.501c-.194-.485 0-1.068.388-1.262.485-.194 1.067 0 1.261.389.195.485 0 1.067-.388 1.261-.097.097-.291.097-.485.097-.291 0-.679-.194-.776-.485zm12.905-6.599c-.194-.485 0-1.067.486-1.261.485-.194 1.067 0 1.261.485s0 1.068-.388 1.262c-.097.097-.291.097-.388.097-.388 0-.777-.194-.971-.583zm13.003-6.501c-.194-.485 0-1.067.388-1.358.485-.194 1.067 0 1.261.485.195.485 0 1.067-.485 1.261-.097.097-.291.097-.485.097s-.485-.194-.679-.485zm13.003-6.501c-.195-.485-.097-1.067.388-1.261.485-.195 1.067-.098 1.261.388.194.485 0 1.067-.388 1.261-.097.097-.291.097-.388.097-.388 0-.679-.194-.873-.485zm13.002-6.598c-.194-.486 0-1.068.388-1.262.485-.194 1.068 0 1.262.485.194.486 0 1.068-.486 1.262-.097.097-.291.097-.388.097-.291 0-.679-.194-.776-.582zm12.906-6.502c-.195-.485 0-1.067.388-1.358.485-.194 1.067 0 1.261.485s0 1.067-.388 1.262c-.097.097-.291.097-.388.097-.291 0-.679-.195-.873-.486zm13.002-6.501c-.194-.485 0-1.067.485-1.261s1.068 0 1.262.388c.194.485 0 1.067-.388 1.261-.097.097-.292.097-.389.097-.485 0-.776-.194-.97-.485zm13.003-6.598c-.194-.485 0-1.068.388-1.262.485-.194 1.067 0 1.261.388.194.486 0 1.068-.485 1.262-.097.097-.291.097-.388.097-.291.097-.582-.097-.776-.485zm13.002-6.501c-.194-.486-.097-1.068.388-1.262s1.068 0 1.262.388c.194.485 0 1.068-.388 1.262-.097.097-.292.097-.389.097-.388.097-.776-.097-.873-.485zm12.906-6.502c-.194-.485 0-1.067.388-1.261.485-.194 1.067 0 1.261.388.194.485 0 1.067-.485 1.261-.097.097-.291.097-.388.097-.194 0-.582-.194-.776-.485zm13.002-6.598c-.194-.485 0-1.067.388-1.261.486-.195 1.068-.098 1.262.388.194.485 0 1.067-.388 1.261-.097.097-.291.097-.388.097-.389.097-.68-.097-.874-.485zm13.003-6.501c-.194-.485 0-1.068.485-1.262s1.067-.097 1.261.388c.194.486 0 1.068-.388 1.262-.194.097-.291.097-.485.097-.388.097-.679-.097-.873-.485zm13.002-6.502c-.194-.485 0-1.067.388-1.261.486-.194 1.068 0 1.262.388.194.485 0 1.067-.485 1.262-.097.097-.291.097-.388.097-.292 0-.68-.194-.777-.486z"/><path d="m103.199 254.485c-.194-.486-.097-1.068.388-1.262.485-.291 1.068-.097 1.359.388.194.486.097 1.068-.388 1.359-.097.097-.292.097-.486.097-.388-.097-.776-.291-.873-.582zm12.906-6.793c-.291-.485-.097-1.067.388-1.261.485-.291 1.067-.097 1.358.388.194.485.097 1.067-.388 1.261-.194.097-.291.097-.485.097-.291.097-.679-.097-.873-.485zm13.002-6.695c-.194-.485-.097-1.067.388-1.261.486-.195 1.068-.098 1.359.388.194.485.097 1.067-.388 1.358-.097.097-.291.097-.485.097-.389-.097-.68-.291-.874-.582zm13.003-6.695c-.291-.486-.097-1.068.388-1.262.485-.291 1.067-.097 1.358.388s.097 1.068-.388 1.262c-.194.097-.291.097-.485.097-.388 0-.679-.194-.873-.485zm13.002-6.793c-.194-.485-.097-1.067.388-1.261.486-.194 1.068-.097 1.359.388.194.485.097 1.067-.388 1.358-.097.097-.291.097-.485.097-.389 0-.777-.194-.874-.582zm12.906-6.695c-.194-.485-.097-1.067.388-1.262.485-.291 1.067-.097 1.261.389.292.485.097 1.067-.388 1.261-.194.097-.291.097-.485.097s-.582-.194-.776-.485zm13.002-6.792c-.291-.486-.097-1.068.388-1.262.486-.291 1.068-.097 1.359.388.194.485.097 1.068-.388 1.359-.097.097-.291.097-.388.097-.485 0-.777-.194-.971-.582zm13.003-6.696c-.194-.485-.097-1.067.388-1.261s1.067-.097 1.261.388c.292.485.097 1.067-.388 1.358-.194.097-.291.097-.485.097-.291 0-.582-.194-.776-.582zm13.002-6.695c-.291-.485-.097-1.068.388-1.262.486-.291 1.068-.097 1.359.389.194.485.097 1.067-.388 1.261-.194.097-.291.097-.485.097-.388 0-.777-.194-.874-.485zm12.906-6.793c-.194-.485-.097-1.067.388-1.261s1.067-.097 1.359.388c.194.485.097 1.068-.389 1.359-.194.097-.291.097-.485.097-.291 0-.679-.194-.873-.583zm13.002-6.695c-.291-.485-.097-1.067.389-1.261.485-.194 1.067-.097 1.261.388.291.485.097 1.067-.388 1.261-.194.097-.291.097-.485.097-.291.097-.582-.097-.777-.485zm13.003-6.695c-.194-.485-.097-1.068.388-1.262.485-.291 1.067-.097 1.359.388.194.486.097 1.068-.388 1.359-.098.097-.292.097-.486.097-.388-.097-.679-.291-.873-.582zm13.003-6.793c-.194-.485-.098-1.067.388-1.261.485-.194 1.067-.097 1.261.388s.097 1.067-.388 1.262c-.194.097-.291.097-.485.097-.291.097-.679-.097-.776-.486zm12.905-6.695c-.291-.485-.097-1.067.388-1.261.485-.291 1.068-.097 1.359.388s.097 1.067-.388 1.261c-.098.097-.292.097-.486.097-.291 0-.679-.097-.873-.485zm13.003-6.695c-.194-.485-.097-1.068.388-1.262s1.067-.097 1.261.388c.194.486.097 1.068-.388 1.359-.194.097-.291.097-.485.097-.291-.097-.582-.291-.776-.582zm13.002-6.793c-.291-.485-.097-1.067.388-1.261s1.068-.097 1.262.388c.291.485.097 1.067-.388 1.262-.195.097-.292.097-.486.097-.291.097-.582-.097-.776-.486zm13.003-6.695c-.194-.485-.097-1.067.388-1.261s1.067-.097 1.261.388.097 1.067-.388 1.358c-.097.097-.291.097-.485.097-.291-.097-.679-.194-.776-.582z"/><path d="m103.199 272.143c-.291-.486-.097-1.068.388-1.262.486-.291 1.068-.097 1.359.388s.097 1.068-.388 1.262c-.194.097-.291.097-.485.097-.389 0-.777-.194-.874-.485zm12.906-6.89c-.291-.485-.097-1.067.388-1.358s1.067-.097 1.358.388c.194.485.097 1.067-.388 1.261-.194.097-.291.097-.485.097-.291.097-.679-.097-.873-.388zm13.002-6.986c-.291-.485-.097-1.068.388-1.359.486-.291 1.068-.097 1.359.388.291.486.097 1.068-.388 1.359-.194.097-.291.097-.485.097-.389.097-.68-.097-.874-.485zm13.003-6.89c-.291-.485-.097-1.067.388-1.358s1.067-.097 1.358.388.098 1.067-.388 1.261c-.194.097-.291.097-.485.097-.388.097-.679-.097-.873-.388zm13.002-6.889c-.291-.485-.097-1.067.388-1.262.486-.291 1.068-.097 1.359.389.291.485.097 1.067-.388 1.261-.194.097-.291.097-.485.097-.389 0-.777-.194-.874-.485zm12.906-6.987c-.291-.485-.097-1.067.388-1.261.485-.291 1.067-.097 1.359.388.291.485.097 1.068-.389 1.262-.194.097-.291.097-.485.097-.291.097-.679-.097-.873-.486zm13.002-6.889c-.291-.485-.097-1.067.389-1.358.485-.292 1.067-.097 1.358.388s.097 1.067-.388 1.358c-.194.097-.291.097-.485.097-.388 0-.68-.194-.874-.485zm13.003-6.889c-.291-.486-.097-1.068.388-1.359s1.067-.097 1.359.388c.291.485.097 1.068-.389 1.262-.194.097-.291.097-.485.097-.388.097-.679-.097-.873-.388zm13.003-6.987c-.292-.485-.098-1.067.388-1.261.485-.291 1.067-.097 1.358.388s.097 1.067-.388 1.261c-.194.097-.291.097-.485.097-.388.097-.776-.097-.873-.485zm12.905-6.889c-.291-.485-.097-1.068.388-1.262.485-.291 1.068-.097 1.359.389.291.485.097 1.067-.389 1.261-.194.097-.291.097-.485.097-.291 0-.679-.194-.873-.485zm13.003-6.89c-.292-.485-.097-1.067.388-1.358s1.067-.097 1.358.388.097 1.067-.388 1.359c-.194.097-.291.097-.485.097-.388 0-.679-.194-.873-.486zm13.002-6.986c-.291-.485-.097-1.067.388-1.359.485-.291 1.068-.097 1.359.389.291.485.097 1.067-.388 1.358-.194.097-.291.097-.486.097-.388.097-.679-.097-.873-.485zm13.003-6.889c-.291-.486-.097-1.068.388-1.262.485-.291 1.067-.097 1.358.388s.097 1.068-.388 1.262c-.194.097-.291.097-.485.097-.388 0-.776-.194-.873-.485zm12.905-6.89c-.291-.485-.097-1.067.388-1.358.485-.194 1.068-.097 1.359.388s.097 1.067-.388 1.261c-.194.097-.291.097-.486.097-.291.097-.679-.097-.873-.388zm13.003-6.986c-.291-.485-.097-1.068.388-1.359s1.067-.097 1.358.388c.291.486.097 1.068-.388 1.359-.194.097-.291.097-.485.097-.388 0-.679-.097-.873-.485zm13.002-6.89c-.291-.485-.097-1.067.388-1.358.486-.291 1.068-.097 1.359.388s.097 1.067-.388 1.358c-.194.097-.291.097-.485.097-.389 0-.68-.194-.874-.485zm13.003-6.986c-.291-.485-.097-1.068.388-1.262.485-.291 1.067-.097 1.358.389.291.485.097 1.067-.388 1.261-.194.097-.291.097-.485.097-.388.097-.679-.097-.873-.485z"/><path d="m116.106 282.719c-.292-.485-.097-1.068.388-1.262.485-.291 1.067-.097 1.358.389.291.485.097 1.067-.388 1.358-.194.097-.291.097-.485.097-.291-.097-.679-.194-.873-.582zm13.002-7.084c-.291-.485-.097-1.067.388-1.358s1.068-.097 1.262.388c.291.485.097 1.067-.388 1.359-.194.097-.292.097-.486.097-.291 0-.582-.195-.776-.486zm13.003-7.083c-.291-.485-.097-1.067.388-1.262.485-.291 1.067-.097 1.261.389.291.485.097 1.067-.388 1.358-.194.097-.291.097-.485.097-.291-.097-.582-.291-.776-.582zm13.002-7.181c-.291-.485-.097-1.067.388-1.358s1.068-.097 1.359.388.097 1.067-.388 1.359c-.194.097-.292.097-.486.097-.388 0-.679-.097-.873-.486zm12.906-7.083c-.291-.485-.097-1.067.388-1.359.485-.291 1.067-.097 1.261.389.291.485.097 1.067-.388 1.261-.194.097-.291.097-.485.097-.194.097-.582-.097-.776-.388zm13.002-7.181c-.291-.485-.097-1.067.388-1.358.486-.291 1.068-.097 1.359.388s.097 1.067-.388 1.359c-.194.097-.291.097-.485.097-.389.097-.68-.097-.874-.486zm13.003-7.083c-.291-.485-.097-1.067.388-1.359.485-.291 1.067-.097 1.261.389.291.485.097 1.067-.388 1.358-.194.097-.291.097-.485.097-.291 0-.582-.194-.776-.485zm13.002-7.084c-.291-.485-.097-1.067.388-1.358.486-.291 1.068-.097 1.359.388s.097 1.068-.388 1.359c-.194.097-.291.097-.485.097-.389 0-.68-.194-.874-.486zm13.003-7.18c-.291-.485-.097-1.067.388-1.359.485-.291 1.067-.097 1.358.389.292.485.097 1.067-.388 1.358-.194.097-.291.097-.485.097-.388.097-.776-.097-.873-.485zm12.905-7.084c-.291-.485-.097-1.067.389-1.358.485-.291 1.067-.097 1.358.388s.097 1.068-.388 1.262c-.194.097-.291.097-.485.097-.388.097-.68-.097-.874-.389zm13.003-7.083c-.291-.485-.097-1.067.388-1.358.485-.292 1.067-.097 1.358.388.292.485.098 1.067-.388 1.358-.194.097-.291.097-.485.097-.388 0-.679-.194-.873-.485zm13.002-7.18c-.291-.486-.097-1.068.389-1.359.485-.291 1.067-.097 1.358.388s.097 1.068-.388 1.359c-.097.097-.291.097-.485.097-.388 0-.679-.097-.874-.485zm13.003-7.084c-.291-.485-.097-1.067.388-1.358.485-.292 1.067-.097 1.359.388.291.485.097 1.067-.389 1.358-.194.097-.291.097-.485.097-.388 0-.776-.194-.873-.485zm12.905-7.083c-.291-.486-.097-1.068.389-1.359.485-.291 1.067-.097 1.358.388s.097 1.068-.388 1.359c-.097.097-.291.097-.485.097-.291 0-.679-.194-.874-.485zm13.003-7.181c-.291-.485-.097-1.067.388-1.261.485-.291 1.067-.097 1.359.388.291.485.097 1.067-.388 1.358-.195.097-.292.097-.486.097-.388-.097-.679-.194-.873-.582zm13.003-7.083c-.291-.486-.098-1.068.388-1.359.485-.291 1.067-.097 1.358.388s.097 1.068-.388 1.359c-.097.097-.291.097-.485.097-.388 0-.679-.194-.873-.485z"/><path d="m111.35 302.903c-.291-.485-.097-1.067.388-1.358.485-.292 1.067-.097 1.358.388s.097 1.067-.388 1.358c-.194.097-.291.097-.485.097-.291.097-.679-.097-.873-.485zm12.614-6.986c-.291-.486-.097-1.068.388-1.359s1.068-.097 1.359.388.097 1.068-.388 1.359c-.195.097-.292.097-.486.097-.388 0-.679-.194-.873-.485zm12.517-7.084c-.291-.485-.097-1.067.389-1.358.485-.291 1.067-.097 1.358.388s.097 1.067-.388 1.358c-.194.097-.291.097-.485.097-.388 0-.679-.194-.874-.485zm12.518-7.083c-.291-.486-.097-1.068.388-1.359s1.067-.097 1.359.388c.291.485.097 1.068-.389 1.359-.194.097-.291.097-.485.097-.291 0-.679-.194-.873-.485zm12.614-7.084c-.291-.485-.097-1.067.388-1.358.486-.291 1.068-.097 1.359.388s.097 1.067-.388 1.358c-.194.097-.291.097-.485.097-.389 0-.777-.194-.874-.485zm12.518-7.083c-.291-.485-.097-1.068.388-1.359s1.067-.097 1.358.388c.291.486.097 1.068-.388 1.359-.194.097-.291.097-.485.097-.388 0-.679-.194-.873-.485zm12.517-7.084c-.291-.485-.097-1.067.388-1.358s1.067-.097 1.359.388c.291.485.097 1.067-.389 1.358-.097.097-.291.097-.485.097-.388 0-.679-.097-.873-.485zm12.614-7.083c-.291-.485-.097-1.068.388-1.359.486-.291 1.068-.097 1.359.388.291.486.097 1.068-.388 1.359-.194.097-.291.097-.485.097-.388.097-.777-.097-.874-.485zm12.518-6.987c-.291-.485-.097-1.067.388-1.358s1.067-.097 1.358.388.097 1.067-.388 1.358c-.194.097-.291.097-.485.097-.388 0-.679-.194-.873-.485zm12.517-7.083c-.291-.485-.097-1.068.388-1.359s1.068-.097 1.359.388c.291.486.097 1.068-.388 1.359-.097.097-.291.097-.486.097-.388 0-.679-.194-.873-.485zm12.518-7.084c-.292-.485-.097-1.067.388-1.358s1.067-.097 1.358.388.097 1.067-.388 1.358c-.194.098-.291.098-.485.098-.291 0-.679-.195-.873-.486zm12.614-7.083c-.291-.485-.097-1.068.388-1.359s1.067-.097 1.359.389c.291.485.097 1.067-.389 1.358-.194.097-.291.097-.485.097-.388 0-.679-.194-.873-.485zm12.517-7.084c-.291-.485-.097-1.067.388-1.358.486-.291 1.068-.097 1.359.388s.097 1.067-.388 1.359c-.097.097-.291.097-.485.097-.388 0-.68-.195-.874-.486zm12.518-7.083c-.291-.485-.097-1.067.388-1.359.485-.291 1.067-.097 1.358.389.291.485.097 1.067-.388 1.358-.194.097-.291.097-.485.097-.291 0-.679-.097-.873-.485zm12.614-7.084c-.291-.485-.097-1.067.388-1.358s1.068-.097 1.359.388.097 1.067-.388 1.359c-.195.097-.292.097-.486.097-.388 0-.776-.097-.873-.486zm12.517-6.986c-.291-.485-.097-1.067.389-1.358.485-.292 1.067-.098 1.358.388.291.485.097 1.067-.388 1.358-.097.097-.291.097-.485.097-.388 0-.68-.194-.874-.485zm12.518-7.083c-.291-.486-.097-1.068.388-1.359s1.067-.097 1.358.388c.292.485.097 1.068-.388 1.359-.194.097-.291.097-.485.097-.388 0-.679-.194-.873-.485z"/><path d="m111.35 320.563c-.291-.485-.097-1.068.388-1.359s1.067-.097 1.358.388c.291.486.097 1.068-.388 1.359-.194.097-.291.097-.485.097-.291 0-.679-.194-.873-.485zm12.614-7.278c-.291-.485-.097-1.067.388-1.358s1.068-.097 1.359.388.097 1.067-.388 1.358c-.195.097-.292.097-.486.097-.388 0-.679-.194-.873-.485zm12.517-7.277c-.291-.485-.097-1.068.389-1.359.485-.291 1.067-.097 1.358.388.291.486.097 1.068-.388 1.359-.194.097-.291.097-.485.097-.388 0-.679-.194-.874-.485zm12.518-7.278c-.291-.485-.097-1.067.388-1.358s1.067-.097 1.359.388c.291.485.097 1.067-.389 1.358-.194.097-.291.097-.485.097-.291 0-.679-.097-.873-.485zm12.614-7.18c-.291-.486-.097-1.068.388-1.359.486-.291 1.068-.097 1.359.388s.097 1.068-.388 1.359c-.194.097-.291.097-.485.097-.389 0-.68-.194-.874-.485zm12.518-7.278c-.291-.485-.097-1.067.388-1.358s1.067-.097 1.358.388.097 1.067-.388 1.358c-.194.097-.291.097-.485.097-.388 0-.679-.194-.873-.485zm12.517-7.277c-.291-.486-.097-1.068.388-1.359s1.067-.097 1.359.388c.291.485.097 1.068-.389 1.359-.194.097-.291.097-.485.097-.388 0-.679-.194-.873-.485zm12.614-7.278c-.291-.485-.097-1.067.388-1.358.486-.292 1.068-.097 1.359.388s.097 1.067-.388 1.358c-.194.097-.291.097-.485.097-.388 0-.777-.194-.874-.485zm12.518-7.278c-.291-.485-.097-1.067.388-1.358s1.067-.097 1.358.388.097 1.068-.388 1.359c-.194.097-.291.097-.485.097-.388 0-.679-.097-.873-.486zm12.517-7.18c-.291-.485-.097-1.067.388-1.358.485-.292 1.068-.098 1.359.388.291.485.097 1.067-.388 1.358-.194.097-.291.097-.486.097-.388 0-.679-.194-.873-.485zm12.518-7.278c-.292-.485-.097-1.067.388-1.358s1.067-.097 1.358.388.097 1.067-.388 1.359c-.194.097-.291.097-.485.097-.291 0-.679-.194-.873-.486zm12.614-7.277c-.291-.485-.097-1.067.388-1.359.485-.291 1.067-.097 1.359.389.291.485.097 1.067-.389 1.358-.194.097-.291.097-.485.097-.388 0-.679-.194-.873-.485zm12.517-7.278c-.291-.485-.097-1.067.388-1.358.486-.291 1.068-.097 1.359.388s.097 1.067-.388 1.358c-.194.098-.291.098-.485.098-.388 0-.68-.195-.874-.486zm12.518-7.277c-.291-.485-.097-1.068.388-1.359s1.067-.097 1.358.388c.291.486.097 1.068-.388 1.359-.194.097-.291.097-.485.097-.291 0-.679-.194-.873-.485zm12.614-7.278c-.291-.485-.097-1.067.388-1.358s1.068-.097 1.359.388.097 1.067-.388 1.358c-.195.097-.292.097-.486.097-.388 0-.679-.097-.873-.485zm12.517-7.18c-.291-.485-.097-1.068.389-1.359.485-.291 1.067-.097 1.358.388.291.486.097 1.068-.388 1.359-.194.097-.291.097-.485.097-.388 0-.68-.194-.874-.485zm12.518-7.278c-.291-.485-.097-1.067.388-1.358s1.067-.097 1.358.388c.292.485.097 1.067-.388 1.358-.194.097-.291.097-.485.097-.291 0-.679-.194-.873-.485z"/><path d="m111.449 338.126c-.291-.485-.097-1.067.291-1.358.485-.291 1.067-.097 1.358.388s.097 1.068-.291 1.359c-.194.097-.291.097-.485.097-.388 0-.776-.194-.873-.486zm12.517-7.471c-.291-.485-.097-1.067.388-1.359.485-.291 1.068-.097 1.359.292.291.485.097 1.067-.388 1.358-.195.097-.292.097-.486.097-.388.097-.679-.097-.873-.388zm12.517-7.375c-.291-.485-.097-1.067.292-1.358.485-.291 1.067-.097 1.358.291.291.485.097 1.067-.291 1.358-.194.097-.291.097-.485.097-.388 0-.679-.097-.874-.388zm12.518-7.471c-.291-.485-.097-1.068.291-1.359.485-.291 1.067-.097 1.358.388.291.486.097 1.068-.291 1.359-.194.097-.291.097-.485.097-.291 0-.679-.194-.873-.485zm12.614-7.472c-.291-.485-.097-1.067.388-1.358.486-.291 1.068-.097 1.359.291.291.485.097 1.067-.388 1.358-.194.097-.291.097-.485.097-.389.097-.68-.097-.874-.388zm12.518-7.472c-.291-.485-.097-1.067.291-1.358.485-.291 1.067-.097 1.358.388s.097 1.068-.291 1.359c-.194.097-.291.097-.485.097-.388 0-.679-.194-.873-.486zm12.517-7.374c-.291-.485-.097-1.067.291-1.359.485-.291 1.067-.097 1.359.389.291.485.097 1.067-.292 1.358-.194.097-.291.097-.485.097-.291-.097-.679-.194-.873-.485zm12.614-7.472c-.291-.485-.097-1.067.388-1.358.486-.291 1.068-.097 1.359.291.291.485.097 1.067-.388 1.358-.194.097-.291.097-.485.097-.388.097-.679-.097-.874-.388zm12.518-7.471c-.291-.485-.097-1.068.291-1.359.485-.291 1.067-.097 1.358.291.291.485.097 1.068-.388 1.359-.194.097-.291.097-.485.097-.291.097-.582-.097-.776-.388zm12.517-7.472c-.291-.485-.097-1.067.291-1.358.485-.292 1.068-.097 1.359.388s.097 1.067-.291 1.358c-.194.097-.291.097-.486.097-.388 0-.679-.194-.873-.485zm12.615-7.374c-.292-.486-.097-1.068.388-1.359s1.067-.097 1.358.388.097 1.068-.388 1.359c-.194.097-.291.097-.485.097-.388-.097-.776-.194-.873-.485zm12.517-7.472c-.291-.485-.097-1.067.291-1.359.485-.291 1.067-.097 1.358.292.292.485.098 1.067-.388 1.358-.194.097-.291.097-.485.097-.291.097-.582-.097-.776-.388zm12.517-7.472c-.291-.485-.097-1.067.291-1.358.486-.291 1.068-.097 1.359.291.291.485.097 1.067-.291 1.358-.194.097-.291.097-.485.097-.388.097-.68-.097-.874-.388zm12.518-7.471c-.291-.485-.097-1.068.388-1.359s1.067-.097 1.358.291c.291.485.097 1.068-.291 1.359-.194.097-.291.097-.485.097-.388.097-.776-.097-.97-.388zm12.614-7.375c-.291-.485-.097-1.067.291-1.358.485-.291 1.068-.097 1.359.291.291.485.097 1.067-.389 1.358-.194.097-.291.097-.485.097-.291 0-.582-.097-.776-.388zm12.517-7.472c-.291-.485-.097-1.067.292-1.358.485-.291 1.067-.097 1.358.388s.097 1.068-.291 1.359c-.194.097-.291.097-.485.097-.388 0-.68-.194-.874-.486zm12.518-7.471c-.291-.485-.097-1.067.388-1.359.485-.291 1.067-.097 1.358.389.292.485.097 1.067-.291 1.358-.194.097-.291.097-.485.097-.388 0-.776-.194-.97-.485z"/><path d="m123.964 348.121c-.291-.485-.097-1.068.292-1.359.485-.291 1.067-.097 1.358.291.291.486.097 1.068-.291 1.359-.194.097-.291.097-.485.097-.388 0-.68-.097-.874-.388zm12.518-7.666c-.291-.485-.097-1.067.291-1.358.485-.291 1.067-.097 1.358.291.292.485.097 1.067-.291 1.358-.194.097-.291.194-.485.194-.388 0-.679-.194-.873-.485zm12.614-7.666c-.291-.485-.097-1.067.291-1.358.485-.291 1.068-.097 1.359.291.291.485.097 1.067-.291 1.359-.194.097-.291.097-.486.097-.388.097-.776-.097-.873-.389zm12.518-7.568c-.292-.485-.097-1.068.291-1.359.485-.291 1.067-.097 1.358.291.291.486.097 1.068-.291 1.359-.194.097-.291.097-.485.097-.388 0-.679-.097-.873-.388zm12.517-7.666c-.291-.485-.097-1.067.291-1.358.485-.291 1.067-.097 1.358.291.292.485.098 1.067-.291 1.358-.194.097-.291.097-.485.097-.388.097-.679-.097-.873-.388zm12.517-7.666c-.291-.485-.097-1.067.291-1.358.486-.291 1.068-.097 1.359.291.291.485.097 1.067-.291 1.359-.194.097-.291.097-.485.097-.292.097-.68-.097-.874-.389zm12.615-7.665c-.291-.485-.097-1.068.291-1.359.485-.291 1.067-.097 1.358.291.291.486.097 1.068-.291 1.359-.194.097-.291.097-.485.097-.388.097-.679 0-.873-.388zm12.517-7.569c-.291-.485-.097-1.067.291-1.358.485-.291 1.068-.097 1.359.291.291.485.097 1.067-.291 1.358-.195.097-.292.194-.486.194-.388 0-.679-.194-.873-.485zm12.517-7.666c-.291-.485-.097-1.067.292-1.358.485-.291 1.067-.097 1.358.291.291.485.097 1.067-.291 1.359-.194.097-.291.097-.485.097-.388.097-.679-.097-.874-.389zm12.615-7.665c-.291-.485-.097-1.068.291-1.359.485-.291 1.067-.097 1.358.291.292.486.097 1.068-.291 1.359-.194.097-.291.097-.485.097-.388.097-.776-.097-.873-.388zm12.517-7.569c-.291-.485-.097-1.067.291-1.358.486-.291 1.068-.097 1.359.291.291.485.097 1.067-.291 1.358-.194.097-.291.097-.485.097-.389 0-.68-.097-.874-.388zm12.518-7.666c-.291-.485-.097-1.067.291-1.358.485-.291 1.067-.097 1.358.291.291.485.097 1.067-.291 1.359-.194.097-.291.097-.485.097-.388.097-.679-.097-.873-.389z"/><path d="m136.482 357.632c-.291-.485-.194-1.067.291-1.358s1.068-.097 1.359.291c.291.485.097 1.067-.291 1.358-.194.098-.292.195-.486.195-.388 0-.679-.195-.873-.486zm12.614-7.762c-.291-.485-.096-1.068.292-1.359.485-.291 1.067-.194 1.358.291s.194 1.068-.291 1.359c-.194.097-.291.194-.485.194-.388-.097-.776-.194-.874-.485zm12.518-7.86c-.291-.485-.194-1.067.291-1.359.485-.291 1.067-.194 1.358.292.292.485.195 1.067-.291 1.358-.194.097-.388.097-.485.097-.388.097-.679-.097-.873-.388zm12.517-7.86c-.291-.485-.194-1.067.291-1.358s1.068-.194 1.359.291.097 1.067-.291 1.358c-.194.097-.291.194-.485.194-.389 0-.68-.194-.874-.485zm12.518-7.763c-.291-.485-.097-1.067.291-1.358.485-.291 1.067-.097 1.358.291.291.485.194 1.067-.291 1.359-.194.097-.291.097-.485.097-.291 0-.679-.097-.873-.389zm12.614-7.859c-.291-.485-.194-1.068.291-1.359s1.068-.194 1.359.291c.291.486.194 1.068-.292 1.359-.194.097-.388.194-.485.194-.388 0-.679-.194-.873-.485zm12.517-7.86c-.291-.485-.194-1.067.292-1.358.485-.292 1.067-.195 1.358.291.291.485.097 1.067-.291 1.358-.194.097-.291.194-.485.194-.388 0-.68-.097-.874-.485zm12.518-7.763c-.291-.485-.097-1.067.291-1.358.485-.291 1.067-.097 1.358.291.292.485.194 1.067-.291 1.358-.194.097-.291.194-.485.194-.291 0-.679-.194-.873-.485zm12.614-7.859c-.291-.486-.097-1.068.291-1.359.485-.291 1.068-.194 1.359.291s.194 1.068-.291 1.359c-.194.097-.388.097-.486.097-.388.097-.679-.097-.873-.388zm12.518-7.763c-.292-.485-.194-1.068.291-1.359s1.067-.097 1.358.291c.291.486.097 1.068-.291 1.359-.194.097-.291.194-.485.194-.388-.097-.679-.194-.873-.485z"/><path d="m143.371 370.438c-.291-.485-.194-1.067.291-1.358.485-.292 1.067-.195 1.358.291.292.485.194 1.067-.291 1.358-.194.097-.291.194-.485.194-.388 0-.679-.194-.873-.485zm12.129-7.666c-.291-.485-.194-1.067.291-1.358s1.068-.194 1.359.291.194 1.067-.292 1.358c-.194.097-.388.194-.485.194-.388-.097-.679-.194-.873-.485zm12.129-7.762c-.291-.486-.194-1.068.291-1.359.486-.291 1.068-.194 1.359.291s.194 1.068-.291 1.359c-.194.097-.291.194-.485.194-.292-.097-.68-.194-.874-.485zm12.227-7.763c-.292-.485-.195-1.067.291-1.359.485-.291 1.067-.194 1.358.292.291.485.194 1.067-.291 1.358-.194.097-.388.194-.485.194-.388-.097-.679-.194-.873-.485zm12.129-7.763c-.291-.485-.194-1.067.291-1.358s1.067-.194 1.358.291.194 1.067-.291 1.358c-.194.097-.388.194-.485.194-.388-.097-.679-.194-.873-.485zm12.129-7.763c-.291-.485-.194-1.067.291-1.358s1.067-.194 1.359.291c.291.485.194 1.067-.292 1.359-.194.097-.388.194-.485.194-.388-.097-.679-.194-.873-.486zm12.129-7.762c-.291-.485-.194-1.068.291-1.359.486-.291 1.068-.194 1.359.291.291.486.194 1.068-.291 1.359-.194.097-.388.194-.485.194-.389 0-.68-.194-.874-.485zm12.13-7.763c-.292-.485-.195-1.067.291-1.358.485-.292 1.067-.194 1.358.291s.194 1.067-.291 1.358c-.194.097-.388.194-.485.194-.388 0-.679-.194-.873-.485zm12.129-7.763c-.291-.485-.194-1.067.291-1.358s1.067-.194 1.358.291.194 1.067-.291 1.358c-.194.097-.388.195-.485.195-.388 0-.679-.195-.873-.486z"/><path d="m167.726 371.701c-.291-.485-.194-1.067.291-1.358.485-.292 1.068-.195 1.359.291.291.485.194 1.067-.291 1.358-.194.097-.388.194-.486.194-.388 0-.776-.194-.873-.485zm12.13-7.957c-.292-.485-.195-1.067.291-1.358.485-.291 1.067-.194 1.358.291s.194 1.067-.291 1.358c-.194.097-.388.194-.582.194-.291 0-.582-.194-.776-.485zm12.129-7.859c-.291-.486-.194-1.068.291-1.359s1.067-.194 1.358.291.194 1.067-.291 1.359c-.194.097-.388.194-.485.194-.388-.097-.679-.291-.873-.485zm12.129-7.957c-.291-.485-.194-1.068.291-1.359s1.067-.194 1.359.291c.291.486.194 1.068-.292 1.359-.194.097-.291.194-.485.194-.388-.097-.679-.194-.873-.485zm12.129-7.957c-.291-.485-.194-1.067.291-1.359.485-.291 1.068-.194 1.359.292.291.485.194 1.067-.291 1.358-.194.097-.292.194-.486.194-.388-.097-.679-.194-.873-.485zm12.129-7.957c-.291-.485-.194-1.067.291-1.358.486-.291 1.068-.194 1.359.291s.194 1.067-.291 1.358c-.194.097-.388.194-.485.194-.388 0-.679-.194-.874-.485zm12.13-7.957c-.291-.485-.194-1.067.291-1.358s1.067-.194 1.358.291.194 1.067-.291 1.358c-.194.098-.388.195-.485.195-.388 0-.679-.195-.873-.486z"/><path d="m190.433 371.895c-.291-.486-.194-1.068.291-1.359.486-.291 1.068-.194 1.359.291s.194 1.068-.291 1.359c-.194.097-.388.194-.582.194-.292-.097-.583-.194-.777-.485zm12.227-7.957c-.291-.485-.195-1.068.291-1.359.485-.291 1.067-.194 1.358.291.291.486.194 1.068-.291 1.359-.194.097-.388.194-.485.194-.388-.097-.776-.194-.873-.485zm12.129-7.957c-.291-.485-.194-1.067.291-1.359.485-.291 1.067-.194 1.358.292.291.485.194 1.067-.291 1.358-.194.097-.291.194-.485.194-.388 0-.679-.194-.873-.485zm12.129-7.957c-.291-.485-.194-1.067.291-1.358s1.068-.194 1.359.291.194 1.067-.292 1.358c-.194.097-.291.194-.485.194-.388 0-.679-.194-.873-.485z"/></g><path d="m142.011 149.301s-3.688 13.196-2.911 14.749c.776 1.553 8.927 16.981 11.644 19.116 2.814 2.134 47.74 32.215 51.719 34.156 3.978 1.94 24.646 2.328 28.139 4.56 3.494 2.232 14.75 8.151 18.825 7.666 4.173-.582 46.576-23.482 34.447-34.738-2.135-1.941-21.93-14.361-29.207-17.855-35.514-17.077-109.939-35.029-112.656-27.654z" fill="#0b0e34" opacity=".2"/><path d="m235.068 132.61c.485-.582 3.202-3.105 3.493-2.814.68.582.389 3.299-.291 4.463-.582.971-3.202 3.785-3.299 3.494-.194-.68-.388-4.464.097-5.143z" fill="#ffbecd"/><path d="m148.224 136.299-10.965 5.337c-1.553.873.097 6.307 1.067 9.218l18.048-9.315c-2.231-2.038-5.045-3.688-8.15-5.24z" fill="#343758"/><path d="m201.494 175.111c-1.649.97-1.843 10.285-.776 12.905l8.345-5.046 18.825-17.563c.097-2.814 15.137-12.808 16.786-13.681z" fill="#343758"/><path d="m158.994 149.983c-.776-1.747-1.844-3.493-3.105-4.949-1.068-1.164-2.232-2.231-3.493-3.008-2.232-1.261-4.27-1.455-5.725-.582l-4.464 2.62 11.45 19.698 4.464-2.62c1.455-.873 2.328-2.62 2.328-5.143-.097-1.941-.582-3.978-1.455-6.016z" fill="#0b0e34"/><path d="m147.931 144.644c-4.464-2.62-8.054-.485-8.054 4.561 0 5.143 3.59 11.353 8.054 13.973 4.463 2.62 8.054.485 8.054-4.658 0-5.046-3.591-11.256-8.054-13.876z" fill="#343758"/><path d="m196.254 174.139-24.549-14.555-13.488-1.649s-.097 2.814-.291 4.851l42.792 25.229v-5.628z" fill="url(#a)"/><path d="m222.455 186.662c-.777-1.747-1.844-3.493-3.105-4.949-1.068-1.164-2.232-2.232-3.493-3.008-2.232-1.261-4.27-1.456-5.725-.582l-4.464 2.62 11.45 19.698 4.464-2.62c1.455-.874 2.328-2.62 2.328-5.143-.097-1.941-.582-4.076-1.455-6.016z" fill="#0b0e34"/><path d="m211.296 181.323c-4.464-2.62-8.054-.485-8.054 4.561 0 5.142 3.59 11.353 8.054 13.972 4.463 2.62 8.054.486 8.054-4.657 0-5.046-3.591-11.353-8.054-13.876z" fill="#343758"/><path d="m267.766 168.319c0-.291-.097-.485-.291-.679-.291-.291-.582-.485-.582-.582-.194-2.135-.582-3.784-.97-4.658-.486-1.261-1.262-2.717-2.135-4.172-.971-1.553-23.968-22.027-23.968-22.027-.291-.388-14.652-14.846-19.309-17.563l-33.671-19.4067c-6.307-3.6873-14.167-3.6873-20.474 0l-15.914 9.2187c-1.455.873-2.717 1.94-3.687 3.299 0 0-9.024 12.226-9.024 12.323-.097 1.455-.777 6.404-.777 6.404l-1.649 2.523c-.291.388-.485.97-.582 1.456-.194 2.328 0 7.762 0 11.256 0 1.358.291 2.814 1.261 3.687.582.485 2.329 1.455 2.329 1.455-.485-5.628 1.358-13.973 10.577-8.636.097.097.194.097.291.194 4.851 3.008 8.636 9.704 8.927 15.429l42.598 24.646c.291-5.725 4.366-7.859 9.315-5.045.097.097.194.097.291.194 4.852 3.008 10.383 8.345 10.48 20.765 8.636 3.59 19.31.97 28.431-3.493 9.606-4.658 16.689-10.577 18.242-15.235.097-.388.194-.776.194-1.261.097-2.135.097-9.024.097-10.092zm-49.972-43.374c2.232-1.649 3.59-2.911 4.269-3.59 4.27 3.687 12.809 11.935 14.555 14.361z" fill="#ff92ac"/><path d="m239.822 136.298c-.291-.389-14.652-14.847-19.309-17.564l-37.261-21.5411c-4.076-2.3288-9.122-2.3288-13.197 0l-19.601 11.2561c-.582.291-1.067.679-1.649 1.164 0 0 1.358-.194 2.231.388 6.502 3.882 29.014 18.243 34.156 21.251 4.464 2.523 7.86 4.269 9.704 9.218 2.232 5.725 5.434 10.771 7.665 16.496 6.696 8.733 14.361 16.107 24.647 23.482 12.614-1.164 36.873-14.361 36.582-22.124-2.62-4.366-23.968-22.026-23.968-22.026zm-22.026-11.353c2.232-1.65 3.59-2.911 4.269-3.591 4.27 3.688 12.809 11.936 14.555 14.361z" fill="#ffbecd"/><path d="m227.596 181.419c-5.725-1.165-87.234-48.517-90.824-50.749l-1.553 2.426c-.291.388-.485.97-.582 1.455-.194 2.329 0 8.248 0 11.838 0 1.359.582 2.62 1.553 3.494.582.485 2.037 1.164 2.037 1.164-.485-5.337 1.359-13.973 10.577-8.636.097.097.194.097.291.194 4.852 3.008 8.636 9.703 8.927 15.428 0 0-.097 2.814-.291 4.852l42.889 25.229v-5.628c.291-5.725 4.367-7.86 9.315-5.046.097.097.194.097.291.194 4.852 3.008 10.383 8.345 10.48 20.766 4.658 1.94 9.995 2.037 15.331 1.067 0-2.135-5.725-17.563-8.441-18.048z" fill="#f75276"/><path d="m237.689 135.132c-5.337-5.337-10.092-9.8-15.041-14.07-.097-.097-.194-.097-.291 0s-.194.194-.291.291c4.27 3.687 12.809 11.935 14.555 14.361l-18.824-10.868c-4.464 3.3-11.935 8.054-22.318 11.838-.097.098-.194.195-.097.292l10.091 18.436c.68 1.164 1.941 1.553 3.203 1.261 4.56-1.261 15.816-5.142 26.684-14.749 1.649-1.455 4.075-4.948 2.329-6.792z" fill="#101616"/><path d="m207.703 115.143c-.388-.194-.776-.485-1.164-.776l.582 4.366-9.8-5.628-16.108 9.316c-.776.485-.776 1.261 0 1.746l9.703 5.628c.777.485 2.135.485 2.911 0l16.108-9.315-1.746-.97z" fill="#0b0e34"/><path d="m200.623 156.578-.486.097s.971 3.59.68 5.337c-.291 1.65-2.038 14.846-2.329 17.272l-24.55-14.167v-13.002l3.008-9.801-.485-.194-3.008 9.704v13.584l25.132 14.458.291.194.097-.388c0-.194 2.135-15.816 2.426-17.563.194-1.844-.776-5.337-.776-5.531z" fill="#f75276"/><path d="m171.704 164.437v-13.585l3.008-9.8-.485-.194-3.008 9.703v13.002l-13.293-7.665c0 .194 0 .388.097.582zm-19.406-19.407v-5.531l3.008-9.703-.485-.194-3.009 9.703v5.24c.195.194.389.291.486.485z" fill="#f75276"/><path d="m267.768 168.707c0-.097 0-.292 0-.389 0-.291-.097-.485-.291-.679-.291-.291-.582-.485-.582-.582v-.097c-15.332 22.415-44.151 22.221-44.151 22.221s1.456.873 5.046.97c17.272.485 37.164-14.264 39.978-21.444z" fill="#ffbecd"/><g opacity=".5"><path d="m236.814 138.725c0-.873 1.068-1.164.679-1.843-.097-.194-1.455-1.165-1.649-1.068-11.644 3.688-23.967 11.256-31.342 18.34 1.65 4.075 3.396 1.261 5.143 1.843 0-.097 16.204-5.725 27.169-17.272z" fill="#d3d3d3" opacity=".5"/><path d="m232.351 136.98c-.873 3.396-8.636 7.277-14.361 7.083 0 0 2.329-3.008 6.404-5.142 4.949-2.523 7.957-1.941 7.957-1.941z" fill="#eaeaea" opacity=".5"/></g><path d="m222.357 121.159c-1.164 1.165-10.382 9.704-26.878 15.72-.097.097-.194.194-.097.291l10.091 18.436c.68 1.165 1.941 1.553 3.203 1.262 4.56-1.262 15.816-5.143 26.684-14.749 1.649-1.456 4.172-5.046 2.426-6.793-5.337-5.336-10.092-9.8-15.04-14.07-.195-.194-.292-.194-.389-.097z" fill="#5d607c" opacity=".7"/><path d="m200.91 156.87-57.832-33.186s4.852-7.18 7.375-9.412c.776-.679 1.164-.776 2.037-.291 7.763 4.464 33.671 19.407 37.164 21.444 1.068.583 1.844 1.456 2.523 2.523 2.523 4.658 8.151 16.787 8.733 18.922z" fill="#343758"/><path d="m199.552 152.697c-.582-1.359-1.165-2.717-1.844-3.979-1.261-2.62-2.523-5.239-3.784-7.859l-.97-1.941c-.389-.582-.68-1.262-1.165-1.941-.485-.582-1.067-1.067-1.65-1.552-.679-.388-1.261-.777-1.94-1.068l-7.569-4.366-.388-.194-28.528-16.496c-1.358-.776-7.86 8.927-8.83 10.286-.097.097 0 .291.097.388l31.924 18.436 25.811 14.749c.097 0 .194.097.194 0 .194-.097.291-.194.194-.388-.388-1.455-.97-2.717-1.552-4.075zm-24.259-10.965-31.73-18.145c.777-.971 6.987-10.48 8.248-9.801l28.237 16.302.388.194 7.569 4.366c.582.389 1.261.68 1.843 1.068.583.388 1.068.873 1.553 1.455.388.583.776 1.165 1.067 1.844l.971 1.941c1.261 2.62 2.522 5.239 3.784 7.859.582 1.359 1.164 2.62 1.747 3.979.485 1.067.873 2.135 1.261 3.299z" fill="#0b0e34"/><path d="m239.724 138.918s-1.455 2.329-4.949 5.531c8.83 8.636 16.011 16.399 18.631 21.638 1.843-1.455 3.59-3.202 4.949-5.045-3.494-6.599-16.981-20.96-18.631-22.124z" fill="#ffd4de"/><g fill="#0b0e34"><path d="m238.075 135.326c-.194-.291-.485-.582-.776-.776-.485-.485-.97-.97-1.456-1.456-3.881-3.881-7.18-6.889-9.509-9.024-1.164-1.067-2.135-1.843-2.814-2.426-.291-.291-.582-.485-.776-.679-.097-.097-.291-.097-.388-.097s-.097.097-.097.097-1.262 1.262-3.785 3.202c-2.523 1.941-6.21 4.561-11.062 7.084-2.425 1.261-5.045 2.523-7.956 3.687-.68.291-1.456.582-2.232.873-.388.097-.776.291-1.164.389l-.583.194-.097.097s-.097 0-.194.097c-.194.097-.194.388-.194.582.776 1.455 1.553 2.911 2.426 4.463 1.65 3.008 3.299 6.017 5.046 9.219.873 1.552 1.746 3.105 2.62 4.754.388.874 1.358 1.456 2.328 1.553.486 0 .971 0 1.456-.194.388-.097.873-.291 1.261-.388 6.987-2.135 13.391-5.628 19.019-9.51.679-.485 1.359-.97 2.038-1.455s1.261-1.068 1.94-1.553c1.262-1.067 2.523-2.037 3.494-3.299.485-.582.873-1.261 1.261-1.941.291-.679.582-1.455.485-2.231.097-.486-.097-.874-.291-1.262zm-1.649 5.143c-.874 1.261-2.232 2.135-3.494 3.299-.679.485-1.261.97-1.94 1.553-.68.485-1.359.97-2.038 1.455-5.531 3.882-12.032 7.278-18.922 9.412-.388.098-.873.292-1.261.389s-.873.194-1.261.097c-.874-.097-1.65-.583-1.941-1.359-.873-1.552-1.747-3.202-2.523-4.754-1.747-3.106-3.396-6.211-4.949-9.219-.776-1.455-1.552-2.911-2.329-4.366l.195-.097.582-.194c.388-.097.776-.291 1.164-.388.776-.292 1.456-.583 2.232-.874 2.911-1.164 5.531-2.523 7.957-3.784 4.851-2.523 8.539-5.143 11.062-7.084 2.522-1.94 3.784-3.202 3.784-3.202.194.097.388.388.776.583.679.582 1.553 1.358 2.814 2.425 2.329 2.135 5.725 5.143 9.509 9.025.486.485.971.97 1.456 1.455.291.291.485.485.679.776s.291.583.291.971c-.097 1.261-.873 2.717-1.843 3.881z"/><path d="m237.687 135.135c-.291-.291-.485-.485-.776-.777 1.65 7.763-29.207 22.997-31.536 21.154.679 1.164 1.941 1.552 3.202 1.261 4.561-1.261 15.817-5.143 26.684-14.749 1.747-1.552 4.173-5.046 2.426-6.889z"/><path d="m180.923 130.477-2.717-1.456-4.173 12.227 2.717 1.552z"/><path d="m159.477 118.152-1.164-.679-4.172 12.323 1.164.679z"/><path d="m197.128 147.942s0-.097-.097-.097c-.194-.388-.388-.776-.582-1.164l-2.135 6.307 1.165.679 1.844-5.337c0-.097-.098-.194-.195-.388z"/></g><path d="m263.206 177.341c-5.045 5.337-12.808 9.606-19.989 12.615-.097.097-.194.194-.194.291v5.337c0 .194.195.388.389.291 3.105-.68 17.66-8.83 20.183-12.615.097-.194.194-.388.194-.679v-5.143c0-.194-.389-.291-.583-.097z" fill="#595959"/><path d="m243.412 194.808c-.194 0-.389-.097-.389-.291v1.165c0 .194.195.388.389.291 3.105-.68 17.66-8.83 20.183-12.615.097-.194.194-.388.194-.679v-1.164c0 .194-.097.485-.194.679-2.62 3.687-17.078 11.935-20.183 12.614z" fill="#ffbecd"/><path d="m195.574 157.644 2.426.097c1.164.097 2.329-.194 3.299-.679-.485-1.165-.873-2.329-1.455-3.494l-3.008 1.359z" fill="#0b0e34"/><path d="m197.028 154.054c-.679 0-5.919 1.649-5.822 2.231.097 1.165 1.941 2.717 3.105 2.912 1.068.194 5.531-1.165 5.531-1.65 0-.679-1.455-3.493-2.814-3.493z" fill="#ffbecd"/><path d="m179.272 154.154-1.261-.777c-.485-.291-.777-.873-.777-1.261v-1.65c0-.485.389-.582.777-.388l1.261.776c.485.291.776.874.776 1.262v1.649c0 .486-.388.68-.776.389z" fill="#f75276"/><path d="m180.243 153.473-3.396-1.941c-.388-.194-.679-.679-.679-.97 0-.388.291-.485.679-.291l3.396 1.941c.388.194.68.679.68.97 0 .388-.292.485-.68.291z" fill="#e50031"/><path d="m157.344 141.537-1.261-.776c-.485-.291-.776-.873-.776-1.261v-1.65c0-.485.388-.582.776-.388l1.261.776c.485.291.777.873.777 1.262v1.649c0 .485-.389.582-.777.388z" fill="#f75276"/><path d="m158.314 140.857-3.397-1.941c-.388-.194-.679-.679-.679-.97 0-.388.291-.485.679-.291l3.397 1.94c.388.194.679.68.679.971 0 .388-.291.485-.679.291z" fill="#e50031"/><path d="m137.741 124.168c-1.165-.582-3.299 7.86-2.911 9.898l2.037-3.396c1.456-4.464.874-6.502.874-6.502z" fill="#a00000"/><path d="m181.213 123.102 18.339-10.577c.776-.485 2.135-.485 2.911 0l9.703 5.628c.195.097.389.291.486.485.291-.388.097-.873-.486-1.261l-9.703-5.628c-.776-.486-2.135-.486-2.911 0l-18.339 10.576c-.583.291-.777.777-.486 1.262.098-.194.195-.291.486-.485z" fill="#ff92ac"/><path d="m212.167 119.123-18.34 10.577c-.776.485-2.134.485-2.911 0l-9.703-5.628c-.776-.485-.776-1.261 0-1.747l18.339-10.576c.777-.486 2.135-.486 2.912 0l9.703 5.628c.873.485.873 1.261 0 1.746z" fill="#5d607c" opacity=".7"/><path d="m211.294 185.494c-2.426-1.455-4.464-.291-4.464 2.523s1.941 6.21 4.464 7.666c2.425 1.455 4.463.291 4.463-2.523s-1.941-6.307-4.463-7.666z" fill="#0b0e34"/><path d="m211.78 186.173c-1.941-1.164-3.59-.291-3.59 1.941-.097 2.232 1.455 5.046 3.396 6.21 1.941 1.165 3.59.291 3.59-1.94.097-2.232-1.455-5.046-3.396-6.211z" fill="#fff"/><path d="m147.737 148.913c-2.426-1.455-4.464-.291-4.464 2.523s1.941 6.21 4.464 7.666c2.426 1.455 4.464.291 4.464-2.523s-1.941-6.307-4.464-7.666z" fill="#0b0e34"/><path d="m148.223 149.594c-1.94-1.164-3.59-.291-3.59 1.941-.097 2.232 1.456 5.046 3.396 6.21 1.941 1.164 3.591.291 3.591-1.941.097-2.231-1.456-5.045-3.397-6.21z" fill="#fff"/><path d="m262.53 169.29c1.165-1.262 2.232-2.523 3.202-3.979.874-1.261.388-2.911-.291-4.463-1.164 1.649-2.426 3.105-3.687 4.463z" fill="#e1feff"/><path d="m227.112 182.002c-.292 0-.583.097-.68.097-.582 0-1.455.097-2.328 0 .388 1.164 1.067 2.232 1.552 2.717.194.194.388.194.679.291.097 0 .194 0 .194.097.874.194 2.038.097 2.717.097.097 0 .388 0 .583-.097-.971-1.164-1.844-2.329-2.717-3.202z" fill="#f7a041"/><path d="m241.084 182.487c-6.113 2.038-10.867 2.717-11.838 2.717-.97 0-2.814.291-3.59-.485-.485-.388-1.067-1.553-1.552-2.717h2.328c.971 0 5.337-.582 11.062-2.426z" fill="#e1feff"/><path d="m86.314 210.722-39.1047 13.584c-2.4259 2.426-1.5525 6.502 1.2615 8.733l59.6762 50.555c3.105 2.62 7.568 2.911 10.867.582l34.156-21.832c3.397-2.426 1.165-5.046-3.396-7.472z" fill="#0b0e34" opacity=".2"/><path d="m83.597 204.994-36.3877 16.496c-2.4259 2.426-1.5525 6.501 1.2615 8.733l56.8622 47.644c3.105 2.62 7.568 2.814 10.867.485l31.051-19.989c3.396-2.426 3.105-8.054 1.456-10.189z" fill="#9364ed"/><path d="m79.4257 202.958-31.245 17.66c-1.9407 1.164-2.2317 4.075-.5822 5.531l57.6385 48.226c3.105 2.62 7.471 2.814 10.77.485l31.925-20.474c2.522-1.747 2.425-5.434-.097-7.084l-60.4526-44.15c-2.4258-1.553-5.4338-1.553-7.9567-.194z" fill="#d1c0ff"/><path d="m48.8594 222.268 7.5686-4.366c.2911-.194.5822-.194.8733-.194l2.62.485c.9703.194 1.9406 0 2.7169-.485l11.0619-6.404c.4852-.292.6792-.971.4852-1.456l-.3882-.873c-.1941-.485 0-1.165.4852-1.456l6.1131-3.59c1.7467-.97 3.7843-.97 5.4339.097l60.2577 44.83c1.456.97 1.456 3.202 0 4.269l-33.185 20.377c-1.65 1.068-3.688.971-5.24-.291l-58.9967-48.129c-.9704-.776-.7763-2.231.1941-2.814z" fill="#ece4f9"/><path d="m90.487 224.791-14.5551 7.957c-2.911 1.552-7.2775.97-9.6063-1.262-2.3288-2.231-1.8437-5.239.9703-6.695l14.07-7.472c2.7169-1.455 6.9864-1.067 9.5092.971 2.62 2.038 2.4259 4.949-.3881 6.501z" fill="#d1c0ff"/><path d="m90.5859 223.625-14.5551 7.957c-2.911 1.552-7.2775.97-9.6063-1.262-.7763-.776-1.2615-1.746-1.3585-2.814l-.6793-5.142 17.078-6.308c2.717-1.455 10.7708-1.164 10.7708-1.164l.4851 3.978c.1941 1.359-.097 2.814-1.0673 3.882-.2911.291-.5822.582-1.0674.873z" fill="#fff"/><path d="m90.0026 218.483-14.555 7.957c-2.911 1.553-7.2776.971-9.6064-1.261s-1.8436-5.24.9703-6.696l14.07-7.471c2.717-1.456 6.9864-1.068 9.5093.97 2.6199 1.941 2.5228 4.949-.3882 6.501z" fill="#7c47e1"/><path d="m88.5468 212.756c1.6496 1.359 1.5526 3.3-.291 4.27-1.8437.97-4.7546.679-6.4042-.679-1.6496-1.359-1.4556-3.299.388-4.27 1.8437-.97 4.6576-.679 6.3072.679z" fill="#fff"/><path d="m87.0919 213.342c.9703.776.8733 1.844-.1941 2.426-1.0673.582-2.6198.388-3.5902-.388-.8733-.776-.7763-1.844.1941-2.426 1.0673-.485 2.6198-.291 3.5902.388z" fill="#00cc76"/><path d="m129.885 163.076c-2.62 10.867-21.154 15.816-41.5307 11.061-20.3772-4.851-34.7382-17.563-32.2153-28.527.8733-3.882 3.8814-6.987 8.1509-9.219l-4.6576-3.687.8732-.776 5.7251 3.59c7.8597-3.202 19.3097-3.784 31.3419-.97 20.4745 4.851 34.9325 17.563 32.3125 28.528z" fill="#0b0e34" opacity=".2"/><path d="m28.1914 74.583s0 4.1725.1941 5.3369 1.9407 5.3368 5.3369 7.8597c1.2614.9704 2.4258.2911 2.8139-1.4555z" fill="#f75276"/><path d="m59.3379 132.219v-52.9807h1.5526v52.9807c0 .679-1.3585 1.067-1.5526 0z" fill="#e50031"/><g fill="#ffa52f"><path d="m36.5348 86.3223s-.3881 3.3962 2.5229 5.4339 13.2936 5.0457 17.0779 5.1428c2.0377.097 4.0755-1.3585 4.0755-3.5903z"/><path d="m60.5999 61.6768-32.4094 12.9055s-.8733 6.0161 8.2479 11.7411z"/><path d="m83.209 90.2031s.3881 2.2318.9703 2.6199 6.4043-2.4258 8.5391-6.9864c1.4555-3.2022.2911-8.7331.2911-8.7331z"/></g><path d="m60.5996 61.6768-.2911 31.633s-13.0996-.3881-23.7733-7.0835z" fill="#f75276"/><path d="m60.2109 93.3082s.097 3.3962 3.4932 3.6873c3.7844.3881 15.8166-1.5525 17.9513-2.911 1.6496-1.0674 1.4555-3.8814 1.4555-3.8814z" fill="#f75276"/><path d="m60.5997 61.6768-.2911 31.633s12.8085 1.2615 22.9971-3.1051z" fill="#ffa52f"/><path d="m93.009 77.1051s2.4257 8.0539-9.8006 13.0996l-22.6088-28.5279z" fill="#f75276"/><path d="m60.6012 61.6768-32.4094 12.9055s-.1941-6.3072 7.8597-10.1886z" fill="#f75276"/><path d="m36.0508 64.3933s8.9271-5.3369 24.9377-4.1724l-.3881 1.4555z" fill="#ffa52f"/><path d="m78.1621 63.909-17.6601-2.2318.3881-1.4555c.097 0 8.4419.3881 17.272 3.6873z" fill="#f75276"/><path d="m93.0084 77.1051c-.6793-3.5902-4.8518-9.5093-14.8463-13.1966l-17.6601-2.2317z" fill="#ffa52f"/><path d="m28.1914 74.583c.097 1.6496.6792 3.2992 1.4555 4.8517.7763 1.4555 1.8436 2.814 3.008 3.9784 2.4259 2.3288 5.3369 4.0754 8.442 5.3369 6.2102 2.6199 12.9055 3.7843 19.6009 4.3665 6.6953.5822 13.5847.194 19.8919-1.9407 3.2021-1.0674 6.2102-2.717 8.636-5.0458 1.1645-1.1644 2.2318-2.5228 2.9111-4.0754.6792-1.5525.9703-3.2991.6792-4.9487.2911 1.6496.097 3.3962-.5822 4.9487-.6793 1.5526-1.6496 3.0081-2.911 4.1725-2.4259 2.4258-5.531 4.0754-8.6361 5.2398-1.5525.5822-3.2021 1.0674-4.9487 1.3585-1.6496.3881-3.3962.5822-5.0458.7763-3.3961.2911-6.7923.2911-10.1885 0-3.3962-.2912-6.6953-.7763-10.0915-1.4556-3.2992-.6792-6.5983-1.6495-9.7034-3.008s-6.1131-3.1051-8.442-5.5309c-1.1644-1.2615-2.2318-2.62-3.008-4.0755-.4852-1.5525-1.0674-3.2021-1.0674-4.9487z" fill="#fff"/><path d="m60.6007 61.9668c-.2913 0-.4855-.1942-.4855-.4854v-.1942c0-.2913.1942-.4854.4855-.4854.2912 0 .4854.1941.4854.4854v.1942c-.0971.2912-.2913.4854-.4854.4854z" fill="#5bdb89"/></svg>