<svg fill="none" height="318" viewBox="0 0 307 318" width="307" xmlns="http://www.w3.org/2000/svg"><g fill="#9364ed"><path d="m3.48915 16.2215c-.18984-.4746.09492-1.0441.56951-1.2339.4746-.1899 1.04411.0949 1.23395.5695.18984.5695-.09492 1.139-.56951 1.3289-.09492 0-.18984 0-.28476 0-.37968 0-.75935-.1899-.94919-.6645zm13.57345-4.3662c-.1899-.4746.0949-1.0442.6644-1.234.4746-.1898 1.0441.0949 1.2339.5695.1899.4746-.0949 1.0441-.6644 1.234-.0949 0-.1898 0-.2847 0-.3797.0949-.7594-.1899-.9492-.5695zm13.6683-4.46124c-.1898-.4746.0949-1.04411.5695-1.23395s1.0441.09492 1.234.56951c.1898.4746-.095 1.04411-.5696 1.23395-.0949 0-.1898 0-.2847 0-.4746.09492-.8543-.09492-.9492-.56951zm13.5734-4.36628c-.1898-.47459.0949-1.0441.5695-1.23394s1.0441.09492 1.234.56951c.1898.4746-.0949 1.04411-.5695 1.23395-.095 0-.1899 0-.2848 0-.4746.09492-.8543-.18984-.9492-.56952z"/><path d="m3.48915 35.2053c-.18984-.4746.09492-1.0441.56951-1.2339.4746-.1899 1.04411.0949 1.23395.5695s-.09492 1.0441-.56951 1.2339c-.09492 0-.18984 0-.28476 0-.37968 0-.75935-.1898-.94919-.5695zm13.66835-4.651c-.1899-.4746.0949-1.0441.5695-1.234.4746-.1898 1.0441.095 1.2339.5696.1899.4746-.0949 1.0441-.5695 1.2339-.0949 0-.1898.0949-.2847.0949-.4746 0-.8543-.2847-.9492-.6644zm13.5734-4.5561c-.1898-.4746.0949-1.0441.5695-1.234.4746-.1898 1.0441.0949 1.234.5695.1898.4746-.095 1.0442-.5696 1.234-.0949 0-.1898 0-.2847 0-.4746.0949-.8543-.1898-.9492-.5695zm13.5734-4.5561c-.1898-.4746.0949-1.0441.5695-1.234.4746-.1898 1.0441.0949 1.234.5695.1898.4746-.0949 1.0441-.5695 1.234-.095 0-.1899 0-.2848 0-.4746 0-.8543-.1899-.9492-.5695zm13.5734-4.6511c-.1898-.4746.0949-1.0441.5695-1.2339s1.0442.0949 1.234.5695-.0949 1.0441-.5695 1.2339c-.0949 0-.1899 0-.2848 0-.4746.095-.8543-.1898-.9492-.5695zm13.5734-4.5561c-.1898-.4746.095-1.0441.5696-1.2339.4746-.1899 1.0441.0949 1.2339.5695s-.0949 1.0441-.5695 1.2339c-.0949 0-.1898.095-.2848.095-.4746 0-.7593-.2848-.9492-.6645zm13.5735-4.55609c-.1899-.47459.0949-1.04411.5695-1.23394.4746-.18984 1.0441.09492 1.2339.56951.1899.4746-.0949 1.04411-.5695 1.23395-.0949 0-.1898 0-.2848 0-.3796 0-.7593-.18984-.9491-.56952zm13.6683-4.65103c-.1898-.47459.0949-1.0441.5695-1.23394s1.0446.09492 1.2336.56951c.19.4746-.095 1.04411-.5692 1.23395-.0949 0-.1898 0-.2847 0-.4746.09492-.8543-.18984-.9492-.56952z"/><path d="m3.48915 54.0959c-.18984-.4746.09492-1.0441.56951-1.2339.4746-.1899 1.04411.0949 1.23395.5695s-.09492 1.0441-.56951 1.2339c-.09492 0-.18984.0949-.28476.0949-.37968 0-.75935-.2847-.94919-.6644zm13.66835-4.7459c-.1899-.4746.0949-1.0441.5695-1.234.4746-.1898 1.0441.0949 1.2339.5695.1899.4746-.0949 1.0441-.5695 1.234-.0949 0-.1898.0949-.2847.0949-.4746-.0949-.8543-.2848-.9492-.6644zm13.5734-4.746c-.1898-.4746.0949-1.0441.5695-1.2339.4746-.1899 1.0441.0949 1.234.5695.1898.4746-.095 1.0441-.5696 1.2339-.0949 0-.1898 0-.2847 0-.4746 0-.8543-.1898-.9492-.5695zm13.5734-4.8409c-.1898-.4745.0949-1.0441.5695-1.2339s1.0441.0949 1.234.5695c.1898.4746-.0949 1.0441-.5695 1.234-.095 0-.1899.0949-.2848.0949-.4746 0-.8543-.1899-.9492-.6645zm13.5734-4.7459c-.1898-.4746.095-1.0441.5695-1.234.4746-.1898 1.0442.095 1.234.5696s-.0949 1.0441-.5695 1.2339c-.0949 0-.1899.0949-.2848.0949-.4746 0-.8542-.2847-.9492-.6644zm13.5734-4.7459c-.1898-.4746.095-1.0442.5696-1.234s1.0441.0949 1.2339.5695-.0949 1.0441-.5695 1.234c-.0949 0-.1898.0949-.2848.0949-.3796 0-.7593-.2848-.9492-.6644zm13.5735-4.746c-.1899-.4746.0949-1.0441.5695-1.2339.4746-.1899 1.0441.0949 1.2339.5695.1899.4746-.0949 1.0441-.5695 1.2339-.0949 0-.1898.0949-.2847.0949-.3797 0-.7594-.2847-.9492-.6644zm13.6683-4.7459c-.1898-.4746.0949-1.0442.5695-1.234s1.0446.0949 1.2336.5695c.19.4746-.095 1.0441-.5692 1.234-.0949 0-.1898.0949-.2847.0949-.4746-.0949-.8543-.2848-.9492-.6644zm13.5731-4.746c-.19-.4746.095-1.0441.57-1.2339.474-.1899 1.044.0949 1.234.5695s-.095 1.0441-.57 1.2339c-.095 0-.19.0949-.284.0949-.475-.0949-.855-.2847-.95-.6644zm13.574-4.8409c-.19-.4746.095-1.0441.569-1.23391.475-.18984 1.044.09491 1.234.56951s-.095 1.0441-.569 1.234c-.095 0-.19 0-.285 0-.475.0949-.854-.095-.949-.5696zm13.573-4.74591c-.19-.4746.095-1.04411.57-1.23395.474-.18984 1.044.09492 1.234.56951.189.4746-.095 1.04411-.57 1.23395-.095 0-.19.09492-.285.09492-.474 0-.854-.28476-.949-.66443zm13.574-4.74595c-.19-.4746.094-1.044112.569-1.23395s1.044.094917 1.234.56951c.19.4746-.095 1.04411-.569 1.23395-.095 0-.19.09492-.285.09492-.38 0-.76-.28476-.949-.66443z"/><path d="m.073135 74.3142c-.189838-.4746.094919-1.0441.569514-1.2339.474591-.1899 1.044111.0949 1.233951.5695.18983.4746-.09492 1.0441-.56952 1.2339-.09492 0-.18984.095-.28475.095-.4746-.095-.854276-.2848-.949195-.6645zm13.193765-4.8408c-.1899-.4746.0949-1.0442.5695-1.234s1.0441.0949 1.2339.5695c.1899.4746-.0949 1.0441-.5695 1.234-.0949 0-.1898.0949-.2847.0949-.4746 0-.8543-.2848-.9492-.6644zm13.1937-4.746c-.1898-.4746.0949-1.0441.5695-1.2339.4746-.1899 1.0441.0949 1.234.5695.1898.4746-.0949 1.0441-.5695 1.2339-.095 0-.1899.0949-.3797.0949-.3797-.0949-.7594-.2847-.8543-.6644zm13.1938-4.8409c-.1899-.4746.0949-1.0441.5695-1.2339.4746-.1899 1.0441.0949 1.2339.5695.1899.4746-.0949 1.0441-.5695 1.2339-.0949 0-.1898.095-.2848.095-.4746 0-.8542-.2848-.9491-.6645zm13.1937-4.7459c-.1898-.4746.0949-1.0441.5695-1.234.4746-.1898 1.0441.095 1.234.5696.1898.4745-.095 1.0441-.5696 1.2339-.0949 0-.1898.0949-.2847.0949-.4746-.0949-.8543-.2847-.9492-.6644zm13.1937-4.8409c-.1898-.4746.0949-1.0441.5695-1.2339.4746-.1899 1.0442.0949 1.234.5695s-.0949 1.0441-.5695 1.2339c-.0949 0-.1899.0949-.2848.0949-.4746 0-.8543-.2847-.9492-.6644zm13.1938-4.7459c-.1899-.4746.0949-1.0441.5695-1.234.4746-.1898 1.0441.0949 1.2339.5695.1899.4746-.0949 1.0441-.5695 1.234-.0949 0-.1898.0949-.2847.0949-.4746-.0949-.7594-.2848-.9492-.6644zm13.1937-4.8409c-.1898-.4746.0949-1.0441.5695-1.234.4746-.1898 1.0441.095 1.234.5696.1898.4746-.095 1.0441-.5695 1.2339-.095 0-.1899.0949-.2848.0949-.4746 0-.7593-.2847-.9492-.6644zm13.1937-4.7459c-.19-.4746.095-1.0442.57-1.234.474-.1898 1.044.0949 1.234.5695.189.4746-.095 1.0441-.57 1.234-.095 0-.19.0949-.285.0949-.379-.0949-.759-.2848-.949-.6644zm13.194-4.8409c-.19-.4746.095-1.0441.569-1.234.475-.1898 1.044.095 1.234.5695.19.4746-.095 1.0442-.569 1.234-.095 0-.19.0949-.285.0949-.38 0-.759-.2847-.949-.6644zm13.194-4.746c-.19-.4746.094-1.0441.569-1.2339.475-.1899 1.044.0949 1.234.5695s-.095 1.0441-.57 1.2339c-.094 0-.189.095-.284.095-.38-.095-.76-.2848-.949-.6645zm13.193-4.8408c-.19-.4746.095-1.0441.57-1.234.474-.1898 1.044.0949 1.234.5695s-.095 1.0441-.57 1.234c-.095 0-.19.0949-.285.0949-.379 0-.759-.2848-.949-.6644zm13.289-4.746c-.19-.4746.095-1.0441.569-1.2339.475-.1899 1.045.0949 1.234.5695.19.4746-.095 1.0441-.569 1.2339-.095 0-.19.0949-.38.0949-.379-.0949-.759-.2847-.854-.6644zm13.194-4.8409c-.19-.4746.095-1.0441.569-1.2339.475-.1898 1.044.0949 1.234.5695s-.095 1.0441-.569 1.234c-.095 0-.19.0949-.285.0949-.475 0-.854-.2848-.949-.6645zm13.193-4.74591c-.189-.47459.095-1.0441.57-1.23394s1.044.09492 1.234.56951c.19.4746-.095 1.04411-.57 1.23395-.095 0-.189.09492-.284.09492-.475-.09492-.855-.28476-.95-.66444z"/><path d="m.073135 93.2033c-.189838-.4746.094919-1.0441.569514-1.234.474591-.1898 1.044111.095 1.233951.5696.18983.4746-.09492 1.0441-.56952 1.2339-.09492 0-.18984.0949-.28475.0949-.4746 0-.854276-.2847-.949195-.6644zm13.193765-4.9358c-.1899-.4746.0949-1.0441.5695-1.2339.4746-.1899 1.0441.0949 1.2339.5695.1899.4746-.0949 1.0441-.5695 1.2339-.0949 0-.1898.0949-.2847.0949-.4746-.0949-.8543-.2847-.9492-.6644zm13.1937-4.9358c-.1898-.4746.0949-1.0441.5695-1.2339.4746-.1899 1.0441.0949 1.234.5695.1898.4746-.0949 1.0441-.5695 1.2339-.095 0-.1899.095-.2848.095-.4746-.095-.8543-.2848-.9492-.6645zm13.1938-5.0307c-.1899-.4746.0949-1.0441.5695-1.2339.4746-.1899 1.0441.0949 1.2339.5695.1899.4746-.0949 1.0441-.5695 1.2339-.0949.095-.1898.095-.3797.095-.3797 0-.7593-.2848-.8542-.6645zm13.1937-4.9358c-.1898-.4746.0949-1.0441.5695-1.2339.4746-.1899 1.0441.0949 1.234.5695.1898.4746-.095 1.0441-.5696 1.2339-.0949 0-.1898.095-.3796.095-.3797 0-.7594-.2848-.8543-.6645zm13.1937-4.9358c-.1898-.4746.0949-1.0441.5695-1.2339s1.0442.0949 1.234.5695-.0949 1.0441-.5695 1.234c-.0949 0-.1899.0949-.2848.0949-.4746-.0949-.7593-.2848-.9492-.6645zm13.1938-4.9357c-.1899-.4746.0949-1.0442.5695-1.234s1.0441.0949 1.2339.5695c.1899.4746-.0949 1.0441-.5695 1.234-.0949 0-.1898.0949-.2847.0949-.4746-.0949-.7594-.2848-.9492-.6644zm13.1937-5.0308c-.1898-.4745.0949-1.0441.5695-1.2339s1.0441.0949 1.234.5695c.1898.4746-.095 1.0441-.5695 1.234-.095 0-.1899.0949-.3797.0949-.2848 0-.6644-.2848-.8543-.6645zm13.1937-4.9357c-.19-.4746.095-1.0441.57-1.234.474-.1898 1.044.0949 1.234.5695.189.4746-.095 1.0441-.57 1.234-.095 0-.19.0949-.38.0949-.284 0-.664-.2848-.854-.6644zm13.194-4.9358c-.19-.4746.095-1.0441.569-1.234.475-.1898 1.044.0949 1.234.5695s-.095 1.0442-.569 1.234c-.095 0-.19.0949-.285.0949-.38-.0949-.759-.2848-.949-.6644zm13.194-4.9358c-.19-.4746.094-1.0441.569-1.234.475-.1898 1.044.095 1.234.5696s-.095 1.0441-.57 1.2339c-.094.0949-.189.0949-.284.0949-.38-.0949-.76-.2847-.949-.6644zm13.193-5.0307c-.19-.4746.095-1.0441.57-1.234.474-.1898 1.044.095 1.234.5696.19.4745-.095 1.0441-.57 1.2339-.095 0-.19.0949-.285.0949-.379 0-.759-.2847-.949-.6644zm13.289-4.9358c-.19-.4746.095-1.0441.569-1.234.475-.1898 1.045.095 1.234.5696.19.4746-.095 1.0441-.569 1.2339-.095 0-.19.0949-.38.0949-.379-.0949-.759-.2847-.854-.6644zm13.194-4.9358c-.19-.4746.095-1.0441.569-1.2339.475-.1899 1.044.0949 1.234.5695s-.095 1.0441-.569 1.2339c-.095 0-.19.0949-.38.0949-.38-.0949-.759-.2847-.854-.6644zm13.193-5.0307c-.189-.4746.095-1.0441.57-1.2339.475-.1899 1.044.0949 1.234.5695s-.095 1.0441-.57 1.2339c-.095.0949-.189.0949-.284.0949-.475 0-.855-.2847-.95-.6644zm13.194-4.9358c-.19-.4746.095-1.0441.57-1.2339.474-.1899 1.044.0949 1.234.5695.189.4746-.095 1.0441-.57 1.2339-.095 0-.19.0949-.285.0949-.474 0-.854-.2847-.949-.6644zm13.194-4.9358c-.19-.4746.095-1.0441.569-1.2339.475-.1899 1.045.0949 1.234.5695.19.4746-.095 1.0441-.569 1.2339-.095 0-.19.095-.285.095-.475-.095-.854-.2848-.949-.6645z"/><path d="m.0731424 112.188c-.1898384-.475 0-1.044.5695136-1.234.474594-.19 1.044114.095 1.233944.569.18984.475 0 1.044-.56951 1.234-.09492 0-.18984.095-.379677.095-.379676-.095-.759352-.285-.8542706-.664zm13.1937576-5.126c-.1899-.475.0949-1.044.5695-1.234s1.0441.095 1.2339.57c.1899.474-.0949 1.044-.5695 1.234-.0949 0-.1898.094-.3796.094-.3797-.094-.7594-.284-.8543-.664zm13.1937-5.126c-.1898-.474.0949-1.044.5695-1.234.4746-.189 1.0441 0 1.234.57.1898.475-.0949 1.044-.5695 1.234-.0949.095-.1899.095-.3797.095-.3797-.095-.7594-.285-.8543-.665zm13.1938-5.1252c-.1899-.4746 0-1.0441.5695-1.234.4746-.1898 1.0441.0001 1.2339.5696.1899.4746-.0949 1.0441-.5695 1.2339-.0949 0-.1898.0949-.3797.0949-.3796-.0949-.7593-.2847-.8542-.6644zm13.1937-5.1256c-.1898-.4746 0-1.0441.5695-1.234.4746-.1898 1.0441.0949 1.234.5695.1898.4746-.095 1.0441-.5696 1.234-.0949 0-.1898.0949-.3796.0949-.3797-.0949-.6645-.2848-.8543-.6644zm13.1937-5.1257c-.1898-.4746.095-1.0441.5696-1.2339.4745-.1899 1.0441 0 1.2339.5695.1898.4746-.0949 1.0441-.5695 1.234-.0949.0949-.1899.0949-.3797.0949-.3797-.0949-.6644-.2848-.8543-.6645zm13.1938-5.1256c-.1899-.4746.0949-1.0441.5695-1.2339.4746-.1899 1.0441.0949 1.2339.5695.1899.4746-.0949 1.0441-.5695 1.2339-.0949 0-.1898.095-.3796.095-.3797-.095-.6645-.2848-.8543-.6645zm13.1937-5.1256c-.1898-.4746 0-1.0441.5695-1.234.4746-.1898 1.0441 0 1.234.5696.1898.4746 0 1.0441-.5695 1.2339-.095 0-.1899.0949-.3797.0949-.2848-.0949-.6644-.2847-.8543-.6644zm13.1937-5.1256c-.19-.4746.095-1.0441.57-1.234.474-.1898 1.044.0949 1.234.5695.189.4746-.095 1.0441-.57 1.234-.095 0-.19.0949-.38.0949-.284-.0949-.664-.2848-.854-.6644zm13.194-5.1257c-.19-.4746.095-1.0441.569-1.2339.475-.1898 1.044 0 1.234.5695.19.4746-.095 1.0441-.569 1.234-.095.0949-.19.0949-.38.0949-.285-.0949-.664-.2848-.854-.6645zm13.194-5.1256c-.19-.4746.094-1.0441.569-1.2339.475-.1899 1.044.0949 1.234.5695s-.095 1.0441-.57 1.2339c-.094 0-.189.095-.379.095-.285-.095-.665-.3797-.854-.6645zm13.288-5.2205c-.19-.4746 0-1.0441.57-1.234.474-.1898 1.044.0949 1.234.5695.189.4746 0 1.0441-.57 1.234-.095 0-.19.0949-.38.0949-.379 0-.759-.2848-.854-.6644zm13.194-5.1256c-.19-.4746.095-1.0442.569-1.234.475-.1898 1.045.0949 1.234.5695.19.4746-.095 1.0441-.569 1.234-.095 0-.19.0949-.38.0949-.379 0-.759-.2848-.854-.6644zm13.194-5.1257c-.19-.4746.095-1.0441.569-1.2339.475-.1899 1.044 0 1.234.5695.19.4746-.095 1.0441-.569 1.2339-.095 0-.19.095-.38.095-.38 0-.759-.2848-.854-.6645zm13.193-5.1256c-.189-.4746 0-1.0441.57-1.234.475-.1898 1.044.095 1.234.5696s0 1.0441-.57 1.2339c-.095 0-.189.0949-.379.0949-.38 0-.76-.2847-.855-.6644zm13.194-5.1256c-.19-.4746.095-1.0441.57-1.234.474-.1898 1.044 0 1.234.5695.189.4746-.095 1.0441-.57 1.234-.095 0-.19.0949-.38.0949-.379 0-.759-.2848-.854-.6644zm13.194-5.1257c-.19-.4746.095-1.0441.569-1.2339.475-.1898 1.045.0949 1.234.5695.19.4746-.095 1.0441-.569 1.234-.095 0-.19.0949-.38.0949-.38 0-.759-.2848-.854-.6645zm13.194-5.1256c-.19-.4746.095-1.0441.569-1.2339.475-.1899 1.044.0949 1.234.5695s0 1.0441-.569 1.2339c-.095 0-.19.095-.38.095-.38 0-.759-.2848-.854-.6645zm13.193-5.1256c-.189-.4746 0-1.0441.57-1.234.474-.1898 1.044.095 1.234.5696s0 1.0441-.57 1.2339c-.095 0-.19.0949-.379.0949-.38 0-.665-.2847-.855-.6644z"/><path d="m.0731424 131.17c-.1898384-.474 0-1.044.5695136-1.233.474594-.19 1.044114 0 1.233944.569.18984.475 0 1.044-.56951 1.234-.09492 0-.18984.095-.379677.095-.379676-.095-.759352-.285-.8542706-.665zm13.1937576-5.315c-.1899-.475 0-1.044.5695-1.234.4746-.19 1.0441.095 1.2339.57.1899.474 0 1.044-.5695 1.234-.0949 0-.1898.094-.3796.094-.3797-.094-.7594-.284-.8543-.664zm13.1937-5.315c-.1898-.475 0-1.045.5695-1.234.4746-.19 1.0441 0 1.234.569.1898.475 0 1.044-.4746 1.234-.0949 0-.1899.095-.3797.095-.4746-.095-.8543-.285-.9492-.664zm13.1938-5.316c-.1899-.475 0-1.044.5695-1.234.4746-.19 1.0441 0 1.2339.57.1899.474-.0949 1.044-.5695 1.234-.0949 0-.1898.095-.3797.095-.3796 0-.6644-.285-.8542-.665zm13.1937-5.315c-.1898-.475 0-1.044.5695-1.234.4746-.19 1.0441 0 1.234.474.1898.475 0 1.044-.5696 1.234-.0949 0-.1898.095-.3796.095-.3797.095-.6645-.19-.8543-.569zm13.1937-5.221c-.1898-.475 0-1.044.4746-1.234s1.0441 0 1.234.475c.1898.474 0 1.044-.4746 1.234-.0949 0-.1899.095-.3797.095-.3797 0-.6644-.19-.8543-.57zm13.1938-5.3154c-.1899-.4746 0-1.0441.4746-1.2339.4746-.1899 1.0441.0949 1.2339.5695.1899.4746 0 1.0441-.5695 1.2339-.0949 0-.1898.0949-.3797.0949-.1898-.0949-.5695-.2847-.7593-.6644zm13.1937-5.3154c-.1898-.4746 0-1.0442.5695-1.234.4746-.1898 1.0441 0 1.234.5695.1898.4746 0 1.0441-.5695 1.234-.095 0-.1899.0949-.3797.0949-.2848-.0949-.6644-.2848-.8543-.6644zm13.1937-5.3155c-.19-.4746 0-1.0441.57-1.234.474-.1898 1.044 0 1.234.4746.189.4746 0 1.0441-.475 1.234-.095 0-.19.0949-.38.0949-.379 0-.759-.1898-.949-.5695zm13.194-5.3155c-.19-.4746 0-1.0441.474-1.2339.475-.1899 1.045 0 1.234.4746.19.4746 0 1.0441-.474 1.2339-.095 0-.19.0949-.38.0949-.285.095-.664-.1898-.854-.5695zm13.194-5.3154c-.19-.4746.094-1.0442.569-1.234s1.044 0 1.234.4746 0 1.0441-.57 1.234c-.094 0-.189.0949-.379.0949-.285.0949-.665-.1899-.854-.5695zm13.288-5.2206c-.19-.4746 0-1.0441.57-1.2339.474-.1899 1.044 0 1.234.5695.189.4746 0 1.0441-.57 1.2339-.095 0-.19.0949-.38.0949-.379-.0949-.759-.2847-.854-.6644zm13.194-5.3155c-.19-.4745 0-1.0441.475-1.2339.474-.1898 1.044 0 1.233.5695.19.4746 0 1.0441-.474 1.234-.095.0949-.19.0949-.38.0949-.379-.0949-.759-.2848-.854-.6645zm13.194-5.3154c-.19-.4746 0-1.0441.569-1.234.475-.1898 1.044 0 1.234.4746s0 1.0441-.569 1.234c-.095 0-.19.0949-.38.0949-.38 0-.759-.1898-.854-.5695zm13.193-5.3155c-.189-.4746 0-1.0441.57-1.2339.475-.1899 1.044 0 1.234.4746s0 1.0441-.57 1.2339c-.095 0-.189.0949-.379.0949-.38 0-.76-.1898-.855-.5695zm13.194-5.3154c-.19-.4746 0-1.0442.57-1.234.474-.1898 1.044 0 1.234.5695.189.4746 0 1.0441-.57 1.234-.095.0949-.19.0949-.38.0949-.379 0-.759-.2848-.854-.6644zm13.194-5.2206c-.19-.4746 0-1.0441.475-1.2339.474-.1899 1.044 0 1.233.5695.19.4746 0 1.0441-.569 1.2339-.095.0949-.19.0949-.38.0949-.285-.0949-.664-.3796-.759-.6644zm13.194-5.3154c-.19-.4746 0-1.0442.569-1.234.475-.1898 1.044 0 1.234.5695.19.4746 0 1.0441-.475 1.234-.094 0-.189.0949-.379.0949-.475-.0949-.76-.2848-.949-.6644zm13.193-5.3155c-.189-.4746 0-1.0441.57-1.234.474-.1898 1.044 0 1.234.4746s0 1.0441-.57 1.234c-.095.0949-.19.0949-.379.0949-.38 0-.665-.1898-.855-.5695zm13.194-5.3155c-.19-.4746 0-1.0441.57-1.2339.474-.1899 1.044 0 1.234.4746.189.4746 0 1.0441-.57 1.2339-.095.0949-.19.0949-.38.0949-.379 0-.664-.1898-.854-.5695zm13.194-5.3154c-.19-.4746 0-1.0442.569-1.234.475-.1898 1.044 0 1.234.5695.19.4746 0 1.0441-.474 1.234-.095 0-.19.0949-.38.0949-.38 0-.759-.2848-.949-.6644z"/><path d="m.0727466 150.06c-.1898376-.475 0-1.044.4745954-1.234.474598-.19 1.044108 0 1.233948.474.18984.475 0 1.045-.4746 1.234-.09492 0-.18983.095-.379673.095-.379676.095-.759351-.189-.8542704-.569zm13.1937534-5.411c-.1899-.474 0-1.044.4746-1.233.4746-.19 1.0441 0 1.2339.474.1899.475 0 1.044-.4746 1.234-.0949 0-.1898.095-.3796.095-.3797 0-.7594-.19-.8543-.57zm13.1937-5.505c-.1898-.474 0-1.044.4746-1.234s1.0441 0 1.234.475c.1898.474 0 1.044-.4746 1.234-.0949.095-.2848.095-.3797.095-.3797 0-.6644-.19-.8543-.57zm13.1938-5.41c-.1899-.475 0-1.044.4746-1.234.4745-.19 1.0441 0 1.2339.474.1898.475 0 1.045-.5695 1.234-.0949.095-.1899.095-.3797.095-.2847 0-.5695-.19-.7593-.569zm13.1937-5.506c-.1898-.474 0-1.044.4746-1.233.4746-.19 1.0441 0 1.2339.474.1899.475 0 1.044-.4746 1.234-.0949 0-.1898.095-.3796.095-.3797 0-.6645-.19-.8543-.57zm13.1937-5.505c-.1898-.474 0-1.044.4746-1.234s1.0441 0 1.234.57c.1898.474 0 1.044-.4746 1.234-.0949 0-.2848.095-.3797.095-.3797 0-.6644-.285-.8543-.665zm13.1938-5.41c-.1899-.475 0-1.044.4746-1.234s1.0441 0 1.2339.474c.1899.475 0 1.045-.4746 1.234-.0949.095-.1898.095-.3797.095-.2847 0-.6644-.19-.8542-.569zm13.1937-5.506c-.1898-.474 0-1.044.4746-1.233.4746-.19 1.0441 0 1.234.474.1898.475 0 1.044-.4746 1.234-.095.095-.1899.095-.3797.095-.2848 0-.6644-.19-.8543-.57zm13.1941-5.41c-.19-.474 0-1.044.474-1.234.475-.19 1.044 0 1.234.475.19.474 0 1.044-.474 1.234-.095.095-.19.095-.38.095-.285 0-.665-.19-.854-.57zm13.193-5.505c-.189-.475 0-1.0443.475-1.2341.475-.1899 1.044 0 1.234.4741.19.475 0 1.045-.475 1.234-.095.095-.284.095-.379.095-.285 0-.665-.19-.855-.569zm13.289-5.5055c-.19-.4746 0-1.0441.475-1.2339.474-.1899 1.044 0 1.234.4746.189.4745 0 1.0441-.475 1.2339-.095 0-.19.0949-.38.0949-.379.0949-.759-.1898-.854-.5695zm13.194-5.4104c-.19-.4746 0-1.0441.474-1.2339.475-.1899 1.044 0 1.234.4746s0 1.0441-.474 1.2339c-.095 0-.19.0949-.38.0949-.38 0-.759-.1898-.854-.5695zm13.194-5.5053c-.19-.4746 0-1.0441.474-1.2339.475-.1899 1.044 0 1.234.4746s0 1.0441-.475 1.2339c-.094 0-.284.0949-.379.0949-.38 0-.76-.1898-.854-.5695zm13.193-5.4104c-.19-.4746 0-1.0441.475-1.2339.474-.1898 1.044 0 1.234.4746s0 1.0441-.475 1.2339c-.095 0-.285.095-.379.095-.38 0-.76-.1899-.855-.5696zm13.194-5.5053c-.19-.4746 0-1.0441.475-1.2339.474-.1898 1.044 0 1.234.4746.189.4746 0 1.0441-.475 1.2339-.095 0-.19.095-.38.095-.379 0-.759-.1899-.854-.5696zm13.194-5.4103c-.19-.4746 0-1.0442.569-1.234.475-.1898 1.044 0 1.234.4746s0 1.0441-.474 1.234c-.095 0-.19.0949-.38.0949-.475 0-.854-.2848-.949-.5695zm13.193-5.5053c-.189-.4746 0-1.0442.475-1.234s1.044 0 1.234.4746 0 1.0441-.475 1.2339c-.094.095-.284.095-.379.095-.38 0-.665-.1899-.855-.5695zm13.194-5.5053c-.19-.4746 0-1.0442.475-1.234.474-.1898 1.044 0 1.234.4746s0 1.0441-.475 1.2339c-.095 0-.19.095-.38.095-.379 0-.664-.1899-.854-.5695zm13.194-5.4104c-.19-.4746 0-1.0441.475-1.234.474-.1898 1.044 0 1.233.4746.19.4746 0 1.0441-.474 1.234-.095 0-.19.0949-.38.0949-.379 0-.664-.1899-.854-.5695zm13.194-5.5053c-.19-.4746 0-1.0441.474-1.234.475-.1898 1.044 0 1.234.4746s0 1.0441-.474 1.234c-.095 0-.285.0949-.38.0949-.38 0-.664-.1899-.854-.5695zm13.193-5.4104c-.189-.4746 0-1.0441.475-1.234.475-.1898 1.044 0 1.234.4746s0 1.0441-.475 1.234c-.095.0949-.284.0949-.379.0949-.285 0-.665-.2848-.855-.5695zm13.194-5.5053c-.19-.4746 0-1.0441.475-1.234.474-.1898 1.044 0 1.234.4746s0 1.0441-.57 1.234c-.095.0949-.19.0949-.379.0949-.19 0-.57-.1898-.76-.5695z"/><path d="m.0727466 169.044c-.1898376-.474 0-1.044.4745954-1.234.474598-.189 1.044108 0 1.233948.475s0 1.044-.4746 1.234c-.09492 0-.28475.095-.379672.095-.379676 0-.759352-.19-.8542714-.57zm13.1937534-5.6c-.1899-.474 0-1.044.4746-1.234s1.0441 0 1.2339.475c.1899.474 0 1.044-.4746 1.234-.0949.095-.2847.095-.3796.095-.3797 0-.6645-.19-.8543-.57zm13.1937-5.695c-.1898-.475 0-1.044.4746-1.234s1.0441 0 1.234.475c.1898.474 0 1.044-.4746 1.234-.0949.094-.2848.094-.3797.094-.3797.095-.6644-.189-.8543-.569zm13.1938-5.6c-.1899-.475 0-1.044.4746-1.234s1.0441 0 1.2339.474c.1898.475 0 1.045-.4746 1.234-.0949 0-.2847.095-.3797.095-.3796 0-.6644-.19-.8542-.569zm13.1937-5.6c-.1898-.475 0-1.045.4746-1.234.4746-.19 1.0441 0 1.2339.474.1899.475 0 1.044-.4746 1.234-.0949 0-.2847.095-.3796.095-.3797 0-.6645-.285-.8543-.569zm13.1937-5.696c-.1898-.474 0-1.044.4746-1.234.4746-.189 1.0442 0 1.234.475s0 1.044-.4746 1.234c-.0949.095-.2848.095-.3797.095-.2847 0-.6644-.19-.8543-.57zm13.1938-5.6c-.1899-.474 0-1.044.4746-1.234s1.0441 0 1.2339.475c.1899.474 0 1.044-.4746 1.234-.0949 0-.2847.095-.3796.095-.2848 0-.6645-.19-.8543-.57zm13.1937-5.6c-.1898-.475 0-1.044.4746-1.234s1.0441 0 1.234.475c.1898.474 0 1.044-.4746 1.234-.095 0-.2848.094-.3797.094-.2848 0-.6644-.284-.8543-.569zm13.1941-5.695c-.19-.475 0-1.044.474-1.234.475-.19 1.044 0 1.234.474.19.475 0 1.045-.474 1.234-.095.095-.285.095-.38.095-.285 0-.665-.19-.854-.569zm13.193-5.6c-.189-.475 0-1.045.475-1.234.475-.19 1.044 0 1.234.474.19.475 0 1.044-.475 1.234-.095 0-.284.095-.379.095-.285 0-.665-.19-.855-.569zm13.289-5.696c-.19-.474 0-1.044.475-1.234.474-.189 1.044 0 1.234.475.189.475 0 1.044-.475 1.234-.095.095-.285.095-.38.095-.379.095-.759-.19-.854-.57zm13.194-5.6c-.19-.474 0-1.044.474-1.234.475-.19 1.045 0 1.234.475.19.474 0 1.044-.474 1.234-.095.095-.285.095-.38.095-.38 0-.759-.19-.854-.57zm13.194-5.6c-.19-.475 0-1.044.474-1.234.475-.19 1.044 0 1.234.475.19.474 0 1.044-.475 1.234-.094.095-.284.095-.379.095-.38 0-.76-.19-.854-.57zm13.193-5.6951c-.19-.4746 0-1.0441.475-1.234.474-.1898 1.044 0 1.234.4746s0 1.0441-.475 1.234c-.095 0-.285.0949-.379.0949-.38 0-.76-.1899-.855-.5695zm13.194-5.6002c-.19-.4746 0-1.0442.475-1.234.474-.1898 1.044 0 1.234.4746.189.4746 0 1.0441-.475 1.2339-.095.095-.285.095-.38.095-.379 0-.759-.1899-.854-.5695zm13.194-5.6003c-.19-.4746 0-1.0441.474-1.2339.475-.1898 1.044 0 1.234.4746s0 1.0441-.474 1.2339c-.095 0-.285.0949-.38.0949-.38 0-.664-.2847-.854-.5695zm13.194-5.6951c-.19-.4746 0-1.0441.474-1.234.475-.1898 1.044 0 1.234.4746s0 1.0441-.475 1.234c-.094 0-.284.0949-.379.0949-.38 0-.665-.1898-.854-.5695zm13.193-5.6002c-.19-.4746 0-1.0441.475-1.234.474-.1898 1.044 0 1.234.4746s0 1.0441-.475 1.234c-.095 0-.285.0949-.379.0949-.38 0-.665-.1899-.855-.5695zm13.194-5.6002c-.19-.4746 0-1.0442.475-1.234.474-.1898 1.044 0 1.234.4746.189.4746 0 1.0441-.475 1.234-.095.0949-.285.0949-.38.0949-.379 0-.664-.2848-.854-.5695zm13.194-5.6952c-.19-.4746 0-1.0441.474-1.2339.475-.1899 1.044 0 1.234.4746s0 1.0441-.474 1.2339c-.095 0-.285.0949-.38.0949-.285 0-.664-.1898-.854-.5695zm13.193-5.6002c-.189-.4746 0-1.0441.475-1.234.475-.1898 1.044 0 1.234.4746s0 1.0442-.475 1.234c-.095.0949-.284.0949-.379.0949-.285 0-.665-.1898-.855-.5695zm13.194-5.6951c-.19-.4746 0-1.0442.475-1.234.474-.1898 1.044 0 1.234.4746s0 1.0441-.475 1.234c-.095.0949-.285.0949-.38.0949-.284 0-.664-.1899-.854-.5695zm13.194-5.6003c-.19-.4746 0-1.0441.475-1.2339.474-.1899 1.044 0 1.233.4746.19.4746 0 1.0441-.474 1.2339-.095.0949-.285.0949-.38.0949-.285 0-.664-.1898-.854-.5695z"/><path d="m.0727466 188.025c-.1898376-.474 0-1.044.4745954-1.233.474598-.19 1.044108 0 1.233948.474.18984.475 0 1.044-.4746 1.234-.09492 0-.28475.095-.379672.095-.379676 0-.664433-.19-.8542714-.57zm13.1937534-5.79c-.1899-.474 0-1.044.4746-1.234.4746-.189 1.0441 0 1.2339.475.1899.475 0 1.044-.4746 1.234-.0949.095-.2847.095-.3796.095-.3797 0-.6645-.285-.8543-.57zm13.1937-5.79c-.1898-.474 0-1.044.4746-1.234.4746-.189 1.0441 0 1.234.475.1898.475 0 1.044-.4746 1.234-.0949.095-.2848.095-.3797.095-.3797 0-.6644-.285-.8543-.57zm13.1938-5.885c-.1899-.474 0-1.044.4746-1.234.4746-.189 1.0441 0 1.2339.475s0 1.044-.4746 1.234c-.0949.095-.2847.095-.3797.095-.3796 0-.6644-.19-.8542-.57zm13.1937-5.79c-.1898-.474 0-1.044.4746-1.234.4746-.189 1.0441 0 1.2339.475.1899.475 0 1.044-.4746 1.234-.0949.095-.2847.095-.3796.095-.2848 0-.6645-.19-.8543-.57zm13.1937-5.79c-.1898-.474 0-1.044.4746-1.234s1.0442 0 1.234.475c.1898.474 0 1.044-.4746 1.234-.0949.095-.2848.095-.3797.095-.2847 0-.6644-.19-.8543-.57zm13.1938-5.79c-.1899-.474 0-1.044.4746-1.234s1.0441 0 1.2339.475c.1899.474 0 1.044-.4746 1.234-.0949.095-.2847.095-.3796.095-.2848 0-.6645-.19-.8543-.57zm13.1937-5.79c-.1898-.474 0-1.044.4746-1.234s1.0441 0 1.234.475c.1898.474 0 1.044-.4746 1.234-.095 0-.2848.095-.3797.095-.2848 0-.6644-.19-.8543-.57zm13.1941-5.79c-.19-.475 0-1.044.474-1.234.475-.19 1.044 0 1.234.475.19.474 0 1.044-.474 1.234-.095.095-.285.095-.38.095-.285 0-.665-.285-.854-.57zm13.288-5.79c-.19-.475 0-1.044.475-1.234s1.044 0 1.234.475c.19.474 0 1.044-.475 1.234-.095.095-.284.095-.379.095-.38 0-.76-.285-.855-.57zm13.194-5.885c-.19-.475 0-1.044.475-1.234.474-.19 1.044 0 1.234.475.189.474 0 1.044-.475 1.234-.095.095-.285.095-.38.095-.379 0-.759-.19-.854-.57zm13.194-5.79c-.19-.475 0-1.044.474-1.234.475-.19 1.045 0 1.234.475.19.474 0 1.044-.474 1.234-.095.094-.285.094-.38.094-.38 0-.759-.189-.854-.569zm13.194-5.79c-.19-.475 0-1.044.474-1.234.475-.19 1.044 0 1.234.475.19.474 0 1.044-.475 1.234-.094 0-.284.094-.379.094-.38 0-.76-.189-.854-.569zm13.193-5.79c-.19-.475 0-1.044.475-1.234.474-.19 1.044 0 1.234.475.19.474 0 1.044-.475 1.233-.095.095-.285.095-.379.095-.38 0-.76-.189-.855-.569zm13.194-5.79c-.19-.475 0-1.044.475-1.234.474-.19 1.044 0 1.234.474.189.475 0 1.045-.475 1.234-.095 0-.285.095-.38.095-.379 0-.664-.19-.854-.569zm13.194-5.79c-.19-.475 0-1.0444.474-1.2342.475-.1898 1.044 0 1.234.4742.19.475 0 1.045-.474 1.234-.095.095-.285.095-.38.095-.38 0-.664-.284-.854-.569zm13.194-5.7903c-.19-.4746 0-1.0441.474-1.234.475-.1898 1.044 0 1.234.4746s0 1.0442-.475 1.234c-.094.0949-.284.0949-.379.0949-.38 0-.665-.2847-.854-.5695zm13.193-5.885c-.19-.4746 0-1.0441.475-1.2339.474-.1899 1.044 0 1.234.4746s0 1.0441-.475 1.2339c-.095.0949-.285.0949-.379.0949-.38 0-.665-.1898-.855-.5695zm13.194-5.79c-.19-.4746 0-1.0442.475-1.234.474-.1898 1.044 0 1.234.4746.189.4746 0 1.0441-.475 1.234-.095.0949-.285.0949-.38.0949-.379 0-.664-.1899-.854-.5695zm13.194-5.7901c-.19-.4746 0-1.0441.474-1.2339.475-.1899 1.044 0 1.234.4745.19.4746 0 1.0442-.474 1.234-.095.0949-.285.0949-.38.0949-.285 0-.664-.1898-.854-.5695zm13.193-5.7901c-.189-.4746 0-1.0441.475-1.2339s1.044 0 1.234.4746 0 1.0441-.475 1.2339c-.095.095-.284.095-.379.095-.285 0-.665-.1899-.855-.5696zm13.194-5.79c-.19-.4746 0-1.0441.475-1.234.474-.1898 1.044 0 1.234.4746s0 1.0441-.475 1.234c-.095.0949-.285.0949-.38.0949-.284 0-.664-.1898-.854-.5695zm13.194-5.7901c-.19-.4746 0-1.0441.475-1.2339.474-.1899 1.044 0 1.233.4746.19.4746 0 1.0441-.474 1.2339-.095.0949-.285.0949-.38.0949-.285 0-.664-.2847-.854-.5695z"/><path d="m9.56493 202.643c-.18983-.475 0-1.044.47457-1.234.4746-.19 1.0441 0 1.234.475.1898.474 0 1.044-.4746 1.233-.0949.095-.2848.095-.3797.095-.2848 0-.66443-.189-.85427-.569zm12.90897-5.79c-.1898-.475 0-1.044.4746-1.234s1.0441 0 1.234.474c.1898.475 0 1.045-.4746 1.234-.095.095-.2848.095-.3797.095-.3797 0-.7594-.19-.8543-.569zm12.8141-5.79c-.1899-.475 0-1.044.4746-1.234s1.0441 0 1.2339.474c.1899.475 0 1.045-.4746 1.234-.0949.095-.2847.095-.3796.095-.3797 0-.7594-.19-.8543-.569zm12.814-5.79c-.1898-.475 0-1.044.4746-1.234s1.0441 0 1.234.474c.1898.475 0 1.044-.4746 1.234-.0949.095-.2848.095-.3797.095-.3797 0-.6644-.285-.8543-.569zm12.8141-5.79c-.1898-.475 0-1.044.4746-1.234s1.0441 0 1.2339.474c.1899.475 0 1.044-.4745 1.234-.095.095-.2848.095-.3797.095-.3797-.095-.6645-.285-.8543-.569zm12.8141-5.885c-.1899-.475 0-1.044.4746-1.234s1.0441 0 1.2339.474c.1898.475 0 1.044-.4746 1.234-.0949.095-.2847.095-.3797.095-.2847 0-.6644-.19-.8542-.569zm12.909-5.79c-.1899-.475 0-1.045.4745-1.234.4746-.19 1.0442 0 1.234.474.1898.475 0 1.044-.4746 1.234-.0949.095-.2848.095-.3797.095-.3797 0-.7593-.19-.8542-.569zm12.814-5.79c-.1898-.475 0-1.045.4746-1.234.4742-.19 1.0442 0 1.2342.474.19.475 0 1.044-.475 1.234-.095.095-.285.095-.38.095-.3792 0-.7589-.19-.8538-.569zm12.8138-5.791c-.19-.474 0-1.044.475-1.233.474-.19 1.044 0 1.234.474.19.475 0 1.044-.475 1.234-.095.095-.285.095-.379.095-.38 0-.665-.19-.855-.57zm12.814-5.79c-.189-.474 0-1.044.475-1.234.475-.189 1.044 0 1.234.475s0 1.044-.475 1.234c-.095.095-.284.095-.379.095-.285 0-.665-.285-.855-.57zm12.814-5.885c-.189-.474 0-1.044.475-1.234.475-.189 1.044 0 1.234.475s0 1.044-.475 1.234c-.095.095-.284.095-.379.095-.285 0-.665-.19-.855-.57zm12.909-5.79c-.189-.474 0-1.044.475-1.234.475-.189 1.044 0 1.234.475s0 1.044-.475 1.234c-.095.095-.284.095-.379.095-.38 0-.76-.19-.855-.57zm12.814-5.79c-.189-.474 0-1.044.475-1.234.475-.189 1.044 0 1.234.475s0 1.044-.475 1.234c-.095.095-.284.095-.379.095-.38 0-.665-.19-.855-.57zm12.815-5.79c-.19-.474 0-1.044.474-1.234.475-.19 1.044 0 1.234.475s0 1.044-.475 1.234c-.094.095-.284.095-.379.095-.38 0-.665-.19-.854-.57zm12.814-5.79c-.19-.474 0-1.044.474-1.234.475-.19 1.044 0 1.234.475.19.474 0 1.044-.474 1.234-.095.095-.285.095-.38.095-.285 0-.665-.19-.854-.57zm12.909-5.79c-.19-.474 0-1.044.474-1.234.475-.19 1.044 0 1.234.475.19.474 0 1.044-.474 1.234-.095.095-.285.095-.38.095-.38 0-.76-.285-.854-.57zm12.814-5.885c-.19-.474 0-1.044.474-1.234.475-.19 1.044 0 1.234.475.19.474 0 1.044-.474 1.234-.095.095-.285.095-.38.095-.38 0-.759-.19-.854-.57zm12.814-5.79c-.19-.474 0-1.044.474-1.234.475-.19 1.044 0 1.234.475.19.474 0 1.044-.474 1.234-.095.095-.285.095-.38.095-.38 0-.664-.19-.854-.57zm12.814-5.7899c-.19-.4746 0-1.0441.474-1.234.475-.1898 1.044 0 1.234.4746s0 1.0441-.474 1.2339c-.095.095-.285.095-.38.095-.38 0-.664-.1899-.854-.5695zm12.814-5.7901c-.19-.4746 0-1.0441.474-1.2339.475-.1899 1.045 0 1.234.4745.19.4746 0 1.0442-.474 1.234-.095.0949-.285.0949-.38.0949-.285 0-.664-.1898-.854-.5695zm12.909-5.7901c-.19-.4746 0-1.0441.474-1.2339.475-.1898 1.045 0 1.234.4746.19.4746 0 1.0441-.474 1.2339-.095.095-.285.095-.38.095-.38 0-.759-.2848-.854-.5696zm12.814-5.79c-.19-.4746 0-1.0441.474-1.234.475-.1898 1.045 0 1.234.4746.19.4746 0 1.0441-.474 1.234-.095.0949-.285.0949-.38.0949-.38 0-.759-.2848-.854-.5695zm12.814-5.885c-.19-.4746 0-1.0441.475-1.2339.474-.1899 1.044 0 1.233.4746.19.4745 0 1.0441-.474 1.2339-.095.0949-.285.0949-.38.0949-.379 0-.664-.1898-.854-.5695zm12.814-5.79c-.19-.4746 0-1.0442.475-1.234.474-.1898 1.044 0 1.234.4746.189.4746 0 1.0441-.475 1.2339-.095.095-.285.095-.38.095-.379 0-.664-.1899-.854-.5695z"/><path d="m9.56493 221.533c-.18983-.474 0-1.044.47457-1.234.4746-.189 1.0441 0 1.234.475.1898.475 0 1.044-.4746 1.234-.0949.095-.2848.095-.3797.095-.2848-.095-.66443-.285-.85427-.57zm12.90897-5.98c-.1898-.474 0-1.044.4746-1.233.4746-.19 1.0441 0 1.234.474.1898.475 0 1.044-.4746 1.234-.095.095-.2848.095-.3797.095-.3797-.095-.7594-.285-.8543-.57zm12.8141-5.979c-.1899-.475 0-1.045.4746-1.234.4746-.19 1.0441 0 1.2339.474.1899.475 0 1.044-.4746 1.234-.0949.095-.2847.095-.3796.095-.3797 0-.6645-.285-.8543-.569zm12.814-5.98c-.1898-.475 0-1.044.4746-1.234s1.0441 0 1.234.474c.1898.475 0 1.044-.4746 1.234-.0949.095-.2848.095-.3797.095-.3797 0-.6644-.19-.8543-.569zm12.8141-5.98c-.1898-.475 0-1.044.4746-1.234s1.0441 0 1.2339.474c.1899.475 0 1.045-.4745 1.234-.095.095-.2848.095-.3797.095-.2848 0-.6645-.19-.8543-.569zm12.8141-5.98c-.1899-.475 0-1.044.4746-1.234s1.0441 0 1.2339.475c.1898.474 0 1.044-.4746 1.233-.0949.095-.2847.095-.3797.095-.2847 0-.6644-.189-.8542-.569zm12.909-5.98c-.1899-.475 0-1.044.4745-1.234.4746-.19 1.0442 0 1.234.475.1898.474 0 1.044-.4746 1.234-.0949.095-.2848.095-.3797.095-.3797 0-.7593-.19-.8542-.57zm12.814-5.98c-.1898-.474 0-1.044.4746-1.234.4742-.19 1.0442 0 1.2342.475.19.474 0 1.044-.475 1.234-.095.095-.285.095-.38.095-.3792 0-.6639-.19-.8538-.57zm12.8138-5.98c-.19-.474 0-1.044.475-1.234.474-.19 1.044 0 1.234.475.19.474 0 1.044-.475 1.234-.095.095-.285.095-.379.095-.38 0-.665-.19-.855-.57zm12.814-5.885c-.189-.474 0-1.044.475-1.234s1.044 0 1.234.475c.19.474 0 1.044-.475 1.234-.095.095-.284.095-.379.095-.285-.095-.665-.285-.855-.57zm12.814-5.98c-.189-.474 0-1.044.475-1.234.475-.189 1.044 0 1.234.475s0 1.044-.475 1.234c-.095.095-.284.095-.379.095-.285-.095-.665-.285-.855-.57zm12.909-5.98c-.189-.474 0-1.044.475-1.234.475-.189 1.044 0 1.234.475s0 1.044-.475 1.234c-.095.095-.284.095-.379.095-.38 0-.76-.285-.855-.57zm12.814-5.979c-.189-.475 0-1.045.475-1.234.475-.19 1.044 0 1.234.474.19.475 0 1.044-.475 1.234-.095.095-.284.095-.379.095-.38 0-.665-.19-.855-.569zm12.815-5.98c-.19-.475 0-1.044.474-1.234.475-.19 1.044 0 1.234.474.19.475 0 1.044-.475 1.234-.094.095-.284.095-.379.095-.38 0-.665-.19-.854-.569zm12.814-5.98c-.19-.475 0-1.044.474-1.234.475-.19 1.044 0 1.234.474.19.475 0 1.045-.474 1.234-.095.095-.285.095-.38.095-.285 0-.665-.19-.854-.569zm12.909-5.98c-.19-.475 0-1.044.474-1.234.475-.19 1.044 0 1.234.475.19.474 0 1.044-.474 1.233-.095.095-.285.095-.38.095-.38 0-.76-.189-.854-.569zm12.814-5.98c-.19-.475 0-1.044.474-1.234.475-.19 1.044 0 1.234.475.19.474 0 1.044-.474 1.234-.095.094-.285.094-.38.094-.38 0-.759-.189-.854-.569zm12.814-5.98c-.19-.475 0-1.044.474-1.234.475-.19 1.044 0 1.234.475.19.474 0 1.044-.474 1.234-.095.095-.285.095-.38.095-.38 0-.664-.19-.854-.57zm12.814-5.885c-.19-.475 0-1.044.474-1.234.475-.19 1.044 0 1.234.475.19.474 0 1.044-.474 1.234-.095.095-.285.095-.38.095-.38-.095-.664-.285-.854-.57zm12.814-5.98c-.19-.474 0-1.044.474-1.234.475-.19 1.045 0 1.234.475.19.474 0 1.044-.474 1.234-.095.095-.285.095-.38.095-.285-.095-.664-.285-.854-.57zm12.909-5.98c-.19-.474 0-1.044.474-1.234.475-.189 1.045 0 1.234.475.19.475 0 1.044-.474 1.234-.095.095-.285.095-.38.095-.38 0-.759-.285-.854-.57zm12.814-5.9796c-.19-.4746 0-1.0441.474-1.2339.475-.1899 1.045 0 1.234.4745.19.4746 0 1.0442-.474 1.234-.095.0949-.285.0949-.38.0949-.38 0-.664-.2847-.854-.5695zm12.814-5.9799c-.19-.4746 0-1.0441.475-1.2339.474-.1899 1.044 0 1.233.4745.19.4746 0 1.0442-.474 1.234-.095.0949-.285.0949-.38.0949-.379 0-.664-.1898-.854-.5695zm12.814-5.9799c-.19-.4746 0-1.0441.475-1.2339.474-.1899 1.044 0 1.234.4745.189.4746 0 1.0442-.475 1.234-.095.0949-.285.0949-.38.0949-.284 0-.664-.1898-.854-.5695z"/><path d="m9.56493 240.328c-.18983-.474 0-1.044.47457-1.234.4746-.189 1.0441 0 1.234.475.1898.475 0 1.044-.4746 1.234-.0949.095-.2848.095-.3797.095-.2848 0-.66443-.19-.85427-.57zm12.90897-6.169c-.1898-.475 0-1.044.4746-1.234s1.0441 0 1.234.474c.1898.475 0 1.044-.4746 1.234-.095.095-.2848.095-.3797.095-.3797 0-.7594-.19-.8543-.569zm12.8141-6.075c-.1899-.475 0-1.044.4746-1.234s1.0441 0 1.2339.474c.1899.475 0 1.045-.4746 1.234-.0949.095-.2847.095-.3797.095-.3796-.095-.6644-.284-.8542-.569zm12.814-6.17c-.1898-.475 0-1.044.4746-1.234s1.0441 0 1.234.475c.1898.474 0 1.044-.4746 1.234-.0949.095-.2848.095-.3797.095-.3797 0-.6644-.19-.8543-.57zm12.8141-6.075c-.1898-.474 0-1.044.4746-1.234s1.0441 0 1.2339.475c.1899.475 0 1.044-.4745 1.234-.095.095-.2848.095-.3797.095-.2848-.095-.6645-.285-.8543-.57zm12.909-6.169c-.1899-.475 0-1.045.4746-1.234.4746-.19 1.0441 0 1.2339.474.1899.475 0 1.044-.4746 1.234-.0949.095-.2847.095-.3796.095-.3797 0-.7594-.19-.8543-.569zm12.8141-6.17c-.1899-.475 0-1.044.4745-1.234.4746-.19 1.0442 0 1.234.474.1898.475 0 1.045-.4746 1.234-.0949.095-.2848.095-.3797.095-.3797 0-.7593-.19-.8542-.569zm12.814-6.075c-.1898-.475 0-1.044.4746-1.234.4742-.19 1.0442 0 1.2342.475.19.474 0 1.044-.475 1.234-.095.094-.285.094-.38.094-.3792-.094-.6639-.284-.8538-.569zm12.8138-6.17c-.19-.474 0-1.044.475-1.234.474-.19 1.044 0 1.234.475.19.474 0 1.044-.475 1.234-.095.095-.285.095-.379.095-.38 0-.665-.19-.855-.57zm12.814-6.169c-.189-.475 0-1.045.475-1.234.475-.19 1.044 0 1.234.474.19.475 0 1.044-.475 1.234-.095.095-.284.095-.379.095-.285 0-.665-.19-.855-.569zm12.909-6.075c-.19-.475 0-1.044.475-1.234.474-.19 1.044 0 1.234.474.19.475 0 1.044-.475 1.234-.095.095-.284.095-.379.095-.38 0-.76-.285-.855-.569zm12.814-6.17c-.189-.475 0-1.044.475-1.234s1.044 0 1.234.475c.19.474 0 1.044-.475 1.234-.19.094-.284.094-.379.094-.38 0-.76-.189-.855-.569zm12.814-6.075c-.189-.474 0-1.044.475-1.234s1.044 0 1.234.475c.19.474 0 1.044-.475 1.234-.095.095-.284.095-.379.095-.38-.095-.665-.285-.855-.57zm12.814-6.17c-.189-.474 0-1.044.475-1.234.475-.189 1.044 0 1.234.475s0 1.044-.475 1.234c-.094.095-.284.095-.379.095-.38 0-.665-.19-.855-.57zm12.815-6.169c-.19-.475 0-1.044.474-1.234.475-.19 1.044 0 1.234.474.19.475 0 1.044-.474 1.234-.095.095-.285.095-.38.095-.285 0-.665-.19-.854-.569zm12.909-6.075c-.19-.475 0-1.044.474-1.234.475-.19 1.044 0 1.234.475.19.474 0 1.044-.475 1.233-.094.095-.284.095-.379.095-.38-.095-.76-.284-.854-.569zm12.814-6.17c-.19-.474 0-1.044.474-1.234.475-.19 1.044 0 1.234.475.19.474 0 1.044-.474 1.234-.095.095-.285.095-.38.095-.38 0-.665-.19-.854-.57zm12.814-6.075c-.19-.474 0-1.044.474-1.234.475-.189 1.044 0 1.234.475s0 1.044-.474 1.234c-.095.095-.285.095-.38.095-.38-.095-.664-.285-.854-.57zm12.814-6.169c-.19-.475 0-1.045.474-1.234.475-.19 1.044 0 1.234.474.19.475 0 1.044-.474 1.234-.095.095-.285.095-.38.095-.285 0-.664-.19-.854-.569zm12.814-6.17c-.19-.475 0-1.044.474-1.234.475-.19 1.045 0 1.234.475.19.474 0 1.044-.474 1.233-.095.095-.285.095-.38.095-.285 0-.664-.189-.854-.569zm12.909-6.075c-.19-.475 0-1.044.474-1.234.475-.19 1.045 0 1.234.475.19.474 0 1.044-.474 1.234-.095.095-.285.095-.38.095-.38-.095-.759-.285-.854-.57zm12.814-6.17c-.19-.474 0-1.044.474-1.234.475-.189 1.045 0 1.234.475.19.475 0 1.044-.474 1.234-.095.095-.285.095-.38.095-.38 0-.664-.19-.854-.57zm12.814-6.169c-.19-.475 0-1.045.475-1.234.474-.19 1.044 0 1.233.474.19.475 0 1.044-.474 1.234-.095.095-.285.095-.38.095-.379 0-.664-.19-.854-.569z"/><path d="m9.56493 259.12c-.18983-.475 0-1.044.47457-1.234.4746-.19 1.0441 0 1.234.474.1898.475 0 1.044-.4746 1.234-.0949.095-.2848.095-.3797.095-.2848 0-.66443-.19-.85427-.569zm12.90897-6.265c-.1898-.475 0-1.044.4746-1.234s1.0441 0 1.234.475c.1898.474 0 1.044-.4746 1.234-.095.095-.2848.095-.3797.095-.3797 0-.7594-.19-.8543-.57zm12.8141-6.265c-.1899-.474 0-1.044.3797-1.234.4745-.189 1.0441 0 1.2339.475s0 1.044-.4746 1.234c-.1898.095-.2847.095-.3797.095-.2847-.095-.5695-.285-.7593-.57zm12.814-6.359c-.1898-.475 0-1.044.4746-1.234s1.0441 0 1.234.474c.1898.475 0 1.045-.4746 1.234-.0949.095-.2848.095-.3797.095-.3797 0-.6644-.19-.8543-.569zm12.8141-6.265c-.1898-.474 0-1.044.4746-1.234s1.0441 0 1.2339.38c.1899.474 0 1.044-.4745 1.234-.095.095-.2848.095-.3797.095-.2848.095-.6645-.095-.8543-.475zm12.909-6.265c-.1899-.474 0-1.044.4746-1.233.4746-.19 1.0441 0 1.2339.474.1899.475 0 1.044-.4746 1.234-.0949.095-.2847.095-.3796.095-.3797-.095-.7594-.285-.8543-.57zm12.8141-6.359c-.1899-.475 0-1.044.4745-1.234.4746-.19 1.0442 0 1.234.475.1898.474 0 1.044-.4746 1.234-.0949.094-.2848.094-.3797.094-.3797 0-.7593-.189-.8542-.569zm12.814-6.265c-.1898-.474 0-1.044.4746-1.234.4742-.19 1.0442 0 1.2342.475.19.474 0 1.044-.475 1.234-.095.095-.285.095-.38.095-.3792 0-.6639-.19-.8538-.57zm12.8138-6.264c-.19-.475 0-1.044.475-1.234.474-.19 1.044 0 1.234.474.19.475 0 1.044-.475 1.234-.095.095-.285.095-.379.095-.38-.095-.665-.285-.855-.569zm12.814-6.36c-.189-.475 0-1.044.475-1.234s1.044 0 1.234.38c.19.474 0 1.044-.475 1.234-.095.095-.284.095-.379.095-.285.095-.665-.095-.855-.475zm12.909-6.265c-.19-.474 0-1.044.475-1.234.474-.189 1.044 0 1.234.475s0 1.044-.475 1.234c-.095.095-.284.095-.379.095-.38 0-.76-.19-.855-.57zm12.814-6.264c-.189-.475 0-1.044.475-1.234s1.044 0 1.234.474c.19.475 0 1.044-.475 1.234-.095.095-.284.095-.379.095-.38-.095-.665-.285-.855-.569zm12.814-6.36c-.189-.474 0-1.044.38-1.234.475-.19 1.044 0 1.234.475.19.474 0 1.044-.475 1.234-.094.095-.284.095-.379.095-.285 0-.57-.19-.76-.57zm12.814-6.264c-.189-.475 0-1.045.475-1.234.475-.19 1.044 0 1.234.474.19.475 0 1.044-.475 1.234-.094.095-.284.095-.379.095-.285 0-.665-.19-.855-.569zm12.815-6.265c-.19-.475 0-1.044.379-1.234.475-.19 1.044 0 1.234.38.19.474 0 1.044-.474 1.234-.095.094-.285.094-.38.094-.19 0-.57-.189-.759-.474zm12.909-6.36c-.19-.474 0-1.044.474-1.234.475-.19 1.044 0 1.234.475s0 1.044-.475 1.234c-.094.095-.284.095-.379.095-.38 0-.76-.19-.854-.57zm12.814-6.264c-.19-.475 0-1.044.474-1.234.475-.19 1.044 0 1.234.474.19.475 0 1.044-.474 1.234-.095.095-.285.095-.38.095-.38 0-.665-.19-.854-.569zm12.814-6.265c-.19-.475 0-1.044.474-1.234.475-.19 1.044 0 1.234.475.19.474 0 1.044-.474 1.234-.095.094-.285.094-.38.094-.38-.094-.664-.284-.854-.569zm12.814-6.36c-.19-.474 0-1.044.474-1.234.475-.189 1.044 0 1.234.475s0 1.044-.474 1.234c-.095.095-.285.095-.38.095-.285 0-.664-.19-.854-.57zm12.814-6.264c-.19-.475 0-1.044.474-1.234.475-.19 1.045 0 1.234.474.19.475 0 1.044-.474 1.234-.095.095-.285.095-.38.095-.285 0-.664-.19-.854-.569zm12.909-6.265c-.19-.475 0-1.044.474-1.234.475-.19 1.045 0 1.234.475.19.474 0 1.044-.474 1.234-.095.095-.285.095-.38.095-.38-.095-.759-.285-.854-.57zm12.814-6.359c-.19-.475 0-1.045.474-1.234.475-.19 1.045 0 1.234.474.19.475 0 1.044-.474 1.234-.095.095-.285.095-.38.095-.38 0-.664-.19-.854-.569zm12.814-6.265c-.19-.475 0-1.044.475-1.234.474-.19 1.044 0 1.233.475.19.474 0 1.044-.474 1.233-.095.095-.285.095-.38.095-.379 0-.664-.284-.854-.569z"/><path d="m9.66003 278.01c-.18984-.475-.09492-1.044.37967-1.234.4746-.19 1.0441 0 1.2339.38.1899.474.095 1.044-.3796 1.233-.0949.095-.2848.095-.4746.095-.2848 0-.66445-.189-.75937-.474zm12.81407-6.455c-.1898-.474 0-1.044.3797-1.234.4746-.19 1.0441 0 1.2339.38.1899.475 0 1.044-.4746 1.234-.0949.095-.2847.095-.3797.095-.2847 0-.5695-.19-.7593-.475zm12.8141-6.454c-.1899-.475-.095-1.044.3796-1.234s1.0441 0 1.3289.38c.1898.474 0 1.044-.4746 1.328-.0949.095-.2848.095-.4746.095-.2848-.095-.5695-.284-.7593-.569zm12.814-6.455c-.1898-.474 0-1.044.4746-1.329.4746-.189 1.0441 0 1.234.475.1898.475 0 1.044-.3797 1.234-.0949.095-.2848.095-.4746.095-.3797 0-.6644-.19-.8543-.475zm12.8141-6.454c-.1899-.475-.0949-1.044.3797-1.234.4745-.19 1.0441 0 1.2339.38.1898.474 0 1.044-.3797 1.233-.1898.095-.2847.095-.4746.095-.1898 0-.5695-.189-.7593-.474zm12.909-6.455c-.1899-.474-.095-1.044.3796-1.234.4746-.189 1.0441 0 1.234.38.1898.475 0 1.044-.3797 1.329-.0949.095-.2847.095-.3797.095-.3796-.095-.7593-.285-.8542-.57zm12.814-6.454c-.1898-.475-.0949-1.044.3797-1.329.4746-.19 1.0441 0 1.2339.475.1899.474.095 1.044-.3796 1.233-.1899.095-.2848.095-.4746.095-.2848 0-.5695-.189-.7594-.474zm12.8141-6.55c-.1899-.474 0-1.044.3797-1.234.4749-.189 1.0439 0 1.2339.38.19.475 0 1.044-.38 1.234-.095.095-.284.095-.379.095-.38.095-.6648-.095-.8546-.475zm12.8136-6.454c-.189-.475 0-1.044.38-1.234.475-.19 1.044 0 1.234.38.19.474.095 1.044-.38 1.329-.095.094-.284.094-.474.094s-.57-.189-.76-.569zm12.815-6.455c-.19-.474 0-1.044.379-1.328.475-.19 1.044 0 1.234.474.19.475.095 1.044-.38 1.234-.094.095-.284.095-.379.095-.285.095-.665-.095-.854-.475zm12.908-6.454c-.189-.475-.094-1.044.38-1.234.475-.19 1.044-.095 1.234.38.19.474.095 1.044-.38 1.234-.094.095-.284.095-.474.095-.285.094-.665-.095-.76-.475zm12.815-6.455c-.19-.474 0-1.044.379-1.233.475-.19 1.044-.095 1.234.379.285.475.095 1.044-.38 1.234-.094.095-.284.095-.379.095-.38.095-.665-.095-.854-.475zm12.814-6.454c-.19-.475-.095-1.044.379-1.329.475-.19 1.044 0 1.329.475.19.474 0 1.044-.474 1.234-.095.095-.285.095-.38.095-.38.094-.665-.095-.854-.475zm12.814-6.455c-.19-.474 0-1.044.474-1.233.475-.19 1.044-.095 1.234.379.19.475 0 1.044-.379 1.234-.19.095-.285.095-.475.095-.285.095-.664-.095-.854-.475zm12.814-6.454c-.19-.475-.095-1.044.379-1.234.475-.19 1.045-.095 1.234.38.19.474 0 1.044-.379 1.234-.19.095-.285.095-.475.095s-.569-.19-.759-.475zm12.909-6.455c-.19-.474 0-1.044.474-1.328.475-.19 1.044 0 1.234.474.19.475 0 1.044-.474 1.234-.095.095-.285.095-.38.095-.38 0-.759-.19-.854-.475zm12.814-6.454c-.19-.475 0-1.044.379-1.234.475-.19 1.045 0 1.234.38.19.474 0 1.044-.379 1.234-.19.095-.285.095-.475.095-.285 0-.569-.19-.759-.475zm12.814-6.455c-.19-.474 0-1.044.474-1.233.475-.19 1.045-.095 1.234.379.19.475 0 1.044-.379 1.234-.095.095-.285.095-.38.095-.475 0-.759-.19-.949-.475zm12.814-6.454c-.19-.475 0-1.044.38-1.234.474-.19 1.044 0 1.234.475.189.474.094 1.044-.38 1.234-.19.095-.285.095-.475.095-.19-.095-.569-.285-.759-.57zm12.909-6.454c-.19-.475 0-1.045.38-1.234.474-.19 1.044 0 1.234.379.189.475 0 1.044-.38 1.234-.095.095-.285.095-.38.095-.38 0-.759-.19-.854-.474zm12.814-6.455c-.19-.475 0-1.044.38-1.234.474-.19 1.044 0 1.234.38.189.474.095 1.044-.38 1.234-.095.095-.285.095-.475.095-.284 0-.664-.19-.759-.475z"/><path d="m6.14831 298.606c-.18984-.474-.09492-1.044.37967-1.234.4746-.284 1.04411-.094 1.32887.38.18984.475.09492 1.044-.37968 1.329-.09491.095-.28475.095-.47459.095-.37968 0-.66443-.19-.85427-.57zm12.52929-6.454c-.1898-.475-.0949-1.044.3797-1.329s1.0441-.095 1.2339.38c.2848.474.095 1.044-.3796 1.234-.1899.095-.2848.095-.4746.095-.2848.189-.6645 0-.7594-.38zm12.4344-6.455c-.1898-.474-.0949-1.044.3797-1.328.4746-.285 1.0441-.095 1.2339.379.1899.475.0949 1.044-.3797 1.234-.1898.095-.2847.095-.4745.095-.2848.19-.5696 0-.7594-.38zm12.5293-6.454c-.2847-.475-.0949-1.044.3797-1.234.4746-.285 1.0441-.095 1.2339.38.2848.474.0949 1.044-.3796 1.234-.095.095-.2848.095-.3797.095-.3797.094-.7594-.095-.8543-.475zm12.4344-6.36c-.1898-.474-.0949-1.044.3797-1.234.4746-.284 1.0441-.095 1.3288.38.1899.475.095 1.044-.3796 1.234-.095.095-.2848.095-.4746.095-.2848 0-.6645-.19-.8543-.475z"/><path d="m6.14746 317.496c-.28475-.475-.09491-1.044.37968-1.329.47459-.19 1.04411-.095 1.32887.38.28475.474.09491 1.044-.37968 1.329-.18984.095-.28476.095-.47459.095-.37968 0-.66444-.19-.85428-.475zm12.52934-6.549c-.2848-.475-.0949-1.044.3796-1.329.4746-.285 1.0442-.095 1.234.379.2848.475.0949 1.045-.3797 1.329-.0949.095-.2847.095-.4746.095-.2847 0-.6644-.19-.7593-.474zm12.4344-6.645c-.2848-.474-.095-1.044.3796-1.329.4746-.284 1.0441-.094 1.234.38.2847.475.0949 1.044-.3797 1.329-.0949.095-.2848.095-.4746.095-.2847 0-.5695-.19-.7593-.475zm12.5293-6.644c-.2848-.475-.095-1.044.3796-1.329s1.0441-.095 1.3289.38c.2848.474.0949 1.044-.3797 1.329-.1898.095-.2847.095-.4746.095-.3796.094-.6644-.095-.8542-.475z"/></g><path d="m94.5189 135.73s.8543 3.607-1.8034 5.506c-2.6578 1.898-10.8208 2.088-10.8208 2.088s-20.5025 15.946-25.723 9.492c-1.8984-2.373 19.4584-9.587 8.6376-16.326-1.139-.76-10.536 5.315-12.0547 5.41-4.3663.285-12.1497-3.797-16.8956-11.295-3.3222-5.316 16.8956-18.889 16.8956-18.889l9.0173 6.549s-1.6136 5.506.4746 7.784 12.0547 7.973 12.5293 9.017c.5695 1.044.5695 2.847.5695 2.847s12.909-12.054 19.1736-2.183z" fill="#0b0e34" opacity=".2"/><path d="m52.0892 105.83s.5696 5.221 3.1324 9.872c2.0882 3.796 6.5494 3.417 8.2579 1.139 2.7527-3.607.6644-14.333-2.9425-15.472-3.6069-1.044-8.5427 1.329-8.4478 4.461z" fill="#343758"/><path d="m54.9385 87.7969s-5.9799 1.5187-6.2647 14.2381c0 1.518.2848 2.942.9492 4.271 2.0882 4.177 7.3088 12.909 13.6684 12.34l9.6817 7.308 7.9732-11.485-6.3596-16.5158z" fill="#16c2f8"/><path d="m54.4629 89.8848s8.3529 8.5427 8.8275 10.1562c.3796 1.519-.5696 11.106 0 13.574.5695 2.467 4.3662 5.41 4.3662 5.41s-1.5187-2.373-.8542-2.658c.6644-.285 2.0882.854 4.7459.285 2.5628-.57-3.0374-4.651-2.7526-12.529 0 0 .8542.284 2.8475-.76z" fill="#0091dd"/><path d="m54.4636 89.8835s10.1563 11.2955 15.187 13.0035c5.5053 1.899 13.0988-2.752 8.258-9.3017-4.8409-6.5494-6.6444-11.3902-13.5734-12.4344-4.8409-.7593-11.3903 5.3155-9.8716 8.7326z" fill="#343758"/><path d="m83.9845 92.9213-7.4986 3.512c-3.0374 1.4238-4.9358 4.5557-4.7459 7.9737.3797 6.739.9492 19.173.6644 20.027-.3797 1.234-9.2071-7.118-9.2071-8.352s0 2.752 0 2.752 7.4986 9.397 10.8207 10.631c3.2273 1.234 19.7432-9.397 21.3568-12.624 1.0441-2.088-1.2339-12.434-2.9425-19.6483-.8543-3.9866-4.9358-5.885-8.4478-4.2714z" fill="#70d4f9"/><path d="m84.3627 123.676s.5695 5.22 3.1323 9.871c2.0882 3.797 6.5494 3.417 8.258 1.139 2.7526-3.607.6644-14.332-2.9425-15.471-3.7018-1.045-8.5427 1.328-8.4478 4.461z" fill="#343758"/><path d="m84.3626 125.29s4.3662 6.36 7.024 6.644c2.5628.285 5.2205-1.044 5.9799-3.322.7593-2.278-.7594-11.01-6.9291-12.719-5.2206-1.519-8.7326 4.271-6.0748 9.397z" fill="#70d4f9"/><path d="m79.7109 100.04 4.3663 16.421c-.8543.285-1.3289.949-1.8035 1.709z" fill="#0091dd"/><path d="m85.1229 97.9521 4.7459 17.7499s4.4612.759 6.5495 6.075c0 0-6.1698-8.163-10.8208-2.278 0 0-1.3289-.38-.9492-1.234s1.5187-2.088 3.1323-2.468z" fill="#e4f6fe" opacity=".3"/><path d="m74.1118 129.276c1.5187.57 5.885-1.423 10.2512-3.986l-.6644-5.6s-8.3529 5.695-8.9224 3.512c-.5695-2.184-1.2339-.38-1.2339 1.993s-8.8275-5.98-10.2513-7.973v1.613s7.5935 9.207 10.8208 10.441z" fill="#16c2f8"/><path d="m84.0774 97.5699s-3.8916 2.6581-3.9865 4.0811c-2.9425-.094-4.6511-2.3726-5.3155-4.176 0 0 6.4545-5.2206 9.302.0949z" fill="#16c2f8"/><path d="m95.5644 85.3284-3.9866 1.7085c-.6644.2848-1.5187 0-1.8035-.7594-.2847-.6644 0-1.5187.7594-1.8034l3.9866-1.7086c.6644-.2847 1.5187 0 1.8034.7594.2848.7593-.0949 1.5187-.7593 1.8035z" fill="#0091dd"/><path d="m68.1327 92.1616s4.5561-1.9933 5.6002-2.6577c1.0441-.5695.6644-2.9425 4.4612-4.3663 3.7967-1.4238 5.885.7594 6.7392.5695.9492-.1898 5.2206-1.8034 5.2206-1.8034 2.5628-1.234 3.512 3.6069 1.6136 4.1764l-4.3663 1.8035s1.0441 2.278-.4746 5.1256c-1.4238 2.7526-5.5053 4.7459-11.4852-1.234-.5695-.7593-5.4104 1.7086-5.4104 1.7086-2.3729 1.3289-4.3662-1.9933-1.8983-3.3222z" fill="#70d4f9"/><path d="m86.7133 93.8071c.5594-2.0752-.4231-4.1446-2.1946-4.6222s-3.6611.8175-4.2205 2.8926c-.5595 2.0752.423 4.1446 2.1945 4.6222s3.6611-.8175 4.2206-2.8926z" fill="#fff"/><path d="m68.5117 95.5803-3.9866 1.7085c-.6645.2848-1.5187 0-1.8035-.7593-.2848-.6644 0-1.5187.7594-1.8035l3.9865-1.7085c.6645-.2848 1.5188 0 1.8035.7593.2848.6645-.0949 1.5187-.7593 1.8035z" fill="#0091dd"/><path d="m81.4198 88.7447s2.4679-1.4238 4.8409-.2848c0 0-3.7019-3.2272-4.8409-3.3222-1.139-.0949-2.8476.1899-3.7968.9492z" fill="#e4f6fe" opacity=".3"/><path d="m50.6672 99.4688s2.4679 8.0682 8.3528 11.2952v1.329s-6.5494-4.176-8.9223-11.675z" fill="#0091dd"/><g fill="#0b0e34"><path d="m192.948 187.456-42.998 7.119c-5.696.949-11.58 0-16.801-2.657l-26.577-13.764c-2.753-1.424-2.943-5.41-.285-7.024l33.222-20.123c3.606-2.183 6.739-5.03 9.302-8.447l11.2-14.903c4.176-5.6 9.682-10.156 15.852-13.383l40.34-20.4078 48.694 53.0598-67.298 38.822c-1.424.949-3.037 1.518-4.651 1.708z" opacity=".2"/><path d="m290.434 86.0536v39.3914c0 1.993-1.045 3.892-2.848 4.936l-91.882 52.965c-1.423.854-3.227.854-4.651 0l-27.526-15.567c-1.804-1.044-2.658-3.038-2.278-5.031l1.993-10.251c.949-4.746 3.038-9.112 6.265-12.719l6.454-7.309 18.415-29.33c2.657-4.1764 6.264-7.6884 10.536-10.0614l49.357-28.1909c1.709-.9492 3.797-.9492 5.411 0l28.191 16.421c1.518.9492 2.563 2.7526 2.563 4.7459z"/><path d="m201.589 169.905c.759-1.708 1.708-3.322 2.942-4.651 1.044-1.139 2.088-2.088 3.322-2.847 2.089-1.234 4.082-1.329 5.411-.57l4.176 2.468-10.821 18.509-4.176-2.468c-1.329-.759-2.183-2.468-2.183-4.84 0-1.804.474-3.702 1.329-5.601z"/></g><path d="m212.031 164.876c4.176-2.468 7.594-.474 7.594 4.367 0 4.84-3.418 10.725-7.594 13.098-4.176 2.468-7.593.475-7.593-4.366 0-4.746 3.417-10.631 7.593-13.099z" fill="#343758"/><path d="m212.028 168.764c2.278-1.329 4.176-.285 4.176 2.373 0 2.657-1.898 5.884-4.176 7.213s-4.176.285-4.176-2.373c0-2.562 1.898-5.885 4.176-7.213z" fill="#0b0e34"/><path d="m208.42 175.313c0 2.088 1.614 2.943 3.417 1.804 1.804-1.139 3.322-3.702 3.228-5.79 0-2.089-1.614-2.943-3.418-1.804-1.803 1.044-3.322 3.702-3.227 5.79z" fill="#fff"/><path d="m261.194 135.254c.759-1.709 1.709-3.322 2.943-4.651 1.044-1.139 2.088-2.088 3.322-2.848 2.088-1.234 4.081-1.329 5.41-.569l4.177 2.468-10.821 18.509-4.177-2.468c-1.328-.759-2.183-2.468-2.183-4.841 0-1.708.475-3.702 1.329-5.6z" fill="#0b0e34"/><path d="m271.635 130.319c4.176-2.468 7.593-.475 7.593 4.366s-3.417 10.726-7.593 13.099c-4.177 2.468-7.594.474-7.594-4.366 0-4.841 3.417-10.726 7.594-13.099z" fill="#343758"/><path d="m271.729 134.306c2.278-1.329 4.177-.285 4.177 2.372 0 2.658-1.899 5.885-4.177 7.214s-4.176.285-4.176-2.373c0-2.657 1.898-5.885 4.176-7.213z" fill="#0b0e34"/><path d="m268.123 140.76c0 2.089 1.614 2.943 3.417 1.804 1.804-1.139 3.323-3.702 3.228-5.79 0-2.088-1.614-2.943-3.417-1.804-1.804 1.044-3.323 3.702-3.228 5.79z" fill="#fff"/><path d="m287.771 80.4844-28.191-16.4209c-1.708-.9492-3.701-.9492-5.41 0l-49.358 28.1909c-4.271 2.4679-7.878 5.885-10.536 10.0616l-18.414 29.33-6.455 7.309c-3.227 3.606-5.315 7.973-6.264 12.719l-1.993 10.251c-.38 1.993.569 3.987 2.278 5.031l27.526 15.566c1.424.855 3.227.855 4.651 0l7.309-4.176.949-7.594c.38-3.417 2.468-6.454 5.6-8.068l5.031-2.847c2.658-1.329 5.41.284 5.41 3.322v5.315l42.904-24.774.949-7.593c.38-3.417 2.468-6.455 5.6-8.068l5.031-2.848c2.658-1.329 5.41.285 5.41 3.322v5.316l7.784-4.461c1.708-1.044 2.847-2.848 2.847-4.936v-39.3914c.095-1.8035-.949-3.607-2.658-4.5562z" fill="#f6f7fb"/><path d="m287.392 85.1356-55.148 31.7034c-.854.474-1.518 1.139-2.088 1.898l-3.322 5.031c-.19.284.095.664.474.474l60.179-34.6452c.38-.2847.665-.6644.665-1.139v-2.8476c0-.3797-.475-.6644-.76-.4746z" fill="#ffbecd"/><g fill="#343758"><path d="m177.095 132.403c11.39 9.587 23.635 14.048 27.527 15.282.759.19 1.518-.095 1.898-.759l10.251-17.18c.475-.855.19-1.899-.664-2.373-11.865-6.075-21.547-12.245-25.913-15.187-.759-.475-1.804-.285-2.278.474l-11.106 17.56c-.474.759-.379 1.709.285 2.183z"/><path d="m226.927 127.185 10.157-5.885c.759-.474 1.803.095 1.803 1.045v12.909c0 .854-.474 1.613-1.234 2.088l-22.59 12.624c-.855.475-1.804-.475-1.424-1.329l8.163-15.946c1.139-2.278 2.847-4.177 5.125-5.506z"/><path d="m269.832 119.592-26.957 15.092c-.759.38-1.613-.094-1.613-.949v-14.048c0-.379.19-.759.569-.949l26.957-15.092c.76-.38 1.614.095 1.614.949v14.048c0 .38-.19.76-.57.949z"/></g><path d="m284.456 106.27c.57-4.208-.821-7.8699-3.107-8.1795-2.286-.3095-4.601 2.8505-5.171 7.0585s.822 7.87 3.107 8.18c2.286.31 4.601-2.851 5.171-7.059z" fill="#fff"/><path d="m225.981 110.384-.475.189c-.474.285-1.044.19-1.519-.094l-19.173-11.3908c-.57-.3796-.57-1.139 0-1.5187l.19-.0949z" fill="#343758"/><path d="m284.456 106.27c.57-4.208-.821-7.8699-3.107-8.1795-2.286-.3095-4.601 2.8505-5.171 7.0585s.822 7.87 3.107 8.18c2.286.31 4.601-2.851 5.171-7.059z" fill="#fff"/><path d="m283.026 103.643-1.898 1.139v-2.847l-1.424.854v2.752l-1.993 1.234v1.804l1.993-1.234.095 2.942 1.329-.854v-2.942l1.898-1.139z" fill="#f75276"/><path d="m290.334 106.017-1.044.665c-.285.19-.38.475-.38.759v7.879c0 .284.38.569.665.379l.949-.569c.379-.285.664-.76.664-1.234v-7.309c-.095-.57-.474-.759-.854-.57z" fill="#f75276"/><path d="m215.346 97.1914-6.075 3.5116 8.353 4.841 5.98-3.702z" fill="#c8d0db"/><path d="m232.148 106.589-8.543-4.841-5.98 3.702 8.353 4.841c.759.379 1.613.474 2.373 0l3.797-2.088c.664-.19.664-1.234 0-1.614z" fill="#0091dd"/><path d="m206.52 93.6798-2.943 1.7086c-.759.4746-.759 1.6136 0 2.0882l5.695 3.3224 5.98-3.5122-6.359-3.512c-.665-.5695-1.614-.5695-2.373-.095z" fill="#f75276"/><path d="m220.95 91.3067 19.648-10.536c.949-.4746 1.994-.4746 2.943.0949l11.2 7.024c.854.4746.759 1.7085-.095 2.1831l-19.458 10.2513c-.854.475-1.993.475-2.848-.095l-11.485-6.8341c-.759-.3797-.759-1.6136.095-2.0882z" fill="#fff"/><path d="m173.775 154.14 14.048 7.308-.569.665c-.854.949-2.183 1.234-3.322.664l-8.638-4.556c-.854-.474-1.424-1.424-1.424-2.373v-1.708z" fill="#343758"/><path d="m201.98 177.151.76-5.031c.095-.949-.854-1.709-1.709-1.234l-3.132 1.804c-1.424.759-3.132.759-4.556 0l-30.849-16.896-.569.38c-.19.095-.285.284-.285.474l-1.139 5.031c-.475 1.993.474 3.987 2.183 4.936l28.286 16.041c1.424.854 3.227.854 4.651 0l4.271-2.468c1.139-.664 1.899-1.803 2.088-3.037z" fill="#343758"/><g fill="#707f8c"><path d="m201.015 170.847-3.132 1.804c-1.424.759-3.132.759-4.556 0l-30.754-16.991-.569.38c-.19.095-.285.285-.285.474l31.038 17.181c1.994 1.044 4.272 1.139 6.265.19l3.702-1.804c.19-1.044-.855-1.708-1.709-1.234z"/><path d="m188.108 178.157c.629 0 1.139-.723 1.139-1.614s-.51-1.613-1.139-1.613-1.139.722-1.139 1.613.51 1.614 1.139 1.614z"/><path d="m165.231 165.342c.629 0 1.139-.722 1.139-1.613s-.51-1.614-1.139-1.614-1.139.723-1.139 1.614.51 1.613 1.139 1.613z"/><path d="m171.497 168.666 6.549 3.892c.285.19.57 0 .664-.285l.57-2.563c0-.19 0-.379-.19-.474l-6.549-3.892c-.285-.19-.57 0-.665.285l-.569 2.563c-.095.189 0 .379.19.474z"/></g><path d="m203.388 157.273c.759-.095 1.424.759.949 1.424-1.234 2.088-3.607 5.41-6.264 5.41-2.468 0-4.556-.475-5.885-.854-.665-.19-.855-1.044-.475-1.519.57-.664 1.519-1.614 2.468-2.088 1.614-1.044 6.454-1.899 9.207-2.373z" fill="#e4eaf1"/><path d="m164.757 146.454c.095.855.284 1.709.759 2.278 1.329 1.614 2.943 2.848 3.892 3.512.474.38 1.139 0 1.329-.569.094-.76.284-1.899.094-2.848-.284-1.518-2.183-5.03-3.417-7.214-.379-.284-2.752 3.133-2.657 4.841z" fill="#e4eaf1"/><path d="m110.274 261.4c-1.519 1.139-3.512 1.614-5.505 1.139 0 0-20.028-4.651-22.401-5.22-2.373-.57-6.4545-2.468-2.7527-5.505 2.5629-2.089 22.6857-14.998 22.6857-14.998z" fill="#0b0e34" opacity=".2"/><path d="m126.788 244.411-19.364 17.086-8.9221-5.031c-.8543-.474-1.4238-1.424-1.4238-2.563v-18.699c0-2.847 1.5187-5.6 3.9869-7.024l22.97-13.383c.949-.57 1.993-.475 2.848 0 .854.474 8.922 5.03 8.922 5.03l-4.936 15.852c-.095 2.847-1.613 7.214-4.081 8.732z" fill="#ffbecd"/><path d="m98.4074 256.466 8.9226 5.031.379-.38-1.898-2.183-8.9223-5.031c.0949 1.139.6644 2.089 1.5187 2.563z" fill="#e50031"/><path d="m108.847 261.592c-1.519 0-2.658-1.234-2.658-2.658v-18.699c0-2.753 1.519-5.41 3.892-6.834l22.971-13.384c.379-.284.854-.379 1.328-.379 1.519 0 2.658 1.234 2.658 2.657v16.991c0 2.753-1.519 5.41-3.892 6.834l-22.97 15.092c-.475.285-.854.38-1.329.38z" fill="#ff92ac"/><path d="m134.381 219.923c1.234 0 2.468.949 2.468 2.468v16.99c0 2.753-1.424 5.221-3.797 6.645l-22.97 14.997c-.38.19-.76.379-1.234.379-1.234 0-2.468-.949-2.468-2.467v-18.7c0-2.752 1.423-5.22 3.796-6.644l22.971-13.383c.38-.19.759-.285 1.234-.285zm0-.475c-.475 0-.949.095-1.424.38l-22.97 13.383c-2.468 1.424-3.987 4.082-3.987 7.024v18.7c0 1.708 1.424 2.942 2.942 2.942.475 0 .95-.095 1.424-.38l22.971-15.092c2.468-1.424 3.986-4.081 3.986-7.024v-16.99c-.095-1.709-1.424-2.943-2.942-2.943z" fill="#f75276"/><path d="m126.313 236.249-2.183 1.329v-3.322l-1.708.949v3.322l-2.373 1.519v1.993l2.373-1.424v3.512l1.708-1.044v-3.512l2.183-1.329z" fill="#fff"/><path d="m96.9824 237.292 8.9226 4.461v17.181l-8.9226-5.031z" fill="#f75276"/><g fill="#fff"><path d="m129.921 216.506c-.665.094-1.139.284-1.614.569l-1.518.949-3.133 1.804-6.264 3.702-12.435 7.308c-1.993 1.139-3.417 3.228-3.797 5.506-.095.569-.095 1.139-.095 1.708v1.804 3.607 7.213 3.607 1.804c0 .569 0 1.044.095 1.708-.569-.379-.759-1.139-.664-1.708v-1.804-3.607-7.213-3.607-1.804c0-.569 0-1.234.095-1.898.38-2.468 1.898-4.746 4.081-6.075l12.53-7.214 6.264-3.607 3.133-1.803c.569-.285 1.044-.57 1.613-.949.38-.285 1.139-.285 1.709 0z"/><path d="m115.492 226.567c-.474 0-.854-.095-1.329-.285l-1.044-.474.285-.57 1.044.475c.759.379 1.614.285 2.278-.095l3.607-2.183c.19-.095.285-.285.285-.57 0-.19-.095-.379-.38-.474l-.759-.38.284-.57.76.38c.38.19.664.57.664 1.044 0 .475-.19.854-.569 1.044l-3.607 2.183c-.38.38-.949.475-1.519.475z"/></g></svg>