<svg width="20" height="13" viewBox="0 0 20 13" fill="none" xmlns="http://www.w3.org/2000/svg">
<path d="M3.35067 5.48135C2.46223 5.48206 1.61039 5.8353 0.982168 6.46352C0.353949 7.09174 0.000706229 7.94358 0 8.83202C0.000706229 9.72045 0.353949 10.5723 0.982168 11.2005C1.61039 11.8287 2.46223 12.182 3.35067 12.1827C5.184 12.1827 6.70133 10.6653 6.70133 8.83202C6.70063 7.94358 6.34738 7.09174 5.71917 6.46352C5.09095 5.8353 4.2391 5.48206 3.35067 5.48135ZM3.35067 10.602C3.11823 10.602 2.88806 10.5562 2.67332 10.4673C2.45857 10.3783 2.26345 10.248 2.09909 10.0836C1.93473 9.91924 1.80435 9.72411 1.7154 9.50937C1.62645 9.29462 1.58067 9.06446 1.58067 8.83202C1.58067 8.59958 1.62645 8.36941 1.7154 8.15467C1.80435 7.93992 1.93473 7.7448 2.09909 7.58044C2.26345 7.41608 2.45857 7.2857 2.67332 7.19675C2.88806 7.1078 3.11823 7.06202 3.35067 7.06202C3.58311 7.06202 3.81327 7.1078 4.02802 7.19675C4.24276 7.2857 4.43789 7.41608 4.60225 7.58044C4.76661 7.7448 4.89698 7.93992 4.98593 8.15467C5.07488 8.36941 5.12067 8.59958 5.12067 8.83202C5.12067 9.06446 5.07488 9.29462 4.98593 9.50937C4.89698 9.72411 4.76661 9.91924 4.60225 10.0836C4.43789 10.248 4.24276 10.3783 4.02802 10.4673C3.81327 10.5562 3.58311 10.602 3.35067 10.602ZM17.7653 5.95535L17.9867 5.57602C17.3926 5.22624 16.7161 5.04079 16.0267 5.03868C15.8367 5.03868 15.616 5.07002 15.426 5.10202L13.2447 0.676684L10.684 0.0446844C10.4313 -0.0819823 10.1147 0.0760177 10.02 0.360684C9.92533 0.645351 10.0513 0.92935 10.3047 1.05602L12.1067 1.87802L12.3913 2.41535C9.104 2.63668 7.808 4.37535 6.29067 3.68002C5.24733 3.11068 3.604 2.85802 2.592 2.73135C2.14933 2.66802 1.73867 3.01602 1.73867 3.49002C1.72504 3.69052 1.79 3.88846 1.9198 4.04189C2.04959 4.19533 2.23401 4.29221 2.434 4.31202C3.382 4.40668 4.74133 4.62802 5.532 5.07068C5.532 5.07068 7.74467 6.14535 7.776 9.14868C7.7752 9.21535 7.78773 9.28152 7.81288 9.34327C7.83802 9.40502 7.87526 9.46113 7.92241 9.50827C7.96956 9.55542 8.02566 9.59266 8.08741 9.61781C8.14917 9.64295 8.21533 9.65549 8.282 9.65468H10.3053C10.4105 9.65222 10.5123 9.61752 10.5971 9.55528C10.6819 9.49304 10.7455 9.40626 10.7793 9.30668C11.032 8.45335 11.7593 6.27202 13.3713 4.43868L13.972 5.60802C12.9287 6.30335 12.2333 7.47268 12.2333 8.80068H12.676C12.676 10.634 14.1933 12.1514 16.0267 12.1514C17.86 12.1514 19.4087 10.666 19.4087 8.83202C19.4105 8.25055 19.2597 7.67879 18.9712 7.17394C18.6827 6.6691 18.2666 6.24888 17.7647 5.95535H17.7653ZM16.0587 10.602C15.5891 10.602 15.1389 10.4155 14.8069 10.0835C14.4749 9.7515 14.2883 9.3012 14.2883 8.83168C14.2883 8.36216 14.4749 7.91187 14.8069 7.57987C15.1389 7.24787 15.5891 7.06135 16.0587 7.06135C16.5282 7.06135 16.9785 7.24787 17.3105 7.57987C17.6425 7.91187 17.829 8.36216 17.829 8.83168C17.829 9.3012 17.6425 9.7515 17.3105 10.0835C16.9785 10.4155 16.5282 10.602 16.0587 10.602ZM15.078 3.07868C15.1413 3.23668 15.2993 3.36335 15.4887 3.36335L16.2473 3.39468C16.3023 3.39706 16.357 3.38632 16.407 3.36335C16.457 3.34038 16.5008 3.30585 16.5349 3.26259C16.5689 3.21934 16.5921 3.16861 16.6026 3.11461C16.6131 3.0606 16.6106 3.00487 16.5953 2.95202L16.1527 1.24535C16.1436 1.18766 16.1199 1.13327 16.0837 1.08742C16.0476 1.04156 16.0002 1.0058 15.9463 0.983556C15.8923 0.961317 15.8335 0.953358 15.7755 0.960444C15.7175 0.967531 15.6624 0.989425 15.6153 1.02402L14.8567 1.62468C14.6987 1.75135 14.6353 1.97268 14.6987 2.16202L15.078 3.07868Z" fill="#CFBEEF"/>
</svg>
