<svg width="16" height="15" viewBox="0 0 16 15" fill="none" xmlns="http://www.w3.org/2000/svg">
<path d="M8.36929 9.4813C8.19929 9.6513 8.02928 9.6513 7.85928 9.6513C7.68928 9.6513 7.51928 9.56596 7.34928 9.4813L4.79862 7.01596C4.54328 6.76063 4.54328 6.25063 4.79862 5.99596C5.05395 5.7413 5.56395 5.74063 5.81862 5.99596L7.85928 7.9513L14.5753 1.65996C13.98 1.06463 13.13 0.554629 12.0246 0.384629C9.47395 -0.040704 7.85862 2.33996 7.85862 2.33996C7.85862 2.33996 6.32862 0.0446299 3.77795 0.469297C0.377285 0.979297 -0.728049 4.37996 0.462618 7.52596C1.65262 10.7566 5.90395 13.222 7.34928 13.9873C7.68928 14.1573 8.02929 14.1573 8.36929 13.9873C9.81462 13.222 14.0653 10.842 15.3406 7.4413C15.936 5.82596 15.936 4.21063 15.3406 2.85063L8.36929 9.48196V9.4813Z" fill="#CFBEEF"/>
</svg>
