<svg width="8" height="8" viewBox="0 0 8 8" fill="none" xmlns="http://www.w3.org/2000/svg">
<path d="M1.90763 4.35066L4.85669 1.26062C5.33927 0.754979 6.15768 0.717301 6.68467 1.17647C7.21166 1.63563 7.24767 2.41777 6.76509 2.92341L3.81603 6.01344L1.90763 4.35066Z" stroke="black" stroke-width="0.5"/>
<path d="M0.516448 7.34218C0.508146 7.36656 0.506572 7.39193 0.511887 7.41571C0.517201 7.4395 0.529214 7.46083 0.546697 7.47753C0.56418 7.49424 0.586507 7.50572 0.611396 7.51079C0.636285 7.51587 0.662844 7.51437 0.68836 7.50644L2.00695 7.10169C2.11913 7.06724 2.16393 6.93311 2.08748 6.86007L1.19293 6.00534C1.1166 5.9324 0.976219 5.97521 0.940155 6.08239L0.516436 7.3424L0.516448 7.34218Z" fill="black"/>
</svg>
