<svg width="12" height="12" viewBox="0 0 12 12" fill="none" xmlns="http://www.w3.org/2000/svg">
<path d="M0.921641 3.97849L1.06597 3.40541H0.416655C0.306151 3.40541 0.200173 3.36269 0.122035 3.28667C0.0438975 3.21064 0 3.10752 0 3C0 2.89248 0.0438975 2.78936 0.122035 2.71333C0.200173 2.63731 0.306151 2.59459 0.416655 2.59459H1.26996L1.53429 1.54476C1.64523 1.1041 1.90488 0.712401 2.2717 0.432337C2.63852 0.152272 3.0913 3.84516e-05 3.55757 0H8.32644C8.77912 3.71184e-05 9.21948 0.143544 9.58087 0.408805C9.94226 0.674066 10.205 1.04664 10.3294 1.47016L10.6594 2.59459H11.5833C11.6381 2.59459 11.6922 2.60508 11.7428 2.62545C11.7933 2.64583 11.8393 2.67569 11.878 2.71333C11.9167 2.75098 11.9473 2.79567 11.9683 2.84486C11.9892 2.89404 12 2.94676 12 3C12 3.05324 11.9892 3.10596 11.9683 3.15514C11.9473 3.20433 11.9167 3.24902 11.878 3.28667C11.8393 3.32431 11.7933 3.35417 11.7428 3.37455C11.6922 3.39492 11.6381 3.40541 11.5833 3.40541H10.8977L11.0644 3.9733C11.3384 4.06971 11.5752 4.24596 11.7426 4.47804C11.9099 4.71012 11.9997 4.98676 11.9997 5.27027V10.9459C11.9997 11.2255 11.8855 11.4936 11.6824 11.6913C11.4792 11.8889 11.2037 12 10.9164 12H9.74973C9.46242 12 9.18688 11.8889 8.98372 11.6913C8.78056 11.4936 8.66643 11.2255 8.66643 10.9459V9.89189H3.33324V10.9459C3.33324 11.2255 3.21911 11.4936 3.01595 11.6913C2.81279 11.8889 2.53725 12 2.24994 12H1.0833C0.795993 12 0.520451 11.8889 0.317292 11.6913C0.114133 11.4936 0 11.2255 0 10.9459V5.27027C3.45015e-05 4.98922 0.0883216 4.7149 0.253038 4.48403C0.417754 4.25316 0.651036 4.07677 0.921641 3.97849ZM2.3436 1.73773L1.80128 3.89189H10.1734L9.52774 1.69297C9.45312 1.43882 9.29544 1.21523 9.07857 1.05606C8.86169 0.896889 8.59742 0.810795 8.32577 0.810811H3.5579C3.27813 0.810837 3.00646 0.902187 2.78636 1.07024C2.56627 1.23829 2.41015 1.47333 2.3436 1.73773ZM1.41663 4.7027C1.26192 4.7027 1.11355 4.7625 1.00416 4.86894C0.894767 4.97538 0.83331 5.11974 0.83331 5.27027V9.08108H11.1664V5.27027C11.1664 5.11974 11.1049 4.97538 10.9955 4.86894C10.8861 4.7625 10.7377 4.7027 10.583 4.7027H1.41663ZM9.49974 10.9459C9.49974 11.0802 9.61173 11.1892 9.74973 11.1892H10.9164C10.9827 11.1892 11.0463 11.1636 11.0931 11.1179C11.14 11.0723 11.1664 11.0105 11.1664 10.9459V9.89189H9.49974V10.9459ZM0.83331 9.89189V10.9459C0.83331 11.0802 0.945307 11.1892 1.0833 11.1892H2.24994C2.31624 11.1892 2.37983 11.1636 2.42671 11.1179C2.47359 11.0723 2.49993 11.0105 2.49993 10.9459V9.89189H0.83331Z" fill="black"/>
</svg>
