<svg width="8" height="12" viewBox="0 0 8 12" fill="none" xmlns="http://www.w3.org/2000/svg">
<path d="M4.52174 0H0.695652C0.5 0 0.335145 0.0722656 0.201087 0.216797C0.067029 0.361328 0 0.539062 0 0.75V11.25C0 11.4609 0.067029 11.6387 0.201087 11.7832C0.335145 11.9277 0.5 12 0.695652 12H7.30435C7.5 12 7.66486 11.9277 7.79891 11.7832C7.93297 11.6387 8 11.4609 8 11.25V3.75L4.52174 0ZM7.30435 4.06641V4.125H4.17391V0.75H4.23913L7.30435 4.06641ZM0.695652 11.25V0.75H3.47826V4.875H7.30435V11.25H0.695652Z" fill="black"/>
</svg>
