<svg width="11" height="16" viewBox="0 0 11 16" fill="none" xmlns="http://www.w3.org/2000/svg">
<path d="M9.93056 5.2963C9.93056 4.14702 9.45974 3.04482 8.62169 2.23217C7.78364 1.41951 6.64699 0.962963 5.46181 0.962963C4.27662 0.962963 3.13998 1.41951 2.30192 2.23217C1.46387 3.04482 0.993056 4.14702 0.993056 5.2963C0.993056 7.07393 2.4598 9.39081 5.46181 12.1661C8.46381 9.39081 9.93056 7.07393 9.93056 5.2963ZM5.46181 13.4815C1.82027 10.2719 0 7.54289 0 5.2963C0 3.89163 0.575439 2.5445 1.59973 1.55125C2.62401 0.558001 4.01324 0 5.46181 0C6.91037 0 8.2996 0.558001 9.32389 1.55125C10.3482 2.5445 10.9236 3.89163 10.9236 5.2963C10.9236 7.54289 9.10334 10.2719 5.46181 13.4815Z" fill="black"/>
<ellipse cx="5.49999" cy="5.92592" rx="1.22222" ry="1.18518" fill="black"/>
<line y1="15" x2="11" y2="15" stroke="black" stroke-width="2"/>
</svg>
