<svg width="18" height="18" viewBox="0 0 18 18" fill="none" xmlns="http://www.w3.org/2000/svg">
<path d="M1.5 18H4.5V7.2H1.5V18ZM18 8.1C18 7.11 17.325 6.3 16.5 6.3H11.7675L12.48 2.187L12.5025 1.899C12.5025 1.53 12.375 1.188 12.1725 0.945L11.3775 0L6.4425 5.931C6.165 6.255 6 6.705 6 7.2V16.2C6 17.19 6.675 18 7.5 18H14.25C14.8725 18 15.405 17.55 15.63 16.902L17.895 10.557C17.9625 10.35 18 10.134 18 9.9V8.1Z" fill="#BCC7F8"/>
<line x1="1" y1="7.20001" x2="1" y2="18" stroke="#5D69DF" stroke-width="2"/>
<line x1="5" y1="7.20001" x2="5" y2="18" stroke="#5D69DF"/>
</svg>
