<svg width="32" height="20" viewBox="0 0 17 12" fill="none" xmlns="http://www.w3.org/2000/svg">
<rect y="1" width="14" height="11" rx="1" fill="#5E27C9"/>
<rect x="1" y="2" width="13" height="10" rx="1" fill="#9364ED"/>
<path d="M1.17697 2.15185C1.08391 1.54616 1.55257 1 2.16537 1H14.4004C14.878 1 15.2889 1.33769 15.3815 1.80621L16.7642 8.80621C16.8863 9.42435 16.4132 10 15.7831 10H3.24081C2.74717 10 2.32737 9.63978 2.25241 9.15185L1.17697 2.15185Z" fill="#ABE5FC"/>
<line x1="6.14796" y1="2.97534" x2="7.14796" y2="8.97534" stroke="#31C8F9" stroke-width="0.3"/>
<path d="M3.5 4.85L14 4.84998" stroke="#31C8F9" stroke-width="0.3"/>
<line x1="4" y1="6.85" x2="15" y2="6.85" stroke="#31C8F9" stroke-width="0.3"/>
<line x1="10.148" y1="2.97534" x2="11.148" y2="8.97534" stroke="#31C8F9" stroke-width="0.3"/>
<mask id="path-8-inside-1_249_3012" fill="white">
<path d="M3 1C3 0.823292 3.04682 0.649739 3.13571 0.497012C3.22459 0.344284 3.35235 0.217836 3.50599 0.130541C3.65963 0.0432465 3.83366 -0.00177732 4.01036 5.36846e-05C4.18706 0.00188469 4.36012 0.0505052 4.51192 0.140965C4.66372 0.231425 4.78883 0.360493 4.87453 0.51503C4.96023 0.669567 5.00345 0.844052 4.99979 1.02072C4.99612 1.19739 4.94571 1.36994 4.85368 1.52079C4.76166 1.67164 4.6313 1.79542 4.47588 1.87951L4.21751 1.40199C4.28855 1.36356 4.34813 1.30699 4.39019 1.23804C4.43225 1.16909 4.45529 1.09022 4.45697 1.00947C4.45864 0.928722 4.43889 0.84897 4.39972 0.778337C4.36055 0.707703 4.30336 0.64871 4.23398 0.607364C4.1646 0.566018 4.0855 0.543795 4.00474 0.542958C3.92397 0.542122 3.84443 0.5627 3.77421 0.6026C3.70398 0.642499 3.64559 0.700295 3.60496 0.770101C3.56434 0.839908 3.54293 0.919233 3.54293 1H3Z"/>
</mask>
<path d="M3 1C3 0.823292 3.04682 0.649739 3.13571 0.497012C3.22459 0.344284 3.35235 0.217836 3.50599 0.130541C3.65963 0.0432465 3.83366 -0.00177732 4.01036 5.36846e-05C4.18706 0.00188469 4.36012 0.0505052 4.51192 0.140965C4.66372 0.231425 4.78883 0.360493 4.87453 0.51503C4.96023 0.669567 5.00345 0.844052 4.99979 1.02072C4.99612 1.19739 4.94571 1.36994 4.85368 1.52079C4.76166 1.67164 4.6313 1.79542 4.47588 1.87951L4.21751 1.40199C4.28855 1.36356 4.34813 1.30699 4.39019 1.23804C4.43225 1.16909 4.45529 1.09022 4.45697 1.00947C4.45864 0.928722 4.43889 0.84897 4.39972 0.778337C4.36055 0.707703 4.30336 0.64871 4.23398 0.607364C4.1646 0.566018 4.0855 0.543795 4.00474 0.542958C3.92397 0.542122 3.84443 0.5627 3.77421 0.6026C3.70398 0.642499 3.64559 0.700295 3.60496 0.770101C3.56434 0.839908 3.54293 0.919233 3.54293 1H3Z" stroke="#7C47E1" stroke-width="10" mask="url(#path-8-inside-1_249_3012)"/>
<mask id="path-9-inside-2_249_3012" fill="white">
<path d="M6 1C6 0.823292 6.04682 0.649739 6.13571 0.497012C6.22459 0.344284 6.35235 0.217836 6.50599 0.130541C6.65963 0.0432465 6.83366 -0.00177732 7.01036 5.36846e-05C7.18706 0.00188469 7.36012 0.0505052 7.51192 0.140965C7.66372 0.231425 7.78883 0.360493 7.87453 0.51503C7.96023 0.669567 8.00345 0.844052 7.99979 1.02072C7.99612 1.19739 7.94571 1.36994 7.85368 1.52079C7.76166 1.67164 7.6313 1.79542 7.47588 1.87951L7.21751 1.40199C7.28855 1.36356 7.34813 1.30699 7.39019 1.23804C7.43225 1.16909 7.45529 1.09022 7.45697 1.00947C7.45864 0.928722 7.43889 0.84897 7.39972 0.778337C7.36055 0.707703 7.30336 0.64871 7.23398 0.607364C7.1646 0.566018 7.0855 0.543795 7.00474 0.542958C6.92397 0.542122 6.84443 0.5627 6.77421 0.6026C6.70398 0.642499 6.64559 0.700295 6.60496 0.770101C6.56434 0.839908 6.54293 0.919233 6.54293 1H6Z"/>
</mask>
<path d="M6 1C6 0.823292 6.04682 0.649739 6.13571 0.497012C6.22459 0.344284 6.35235 0.217836 6.50599 0.130541C6.65963 0.0432465 6.83366 -0.00177732 7.01036 5.36846e-05C7.18706 0.00188469 7.36012 0.0505052 7.51192 0.140965C7.66372 0.231425 7.78883 0.360493 7.87453 0.51503C7.96023 0.669567 8.00345 0.844052 7.99979 1.02072C7.99612 1.19739 7.94571 1.36994 7.85368 1.52079C7.76166 1.67164 7.6313 1.79542 7.47588 1.87951L7.21751 1.40199C7.28855 1.36356 7.34813 1.30699 7.39019 1.23804C7.43225 1.16909 7.45529 1.09022 7.45697 1.00947C7.45864 0.928722 7.43889 0.84897 7.39972 0.778337C7.36055 0.707703 7.30336 0.64871 7.23398 0.607364C7.1646 0.566018 7.0855 0.543795 7.00474 0.542958C6.92397 0.542122 6.84443 0.5627 6.77421 0.6026C6.70398 0.642499 6.64559 0.700295 6.60496 0.770101C6.56434 0.839908 6.54293 0.919233 6.54293 1H6Z" stroke="#7C47E1" stroke-width="10" mask="url(#path-9-inside-2_249_3012)"/>
<mask id="path-10-inside-3_249_3012" fill="white">
<path d="M9 1C9 0.823292 9.04682 0.649739 9.13571 0.497012C9.22459 0.344284 9.35235 0.217836 9.50599 0.130541C9.65963 0.0432465 9.83366 -0.00177732 10.0104 5.36846e-05C10.1871 0.00188469 10.3601 0.0505052 10.5119 0.140965C10.6637 0.231425 10.7888 0.360493 10.8745 0.51503C10.9602 0.669567 11.0034 0.844052 10.9998 1.02072C10.9961 1.19739 10.9457 1.36994 10.8537 1.52079C10.7617 1.67164 10.6313 1.79542 10.4759 1.87951L10.2175 1.40199C10.2885 1.36356 10.3481 1.30699 10.3902 1.23804C10.4323 1.16909 10.4553 1.09022 10.457 1.00947C10.4586 0.928722 10.4389 0.84897 10.3997 0.778337C10.3605 0.707703 10.3034 0.64871 10.234 0.607364C10.1646 0.566018 10.0855 0.543795 10.0047 0.542958C9.92397 0.542122 9.84443 0.5627 9.77421 0.6026C9.70398 0.642499 9.64559 0.700295 9.60496 0.770101C9.56434 0.839908 9.54293 0.919233 9.54293 1H9Z"/>
</mask>
<path d="M9 1C9 0.823292 9.04682 0.649739 9.13571 0.497012C9.22459 0.344284 9.35235 0.217836 9.50599 0.130541C9.65963 0.0432465 9.83366 -0.00177732 10.0104 5.36846e-05C10.1871 0.00188469 10.3601 0.0505052 10.5119 0.140965C10.6637 0.231425 10.7888 0.360493 10.8745 0.51503C10.9602 0.669567 11.0034 0.844052 10.9998 1.02072C10.9961 1.19739 10.9457 1.36994 10.8537 1.52079C10.7617 1.67164 10.6313 1.79542 10.4759 1.87951L10.2175 1.40199C10.2885 1.36356 10.3481 1.30699 10.3902 1.23804C10.4323 1.16909 10.4553 1.09022 10.457 1.00947C10.4586 0.928722 10.4389 0.84897 10.3997 0.778337C10.3605 0.707703 10.3034 0.64871 10.234 0.607364C10.1646 0.566018 10.0855 0.543795 10.0047 0.542958C9.92397 0.542122 9.84443 0.5627 9.77421 0.6026C9.70398 0.642499 9.64559 0.700295 9.60496 0.770101C9.56434 0.839908 9.54293 0.919233 9.54293 1H9Z" stroke="#7C47E1" stroke-width="10" mask="url(#path-10-inside-3_249_3012)"/>
<mask id="path-11-inside-4_249_3012" fill="white">
<path d="M12 1C12 0.823292 12.0468 0.649739 12.1357 0.497012C12.2246 0.344284 12.3524 0.217836 12.506 0.130541C12.6596 0.0432465 12.8337 -0.00177732 13.0104 5.36846e-05C13.1871 0.00188469 13.3601 0.0505052 13.5119 0.140965C13.6637 0.231425 13.7888 0.360493 13.8745 0.51503C13.9602 0.669567 14.0034 0.844052 13.9998 1.02072C13.9961 1.19739 13.9457 1.36994 13.8537 1.52079C13.7617 1.67164 13.6313 1.79542 13.4759 1.87951L13.2175 1.40199C13.2885 1.36356 13.3481 1.30699 13.3902 1.23804C13.4323 1.16909 13.4553 1.09022 13.457 1.00947C13.4586 0.928722 13.4389 0.84897 13.3997 0.778337C13.3605 0.707703 13.3034 0.64871 13.234 0.607364C13.1646 0.566018 13.0855 0.543795 13.0047 0.542958C12.924 0.542122 12.8444 0.5627 12.7742 0.6026C12.704 0.642499 12.6456 0.700295 12.605 0.770101C12.5643 0.839908 12.5429 0.919233 12.5429 1H12Z"/>
</mask>
<path d="M12 1C12 0.823292 12.0468 0.649739 12.1357 0.497012C12.2246 0.344284 12.3524 0.217836 12.506 0.130541C12.6596 0.0432465 12.8337 -0.00177732 13.0104 5.36846e-05C13.1871 0.00188469 13.3601 0.0505052 13.5119 0.140965C13.6637 0.231425 13.7888 0.360493 13.8745 0.51503C13.9602 0.669567 14.0034 0.844052 13.9998 1.02072C13.9961 1.19739 13.9457 1.36994 13.8537 1.52079C13.7617 1.67164 13.6313 1.79542 13.4759 1.87951L13.2175 1.40199C13.2885 1.36356 13.3481 1.30699 13.3902 1.23804C13.4323 1.16909 13.4553 1.09022 13.457 1.00947C13.4586 0.928722 13.4389 0.84897 13.3997 0.778337C13.3605 0.707703 13.3034 0.64871 13.234 0.607364C13.1646 0.566018 13.0855 0.543795 13.0047 0.542958C12.924 0.542122 12.8444 0.5627 12.7742 0.6026C12.704 0.642499 12.6456 0.700295 12.605 0.770101C12.5643 0.839908 12.5429 0.919233 12.5429 1H12Z" stroke="#7C47E1" stroke-width="10" mask="url(#path-11-inside-4_249_3012)"/>
</svg>
