<svg width="19" height="19" viewBox="0 0 19 19" fill="none" xmlns="http://www.w3.org/2000/svg">
<rect x="2.63752" width="11.2095" height="15.8251" rx="1" fill="#C9EEFD"/>
<rect y="3.62659" width="11.2095" height="4.94535" rx="1" fill="#37C87E"/>
<path d="M4.18908 6.16449C4.1715 6.31488 4.11584 6.43109 4.02209 6.51312C3.92899 6.5945 3.80496 6.63519 3.65002 6.63519C3.48205 6.63519 3.34728 6.57497 3.24572 6.45453C3.14481 6.33409 3.09435 6.17295 3.09435 5.97113V5.83441C3.09435 5.70225 3.11779 5.58604 3.16467 5.48578C3.21219 5.38552 3.27925 5.3087 3.36584 5.25531C3.45243 5.20127 3.55269 5.17426 3.66662 5.17426C3.81766 5.17426 3.93875 5.21657 4.0299 5.30121C4.12105 5.38519 4.17411 5.50173 4.18908 5.65082H4.0006C3.98433 5.53754 3.94884 5.45551 3.89416 5.40472C3.84012 5.35394 3.76427 5.32855 3.66662 5.32855C3.54683 5.32855 3.45275 5.37282 3.38439 5.46136C3.31668 5.54991 3.28283 5.67588 3.28283 5.83929V5.97699C3.28283 6.13129 3.31506 6.25401 3.37951 6.34515C3.44396 6.4363 3.53413 6.48187 3.65002 6.48187C3.75418 6.48187 3.83394 6.45844 3.88927 6.41156C3.94526 6.36403 3.98237 6.28168 4.0006 6.16449H4.18908ZM4.61388 6.61566H4.43322V5.11566H4.61388V6.61566ZM5.55627 6.61566C5.54585 6.59483 5.53739 6.55772 5.53088 6.50433C5.44689 6.59157 5.34663 6.63519 5.23009 6.63519C5.12593 6.63519 5.04032 6.6059 4.97326 6.5473C4.90685 6.48806 4.87365 6.41319 4.87365 6.32269C4.87365 6.21267 4.91532 6.12738 4.99865 6.06683C5.08263 6.00564 5.20047 5.97504 5.35217 5.97504H5.52795V5.89203C5.52795 5.82888 5.50907 5.77875 5.47131 5.74164C5.43355 5.70388 5.37788 5.685 5.30431 5.685C5.23986 5.685 5.18582 5.70127 5.1422 5.73383C5.09858 5.76638 5.07677 5.80577 5.07677 5.85199H4.89513C4.89513 5.79926 4.91369 5.74847 4.9508 5.69965C4.98856 5.65017 5.03934 5.6111 5.10314 5.58246C5.16759 5.55381 5.23823 5.53949 5.31506 5.53949C5.4368 5.53949 5.53218 5.57009 5.60119 5.63129C5.6702 5.69183 5.70601 5.77549 5.70861 5.88226V6.36859C5.70861 6.4656 5.72098 6.54274 5.74572 6.60004V6.61566H5.55627ZM5.25646 6.47797C5.3131 6.47797 5.36681 6.46332 5.41759 6.43402C5.46838 6.40472 5.50516 6.36664 5.52795 6.31976V6.10297H5.38634C5.16499 6.10297 5.05431 6.16774 5.05431 6.2973C5.05431 6.35394 5.07319 6.39821 5.11095 6.43011C5.14871 6.46202 5.19722 6.47797 5.25646 6.47797ZM6.1881 6.61566H6.00744V5.55902H6.1881V6.61566ZM5.99279 5.27875C5.99279 5.24945 6.00158 5.22471 6.01916 5.20453C6.03739 5.18435 6.06408 5.17426 6.09924 5.17426C6.13439 5.17426 6.16108 5.18435 6.17931 5.20453C6.19754 5.22471 6.20666 5.24945 6.20666 5.27875C6.20666 5.30804 6.19754 5.33246 6.17931 5.35199C6.16108 5.37152 6.13439 5.38129 6.09924 5.38129C6.06408 5.38129 6.03739 5.37152 6.01916 5.35199C6.00158 5.33246 5.99279 5.30804 5.99279 5.27875ZM6.64806 5.55902L6.65295 5.67621C6.73042 5.58506 6.83491 5.53949 6.96642 5.53949C7.11421 5.53949 7.2148 5.59613 7.26818 5.70941C7.30334 5.65863 7.34891 5.61761 7.4049 5.58636C7.46154 5.55511 7.52827 5.53949 7.60509 5.53949C7.83687 5.53949 7.9547 5.66221 7.95861 5.90765V6.61566H7.77795V5.9184C7.77795 5.84288 7.76069 5.78656 7.72619 5.74945C7.69168 5.71169 7.63374 5.69281 7.55236 5.69281C7.4853 5.69281 7.42964 5.71299 7.38537 5.75336C7.3411 5.79307 7.31538 5.84678 7.30822 5.91449V6.61566H7.12658V5.92328C7.12658 5.76963 7.05138 5.69281 6.90099 5.69281C6.7825 5.69281 6.70145 5.74327 6.65783 5.84418V6.61566H6.47717V5.55902H6.64806Z" fill="white"/>
<path d="M14.4399 15.6807C13.5469 15.4349 13.4494 15.4136 13.0459 15.0679C12.6585 14.7356 11.6991 14.2154 11.4227 14.057C11.19 13.9235 10.6414 13.5305 10.6292 13.2946C10.6209 13.1399 10.6196 13.0529 10.8418 12.925C10.9868 12.8412 11.6908 12.8604 12.1898 13.0827C12.2451 13.1073 12.3066 13.0532 12.287 12.9978C12.2796 12.9773 12.2704 12.9534 12.2571 12.925C12.1616 12.7165 11.2941 11.1812 11.1262 10.7701C10.9583 10.3591 10.6333 9.41556 10.7355 9.25569C10.8099 9.13946 10.8469 9.0958 11.0544 9.1494C11.2729 9.20585 12.1291 10.4038 13.0965 12.0872C13.2306 12.3302 13.3199 12.3523 13.4014 12.2046C13.4592 12.0998 13.6699 11.9611 13.835 11.9592C13.9815 11.958 14.0888 11.9783 14.1823 11.8954C14.311 11.7805 14.5614 11.6154 14.7819 11.6626C14.9113 11.6901 15.032 11.6607 15.1818 11.5742C15.3317 11.4878 15.7188 11.3692 15.9638 11.8114C16.2591 12.3448 16.6526 12.8621 16.7642 13.3935C16.8271 13.6929 16.8624 13.9249 17.011 14.1941C17.1335 14.4159 17.2772 14.632 17.4192 14.8892C17.6192 15.2513 17.6868 15.5034 17.2797 15.8026C16.8726 16.1018 15.943 16.6337 15.5713 16.746C15.1995 16.8582 15.1004 16.6317 14.999 16.448C14.7899 16.0694 14.6579 15.7405 14.4399 15.6807Z" fill="#9364ED"/>
<path d="M15.5025 17.5916C15.2812 17.1212 15.4572 16.5597 15.9074 16.2998L16.9215 15.7143C17.3716 15.4544 17.9459 15.5828 18.2426 16.0096L19 17.0993L16.0675 18.7924L15.5025 17.5916Z" fill="#70D4F9"/>
</svg>
