<svg width="12" height="12" viewBox="0 0 10 10" fill="none" xmlns="http://www.w3.org/2000/svg">
<path d="M5.02 0C2.29 0 0.0649997 2.225 0.0649997 4.955C0.0649997 5.83 0.295 6.68 0.725 7.43L0.0249996 10L2.65 9.31C3.375 9.705 4.19 9.915 5.02 9.915C7.75 9.915 9.975 7.69 9.975 4.96C9.975 3.635 9.46 2.39 8.525 1.455C7.59 0.515 6.345 0 5.02 0ZM5.025 0.835C6.125 0.835 7.155 1.265 7.935 2.045C8.71 2.825 9.14 3.86 9.14 4.96C9.14 7.23 7.29 9.075 5.02 9.075C4.28 9.075 3.555 8.88 2.925 8.5L2.775 8.415L1.215 8.825L1.63 7.305L1.53 7.145C1.12 6.5 0.9 5.735 0.9 4.955C0.905 2.685 2.75 0.835 5.025 0.835ZM3.265 2.665C3.185 2.665 3.05 2.695 2.935 2.82C2.825 2.945 2.5 3.25 2.5 3.855C2.5 4.465 2.945 5.05 3 5.135C3.07 5.22 3.88 6.47 5.125 7C5.42 7.135 5.65 7.21 5.83 7.265C6.125 7.36 6.395 7.345 6.61 7.315C6.85 7.28 7.34 7.015 7.445 6.725C7.55 6.435 7.55 6.19 7.52 6.135C7.485 6.085 7.405 6.055 7.28 6C7.155 5.93 6.545 5.63 6.435 5.59C6.32 5.55 6.25 5.53 6.155 5.65C6.075 5.775 5.835 6.055 5.765 6.135C5.69 6.22 5.62 6.23 5.5 6.17C5.37 6.105 4.97 5.975 4.5 5.555C4.13 5.225 3.885 4.82 3.81 4.695C3.75 4.575 3.805 4.5 3.865 4.445C3.92 4.39 4 4.3 4.05 4.225C4.115 4.155 4.135 4.1 4.175 4.02C4.215 3.935 4.195 3.865 4.165 3.805C4.135 3.75 3.885 3.13 3.78 2.885C3.68 2.645 3.58 2.675 3.5 2.67C3.43 2.67 3.35 2.665 3.265 2.665Z" fill="black"/>
</svg>
