<svg width="80" height="16" viewBox="0 0 80 16" fill="none" xmlns="http://www.w3.org/2000/svg">
<path d="M7.2131 16L0.196075 0H7.2131V16Z" fill="#F28301"/>
<path d="M7.21311 0L0 16H7.21311V0Z" fill="#F28301"/>
<path d="M72.7869 0H7.2131V16H72.7869V0Z" fill="url(#paint0_linear_249_5559)"/>
<path d="M14.2879 10.9091H15.2382V8.7784H16.2064L17.2362 10.9091H18.2966L17.1619 8.60226C17.7792 8.32669 18.1045 7.74146 18.1045 6.9517C18.1045 5.84091 17.459 5.09091 16.2551 5.09091H14.2879V10.9091ZM15.2382 7.90342V5.9716H16.1091C16.8186 5.9716 17.1363 6.33239 17.1363 6.9517C17.1363 7.57106 16.8186 7.90342 16.1142 7.90342H15.2382ZM20.6237 10.9943C21.5407 10.9943 22.1708 10.4972 22.3348 9.73862L21.469 9.63069C21.3435 10 21.0361 10.1932 20.6365 10.1932C20.0371 10.1932 19.6401 9.75571 19.6325 9.00851H22.3732V8.69317C22.3732 7.16194 21.5433 6.48864 20.5751 6.48864C19.448 6.48864 18.7129 7.40626 18.7129 8.75288C18.7129 10.1222 19.4378 10.9943 20.6237 10.9943ZM19.635 8.31535C19.6631 7.75855 20.0346 7.28975 20.5879 7.28975C21.1207 7.28975 21.4793 7.7216 21.4844 8.31535H19.635ZM24.8738 10.9943C25.8626 10.9943 26.4927 10.3438 26.5593 9.4176H25.673C25.5936 9.8864 25.2888 10.1562 24.8815 10.1562C24.3026 10.1562 23.9287 9.61935 23.9287 8.72728C23.9287 7.84662 24.3103 7.31818 24.8815 7.31818C25.3272 7.31818 25.6013 7.63637 25.673 8.0568H26.5593C26.4953 7.1108 25.8292 6.48864 24.8687 6.48864C23.7161 6.48864 22.9886 7.41193 22.9886 8.74429C22.9886 10.0653 23.6981 10.9943 24.8738 10.9943ZM29.0369 10.9943C30.1896 10.9943 30.9222 10.0937 30.9222 8.74429C30.9222 7.39208 30.1896 6.48864 29.0369 6.48864C27.8842 6.48864 27.1517 7.39208 27.1517 8.74429C27.1517 10.0937 27.8842 10.9943 29.0369 10.9943ZM29.042 10.1705C28.4042 10.1705 28.0917 9.53978 28.0917 8.74146C28.0917 7.9432 28.4042 7.304 29.042 7.304C29.6696 7.304 29.9821 7.9432 29.9821 8.74146C29.9821 9.53978 29.6696 10.1705 29.042 10.1705ZM31.7091 10.9091H32.6364V8.25571C32.6364 7.71877 32.9591 7.35513 33.3588 7.35513C33.7506 7.35513 34.0196 7.64771 34.0196 8.09658V10.9091H34.9289V8.18749C34.9289 7.696 35.1927 7.35513 35.641 7.35513C36.015 7.35513 36.3121 7.59942 36.3121 8.1392V10.9091H37.2419V7.98015C37.2419 7.00568 36.7348 6.48864 36.0124 6.48864C35.4412 6.48864 35.0058 6.80114 34.8316 7.28691H34.7906C34.6395 6.79261 34.2578 6.48864 33.7276 6.48864C33.1999 6.48864 32.8054 6.78978 32.6415 7.28691H32.5954V6.54546H31.7091V10.9091ZM38.1826 10.9091H39.1099V8.25571C39.1099 7.71877 39.4327 7.35513 39.8322 7.35513C40.2241 7.35513 40.4931 7.64771 40.4931 8.09658V10.9091H41.4024V8.18749C41.4024 7.696 41.6662 7.35513 42.1145 7.35513C42.4885 7.35513 42.7856 7.59942 42.7856 8.1392V10.9091H43.7154V7.98015C43.7154 7.00568 43.2083 6.48864 42.4859 6.48864C41.9147 6.48864 41.4793 6.80114 41.305 7.28691H41.2641C41.113 6.79261 40.7313 6.48864 40.201 6.48864C39.6734 6.48864 39.2789 6.78978 39.115 7.28691H39.0689V6.54546H38.1826V10.9091ZM46.3979 10.9943C47.3149 10.9943 47.945 10.4972 48.109 9.73862L47.2432 9.63069C47.1177 10 46.8103 10.1932 46.4108 10.1932C45.8113 10.1932 45.4143 9.75571 45.4066 9.00851H48.1474V8.69317C48.1474 7.16194 47.3175 6.48864 46.3492 6.48864C45.2222 6.48864 44.4871 7.40626 44.4871 8.75288C44.4871 10.1222 45.2119 10.9943 46.3979 10.9943ZM45.4092 8.31535C45.4374 7.75855 45.8088 7.28975 46.362 7.28975C46.8948 7.28975 47.2534 7.7216 47.2586 8.31535H45.4092ZM49.8591 8.35229C49.8591 7.7216 50.2024 7.35797 50.6916 7.35797C51.1706 7.35797 51.4575 7.70742 51.4575 8.28975V10.9091H52.3847V8.13069C52.3873 7.08523 51.8494 6.48864 51.0374 6.48864C50.4483 6.48864 50.0435 6.80114 49.8643 7.28691H49.8182V6.54546H48.9319V10.9091H49.8591V8.35229ZM54.7874 10.9858C55.4636 10.9858 55.7685 10.5398 55.9144 10.2216H55.9708V10.9091H56.8827V5.09091H55.9529V7.26705H55.9144C55.7736 6.9517 55.4841 6.48864 54.79 6.48864C53.8807 6.48864 53.166 7.2784 53.166 8.73295C53.166 10.1705 53.8601 10.9858 54.7874 10.9858ZM55.0461 10.142C54.4339 10.142 54.1111 9.54546 54.1111 8.72728C54.1111 7.91477 54.4288 7.33237 55.0461 7.33237C55.6429 7.33237 55.9708 7.88066 55.9708 8.72728C55.9708 9.57389 55.6378 10.142 55.0461 10.142ZM59.6126 10.9943C60.5296 10.9943 61.1597 10.4972 61.3237 9.73862L60.4578 9.63069C60.3323 10 60.025 10.1932 59.6254 10.1932C59.026 10.1932 58.629 9.75571 58.6213 9.00851H61.362V8.69317C61.362 7.16194 60.5321 6.48864 59.5639 6.48864C58.4368 6.48864 57.7017 7.40626 57.7017 8.75288C57.7017 10.1222 58.4266 10.9943 59.6126 10.9943ZM58.6239 8.31535C58.652 7.75855 59.0234 7.28975 59.5767 7.28975C60.1095 7.28975 60.4681 7.7216 60.4732 8.31535H58.6239ZM63.6066 10.9858C64.2828 10.9858 64.5876 10.5398 64.7336 10.2216H64.79V10.9091H65.7016V5.09091H64.772V7.26705H64.7336C64.5927 6.9517 64.3033 6.48864 63.6091 6.48864C62.6998 6.48864 61.9851 7.2784 61.9851 8.73295C61.9851 10.1705 62.6793 10.9858 63.6066 10.9858ZM63.8652 10.142C63.253 10.142 62.9304 9.54546 62.9304 8.72728C62.9304 7.91477 63.2479 7.33237 63.8652 7.33237C64.4621 7.33237 64.79 7.88066 64.79 8.72728C64.79 9.57389 64.457 10.142 63.8652 10.142Z" fill="white"/>
<path d="M72.7869 0.0454407L79.8039 15.9545H72.7869V0.0454407Z" fill="#F2AA01"/>
<path d="M72.7869 15.9545L80 0.0454407H72.7869V15.9545Z" fill="#F2AA01"/>
<defs>
<linearGradient id="paint0_linear_249_5559" x1="7.55463" y1="8.88887" x2="72.7878" y2="9.15132" gradientUnits="userSpaceOnUse">
<stop stop-color="#F28300"/>
<stop offset="1" stop-color="#F2AA00"/>
</linearGradient>
</defs>
</svg>
