<svg width="24" height="24" viewBox="0 0 24 24" fill="none" xmlns="http://www.w3.org/2000/svg">
<g filter="url(#filter0_d_331_2059)">
<circle cx="12" cy="11" r="8" fill="white"/>
</g>
<path d="M12.7686 13.5493C12.7034 13.4741 12.6667 13.3721 12.6667 13.2658C12.6667 13.1595 12.7034 13.0575 12.7686 12.9823L14.4927 10.9976L12.7686 9.01283C12.7052 8.93721 12.6701 8.83593 12.6709 8.7308C12.6717 8.62567 12.7083 8.5251 12.7729 8.45076C12.8375 8.37642 12.9248 8.33425 13.0161 8.33334C13.1075 8.33242 13.1954 8.37284 13.2611 8.44588L15.2314 10.7141C15.2967 10.7893 15.3333 10.8912 15.3333 10.9976C15.3333 11.1039 15.2967 11.2059 15.2314 11.281L13.2611 13.5493C13.1958 13.6244 13.1072 13.6667 13.0149 13.6667C12.9225 13.6667 12.834 13.6244 12.7686 13.5493Z" fill="#4C36C9"/>
<path d="M11.2314 13.5493C11.2966 13.4741 11.3333 13.3721 11.3333 13.2658C11.3333 13.1595 11.2966 13.0575 11.2314 12.9823L9.50735 10.9976L11.2314 9.01283C11.2948 8.93721 11.3299 8.83593 11.3291 8.7308C11.3283 8.62567 11.2917 8.5251 11.2271 8.45076C11.1625 8.37642 11.0752 8.33425 10.9839 8.33334C10.8925 8.33242 10.8046 8.37284 10.7389 8.44588L8.76864 10.7141C8.70334 10.7893 8.66666 10.8912 8.66666 10.9976C8.66666 11.1039 8.70334 11.2059 8.76864 11.281L10.7389 13.5493C10.8042 13.6244 10.8928 13.6667 10.9851 13.6667C11.0775 13.6667 11.166 13.6244 11.2314 13.5493Z" fill="#4C36C9"/>
<defs>
<filter id="filter0_d_331_2059" x="0" y="0" width="24" height="24" filterUnits="userSpaceOnUse" color-interpolation-filters="sRGB">
<feFlood flood-opacity="0" result="BackgroundImageFix"/>
<feColorMatrix in="SourceAlpha" type="matrix" values="0 0 0 0 0 0 0 0 0 0 0 0 0 0 0 0 0 0 127 0" result="hardAlpha"/>
<feOffset dy="1"/>
<feGaussianBlur stdDeviation="2"/>
<feComposite in2="hardAlpha" operator="out"/>
<feColorMatrix type="matrix" values="0 0 0 0 0 0 0 0 0 0 0 0 0 0 0 0 0 0 0.11 0"/>
<feBlend mode="normal" in2="BackgroundImageFix" result="effect1_dropShadow_331_2059"/>
<feBlend mode="normal" in="SourceGraphic" in2="effect1_dropShadow_331_2059" result="shape"/>
</filter>
</defs>
</svg>
