<svg width="22" height="20" viewBox="0 0 22 20" fill="none" xmlns="http://www.w3.org/2000/svg">
<rect width="16.7619" height="19.5556" rx="1" fill="#A892F7"/>
<path d="M9.71612 10.7577C9.67836 10.6362 9.67174 10.5056 9.69665 10.3733C9.72155 10.2411 9.77749 10.1098 9.86126 9.98691C9.94504 9.86407 10.055 9.75208 10.1849 9.65734C10.3148 9.5626 10.4621 9.48696 10.6183 9.43475C10.7746 9.38254 10.9367 9.35477 11.0955 9.35303C11.2543 9.3513 11.4066 9.37563 11.5438 9.42464C11.681 9.47365 11.8003 9.54637 11.895 9.63866C11.9897 9.73095 12.0578 9.84099 12.0956 9.96251L13.2458 13.6639C13.322 13.9093 13.2698 14.1866 13.1006 14.4347C12.9314 14.6828 12.6591 14.8814 12.3436 14.9868C12.028 15.0923 11.6951 15.0959 11.4181 14.997C11.141 14.898 10.9426 14.7045 10.8663 14.4591L9.71612 10.7577Z" fill="#FFDA12"/>
<path d="M12.8066 9.86854L13.8327 13.2232C13.9028 13.4529 14.0409 13.6552 14.2315 13.8075C14.4222 13.9598 14.6577 14.056 14.9119 14.0854L14.9501 14.0898C15.3743 14.1388 15.8114 14.0933 16.2271 13.9567L19.8556 12.7631C20.1655 12.6613 20.4356 12.4636 20.6198 12.2036C20.8041 11.9437 20.8912 11.6375 20.8662 11.3373L20.5364 7.36605C20.5204 7.17402 20.4591 6.99063 20.3568 6.82908C20.2546 6.66754 20.1139 6.53187 19.945 6.43185C19.7761 6.33183 19.5831 6.26995 19.3801 6.25068C19.177 6.23141 18.9688 6.25523 18.7706 6.32041L16.3855 7.10495L15.6297 4.63373C15.5294 4.30602 15.2921 4.03817 14.97 3.88911C14.6478 3.74004 14.2672 3.72197 13.9118 3.83887C13.7341 3.89731 13.5836 4.01846 13.4934 4.17565C13.4032 4.33283 13.3807 4.51319 13.4308 4.67705L13.5569 5.08912C13.7204 5.62382 13.6915 6.20596 13.4744 6.74816L12.8891 8.20951C12.672 8.7517 12.643 9.33384 12.8066 9.86854V9.86854Z" fill="#70D4F9"/>
<line x1="3.64284" y1="4.38892" x2="11.0238" y2="4.38892" stroke="#9364ED" stroke-linecap="round"/>
<line x1="3.64284" y1="8.73462" x2="6.83332" y2="8.73462" stroke="#9364ED" stroke-linecap="round"/>
<line x1="3.64284" y1="13.0802" x2="6.83332" y2="13.0802" stroke="#9364ED" stroke-linecap="round"/>
</svg>
