<svg width="20" height="16" viewBox="0 0 20 16" fill="none" xmlns="http://www.w3.org/2000/svg">
<path d="M3.42265 3.98095C3.46949 3.98095 3.51497 3.98632 3.55851 3.99627C3.54856 3.95626 3.54352 3.91535 3.54349 3.8743C3.54349 3.57411 3.80624 3.33075 4.13037 3.33075C4.24869 3.3306 4.36427 3.36373 4.46181 3.42576C4.5719 3.0329 4.95734 2.74283 5.41596 2.74283C5.96035 2.74283 6.40168 3.15157 6.40168 3.65577C6.81098 3.65577 7.14279 3.96307 7.14279 4.34215C7.14279 4.72123 6.81099 5.02854 6.40168 5.02854H3.42265C3.1103 5.02854 2.85709 4.79403 2.85709 4.50474C2.85709 4.21546 3.1103 3.98095 3.42265 3.98095Z" fill="#B0E9FF"/>
<path d="M15.0199 8.51436C15.0511 8.51436 15.0814 8.51758 15.1104 8.52355C15.1038 8.49955 15.1004 8.475 15.1004 8.45037C15.1004 8.27025 15.2756 8.12424 15.4917 8.12424C15.5706 8.12415 15.6476 8.14403 15.7126 8.18124C15.786 7.94553 16.043 7.77148 16.3487 7.77148C16.7117 7.77148 17.0059 8.01673 17.0059 8.31925C17.2787 8.31925 17.5 8.50363 17.5 8.73108C17.5 8.95852 17.2788 9.14291 17.0059 9.14291H15.0199C14.8116 9.14291 14.6428 9.0022 14.6428 8.82863C14.6428 8.65506 14.8116 8.51436 15.0199 8.51436Z" fill="#B0E9FF"/>
<path d="M6.29731 11.9697C7.31583 11.3178 8.49978 10.9714 9.70904 10.9714C10.835 10.9714 11.9405 11.2718 12.9117 11.8415L20 16H0L6.29731 11.9697Z" fill="#85E675"/>
<path d="M10 0C8.9585 0.00157278 7.95996 0.531871 7.22348 1.47457C6.487 2.41727 6.07271 3.69539 6.07148 5.02856C6.07023 6.11803 6.34825 7.17794 6.8629 8.0457C6.8629 8.0457 6.97005 8.22627 6.98755 8.25233L9.13338 11.9801C9.51799 12.6483 10.4821 12.6483 10.8667 11.9801L13.014 8.25004C13.0297 8.22581 13.1372 8.0457 13.1372 8.0457L13.1375 8.04433C13.6519 7.17695 13.9298 6.11753 13.9286 5.02856C13.9274 3.69539 13.5131 2.41727 12.7766 1.47457C12.0401 0.531871 11.0416 0.00157278 10 0ZM10 6.85713C9.71749 6.85713 9.4413 6.74988 9.20637 6.54896C8.97144 6.34803 8.78834 6.06245 8.68021 5.72832C8.57209 5.3942 8.5438 5.02653 8.59892 4.67182C8.65404 4.31712 8.7901 3.9913 8.98989 3.73557C9.18968 3.47984 9.44422 3.30568 9.72134 3.23513C9.99845 3.16457 10.2857 3.20078 10.5467 3.33918C10.8078 3.47758 11.0309 3.71196 11.1878 4.01266C11.3448 4.31337 11.4286 4.6669 11.4286 5.02856C11.4281 5.51334 11.2775 5.97809 11.0097 6.32088C10.7419 6.66368 10.3788 6.85652 10 6.85713Z" fill="#EC3A3A"/>
</svg>
