<svg width="15" height="15" viewBox="0 0 15 15" fill="none" xmlns="http://www.w3.org/2000/svg">
<path d="M6.24347 0.5C7.31409 0.499957 8.36341 0.799146 9.27303 1.3638C10.1826 1.92846 10.9163 2.73611 11.3913 3.69561C11.8663 4.6551 12.0636 5.72826 11.9611 6.79395C11.8585 7.85965 11.4601 8.87548 10.8109 9.72679L14.4433 13.3607C14.5806 13.4985 14.6604 13.6834 14.6663 13.8779C14.6722 14.0724 14.6039 14.2619 14.4752 14.4078C14.3466 14.5537 14.1672 14.6452 13.9735 14.6637C13.7798 14.6821 13.5863 14.6262 13.4324 14.5071L13.3604 14.4436L9.72649 10.8112C9.00124 11.3642 8.15473 11.7366 7.25701 11.8975C6.35928 12.0584 5.43615 12.0031 4.56399 11.7364C3.69183 11.4697 2.89573 10.9991 2.24156 10.3636C1.58738 9.72813 1.09394 8.94599 0.802071 8.08192C0.510198 7.21786 0.428284 6.29671 0.563105 5.3947C0.697926 4.49269 1.04561 3.63575 1.57738 2.89479C2.10915 2.15383 2.80972 1.55016 3.62113 1.13372C4.43253 0.717279 5.33144 0.500048 6.24347 0.5V0.5ZM6.24347 2.03167C5.12635 2.03167 4.05499 2.47545 3.26506 3.26537C2.47514 4.05529 2.03137 5.12665 2.03137 6.24377C2.03137 7.36089 2.47514 8.43225 3.26506 9.22217C4.05499 10.0121 5.12635 10.4559 6.24347 10.4559C7.36059 10.4559 8.43195 10.0121 9.22187 9.22217C10.0118 8.43225 10.4556 7.36089 10.4556 6.24377C10.4556 5.12665 10.0118 4.05529 9.22187 3.26537C8.43195 2.47545 7.36059 2.03167 6.24347 2.03167Z" fill="#5C5D65"/>
</svg>
