<svg width="20" height="20" viewBox="0 0 20 20" fill="none" xmlns="http://www.w3.org/2000/svg">
<path d="M8.24347 2.5C9.31409 2.49996 10.3634 2.79915 11.273 3.3638C12.1826 3.92846 12.9163 4.73611 13.3913 5.69561C13.8663 6.6551 14.0636 7.72826 13.9611 8.79395C13.8585 9.85965 13.4601 10.8755 12.8109 11.7268L16.4433 15.3607C16.5806 15.4985 16.6604 15.6834 16.6663 15.8779C16.6722 16.0724 16.6039 16.2619 16.4752 16.4078C16.3466 16.5537 16.1672 16.6452 15.9735 16.6637C15.7798 16.6821 15.5863 16.6262 15.4324 16.5071L15.3604 16.4436L11.7265 12.8112C11.0012 13.3642 10.1547 13.7366 9.25701 13.8975C8.35928 14.0584 7.43615 14.0031 6.56399 13.7364C5.69183 13.4697 4.89573 12.9991 4.24156 12.3636C3.58738 11.7281 3.09394 10.946 2.80207 10.0819C2.5102 9.21786 2.42828 8.29671 2.5631 7.3947C2.69793 6.49269 3.04561 5.63575 3.57738 4.89479C4.10915 4.15383 4.80972 3.55016 5.62113 3.13372C6.43253 2.71728 7.33144 2.50005 8.24347 2.5ZM8.24347 4.03167C7.12635 4.03167 6.05499 4.47545 5.26506 5.26537C4.47514 6.05529 4.03137 7.12665 4.03137 8.24377C4.03137 9.36089 4.47514 10.4323 5.26506 11.2222C6.05499 12.0121 7.12635 12.4559 8.24347 12.4559C9.36059 12.4559 10.432 12.0121 11.2219 11.2222C12.0118 10.4323 12.4556 9.36089 12.4556 8.24377C12.4556 7.12665 12.0118 6.05529 11.2219 5.26537C10.432 4.47545 9.36059 4.03167 8.24347 4.03167Z" fill="#5C5D65"/>
<path d="M0 0V-0.5H-0.5V0H0ZM20 0H20.5V-0.5H20V0ZM20 20V20.5H20.5V20H20ZM0 20H-0.5V20.5H0V20ZM0 0.5H20V-0.5H0V0.5ZM19.5 0V20H20.5V0H19.5ZM20 19.5H0V20.5H20V19.5ZM0.5 20V0H-0.5V20H0.5Z" fill="#E7E7E7"/>
</svg>
