<svg width="66" height="20" viewBox="0 0 66 20" fill="none" xmlns="http://www.w3.org/2000/svg">
<path d="M57.024 19.0375C52.296 19.0375 48.444 15 48.444 10.0375C48.444 5.075 52.296 1.0375 57.024 1.0375C61.752 1.0375 65.604 5.075 65.604 10.0375C65.616 15 61.764 19.0375 57.024 19.0375ZM8.964 16.1375C5.748 16.1375 3.144 13.4 3.144 10.0375C3.144 6.675 5.76 3.9375 8.964 3.9375C12.168 3.9375 14.784 6.675 14.784 10.0375C14.784 13.4 12.168 16.1375 8.964 16.1375ZM17.532 10.0375C17.532 5.0875 13.68 1.05 8.952 1.05C4.224 1.05 0.371997 5.0875 0.371997 10.0375C0.371997 14.9875 4.224 19.025 8.952 19.025C11.196 19.025 13.248 18.1125 14.772 16.625V17.575C14.772 18.375 15.384 19.0125 16.152 19.0125C16.908 19.0125 17.532 18.3625 17.532 17.575V10.325C17.532 10.3 17.532 10.275 17.532 10.25C17.532 10.175 17.532 10.1125 17.532 10.0375ZM27.96 19.0375C23.196 19.0375 19.32 14.975 19.32 9.9875C19.32 5 23.196 0.937502 27.96 0.937502C30.096 0.937502 32.148 1.7625 33.732 3.25C34.296 3.7875 34.344 4.7 33.84 5.3C33.324 5.9 32.448 5.95 31.884 5.4125C30.804 4.4 29.412 3.8375 27.96 3.8375C24.732 3.8375 22.092 6.6 22.092 9.9875C22.092 13.375 24.72 16.1375 27.96 16.1375C29.412 16.1375 30.804 15.575 31.884 14.5625C32.448 14.025 33.324 14.075 33.84 14.675C34.356 15.275 34.308 16.1875 33.732 16.725C32.148 18.2125 30.108 19.0375 27.96 19.0375ZM48.564 16.4L41.136 9.8625L48.564 3.4625C49.152 2.95 49.236 2.05 48.744 1.425C48.264 0.812501 47.388 0.725002 46.8 1.2375L38.748 8.2375V2.35C38.748 1.55 38.136 0.912503 37.368 0.912503C36.612 0.912503 35.988 1.5625 35.988 2.35V17.5C35.988 18.3 36.6 18.9375 37.368 18.9375C38.124 18.9375 38.748 18.2875 38.748 17.5V11.625L46.8 18.625C47.052 18.85 47.364 18.9625 47.676 18.9625C48.072 18.9625 48.468 18.7875 48.732 18.4375C49.236 17.8125 49.152 16.9125 48.564 16.4Z" fill="white"/>
</svg>
