<svg width="72" height="24" viewBox="0 0 72 24" fill="none" xmlns="http://www.w3.org/2000/svg">
<path d="M60.48 0H11.52C5.16 0 0 5.4 0 12.075C0 18.75 5.028 24 11.388 24H60.348C66.708 24 72 18.7375 72 12.075C72 5.4125 66.84 0 60.48 0Z" fill="#9364ED"/>
<path d="M60.024 21.0375C55.296 21.0375 51.444 17 51.444 12.0375C51.444 7.075 55.296 3.0375 60.024 3.0375C64.752 3.0375 68.604 7.075 68.604 12.0375C68.616 17 64.764 21.0375 60.024 21.0375ZM11.964 18.1375C8.748 18.1375 6.144 15.4 6.144 12.0375C6.144 8.675 8.76 5.9375 11.964 5.9375C15.168 5.9375 17.784 8.675 17.784 12.0375C17.784 15.4 15.168 18.1375 11.964 18.1375ZM20.532 12.0375C20.532 7.0875 16.68 3.05 11.952 3.05C7.224 3.05 3.372 7.0875 3.372 12.0375C3.372 16.9875 7.224 21.025 11.952 21.025C14.196 21.025 16.248 20.1125 17.772 18.625V19.575C17.772 20.375 18.384 21.0125 19.152 21.0125C19.908 21.0125 20.532 20.3625 20.532 19.575V12.325C20.532 12.3 20.532 12.275 20.532 12.25C20.532 12.175 20.532 12.1125 20.532 12.0375ZM30.96 21.0375C26.196 21.0375 22.32 16.975 22.32 11.9875C22.32 7 26.196 2.9375 30.96 2.9375C33.096 2.9375 35.148 3.7625 36.732 5.25C37.296 5.7875 37.344 6.7 36.84 7.3C36.324 7.9 35.448 7.95 34.884 7.4125C33.804 6.4 32.412 5.8375 30.96 5.8375C27.732 5.8375 25.092 8.6 25.092 11.9875C25.092 15.375 27.72 18.1375 30.96 18.1375C32.412 18.1375 33.804 17.575 34.884 16.5625C35.448 16.025 36.324 16.075 36.84 16.675C37.356 17.275 37.308 18.1875 36.732 18.725C35.148 20.2125 33.108 21.0375 30.96 21.0375ZM51.564 18.4L44.136 11.8625L51.564 5.4625C52.152 4.95 52.236 4.05 51.744 3.425C51.264 2.8125 50.388 2.725 49.8 3.2375L41.748 10.2375V4.35C41.748 3.55 41.136 2.9125 40.368 2.9125C39.612 2.9125 38.988 3.5625 38.988 4.35V19.5C38.988 20.3 39.6 20.9375 40.368 20.9375C41.124 20.9375 41.748 20.2875 41.748 19.5V13.625L49.8 20.625C50.052 20.85 50.364 20.9625 50.676 20.9625C51.072 20.9625 51.468 20.7875 51.732 20.4375C52.236 19.8125 52.152 18.9125 51.564 18.4Z" fill="white"/>
<path d="M60.036 18.175C56.808 18.175 54.18 15.425 54.18 12.0375C54.18 8.65 56.796 5.9 60.036 5.9C63.264 5.9 65.892 8.65 65.892 12.0375C65.892 15.425 63.264 18.175 60.036 18.175Z" fill="#44CB86"/>
</svg>
