<svg width="20" height="20" viewBox="0 0 20 20" fill="none" xmlns="http://www.w3.org/2000/svg">
<path d="M5.367 4.13184C5.82751 3.57682 6.5478 3.40486 6.5478 3.40486C6.5478 3.40486 6.92467 2.22484 7.24152 1.71132C8.10646 0.311904 9.18788 0 10.9404 0C12.1517 0 13.3542 0.0545536 14.3391 1.55003C14.716 2.12285 15.334 3.40486 15.334 3.40486C15.334 3.40486 16.4252 3.54124 16.9231 4.20893C17.3049 4.72245 17.485 6.57845 16.9802 7.18566C16.5541 7.69918 16.0936 7.97076 15.76 8.01464C15.76 7.96839 15.7581 7.92332 15.7541 7.87825C15.7433 7.7395 15.7177 7.60549 15.6794 7.47859C15.4944 6.86427 15.0063 6.4231 14.4326 6.4231C13.8599 6.4231 13.3719 6.86427 13.1869 7.47978C13.1357 7.64937 13.1062 7.832 13.1062 8.02294H9.04323C9.04323 7.832 9.01371 7.64937 8.96255 7.47978C8.77755 6.86427 8.28949 6.4231 7.71581 6.4231C7.14312 6.4231 6.65506 6.86427 6.47007 7.47978C6.41988 7.64818 6.39036 7.83082 6.39036 8.02057V8.02294H6.3077C5.79897 8.02294 5.37093 7.71459 5.10328 7.19871C4.64277 6.31043 4.90648 4.68687 5.367 4.13184Z" fill="#6CCAFF"/>
<path d="M14.4336 6.83096C14.8173 6.83096 15.146 7.09662 15.3093 7.47968C15.3758 7.63269 15.4131 7.80163 15.4185 7.97422C15.4185 7.99082 15.4225 8.00624 15.4225 8.02284C15.4225 8.68104 14.9797 9.21472 14.4326 9.21472C13.8874 9.21472 13.4446 8.68104 13.4446 8.02284C13.4446 7.82597 13.4879 7.64334 13.5578 7.47968C13.7231 7.09662 14.0508 6.83096 14.4336 6.83096Z" fill="#5A68E7"/>
<path d="M7.71581 6.83096C8.09957 6.83096 8.42725 7.09662 8.59158 7.47968C8.66242 7.64334 8.70572 7.82597 8.70572 8.02284C8.70572 8.68104 8.26292 9.21472 7.71581 9.21472C7.17067 9.21472 6.72689 8.68104 6.72689 8.02284C6.72689 7.82597 6.77018 7.64334 6.84005 7.47968C7.00438 7.09662 7.33303 6.83096 7.71581 6.83096Z" fill="#5A68E7"/>
<path d="M11.7619 1.27302C11.8845 1.23708 12.7682 1.29533 13.3416 2.02902C13.9162 2.76146 14.2339 3.79507 13.6454 3.79507H11.9452C11.7065 3.79507 11.5103 3.67733 11.5103 3.32412V1.86914C11.5114 1.59401 11.5284 1.34118 11.7619 1.27302Z" fill="white"/>
<path d="M8.60257 1.68709C9.21114 1.20727 10.6237 1.24921 10.7991 1.28498C11.1351 1.35282 11.1604 1.60321 11.1604 1.87827V3.32635C11.1604 3.67789 10.8794 3.79507 10.536 3.79507H8.09966C7.25655 3.79507 7.74467 2.36179 8.60257 1.68709Z" fill="white"/>
<path d="M0.214207 13.9341C0.157396 13.8 0.153348 13.6403 0.202955 13.4902C0.252561 13.3402 0.351758 13.212 0.478723 13.1338L1.91489 12.2501C2.04186 12.172 2.18619 12.1503 2.31614 12.1899C2.44609 12.2295 2.55101 12.3271 2.60782 12.4612L4.96325 18.0215C5.02006 18.1556 5.02411 18.3153 4.9745 18.4653C4.92489 18.6154 4.8257 18.7436 4.69873 18.8217L3.26256 19.7055C3.1356 19.7836 2.99126 19.8052 2.86131 19.7656C2.73136 19.7261 2.62644 19.6285 2.56963 19.4944L0.214421 13.9346L0.214207 13.9341Z" fill="#5A68E7"/>
<path d="M8.37487 10.2074C8.37487 10.2074 6.91969 9.93066 6.41613 10.2074C6.04115 10.4132 3.50926 12.5706 2.79335 12.878L4.68443 17.3999C5.09885 17.3713 6.06384 16.9141 6.41613 16.931C8.44553 17.0294 8.53036 17.215 10.556 17.3999C11.689 17.5035 12.6816 17.745 13.465 17.3999C14.2485 17.0541 19.2539 13.5272 19.8131 12.8357C20.3729 12.1441 19.6564 12.0751 17.922 12.4209C16.1876 12.7666 13.8005 13.5272 12.8496 13.4582C11.8987 13.3892 9.38081 12.8357 9.38081 12.8357L12.2715 12.878C12.2715 12.878 12.6799 12.9041 13.2408 12.4209C13.8027 11.9377 14.0799 11.0703 13.2408 11.0703C12.4017 11.0703 11.8869 10.7447 11.8869 10.7447L8.37487 10.2074Z" fill="#FFC400"/>
</svg>
