<svg width="33" height="14" viewBox="0 0 33 14" fill="none" xmlns="http://www.w3.org/2000/svg">
<path d="M1.5 12.8333H3.62195C3.62195 12.8333 4.40244 8.83334 8.30488 8.83334C12.2073 8.83334 12.9878 12.8333 12.9878 12.8333H20.7927C20.7927 12.8333 21.5732 8.83334 25.4756 8.83334C29.378 8.83334 30.1585 12.8333 30.1585 12.8333H31.5C32.0523 12.8333 32.5 12.3856 32.5 11.8333V8.9032C32.5 8.46518 32.2149 8.07813 31.7966 7.9482L23.9146 5.50001L19.5244 1.12501C19.337 0.938223 19.0831 0.833344 18.8185 0.833344H7.99172C7.69554 0.833344 7.4146 0.964637 7.2246 1.19184L3.62195 5.50001L1.29117 5.99773C0.829765 6.09626 0.5 6.50388 0.5 6.97568V11.8333C0.5 12.3856 0.947716 12.8333 1.5 12.8333Z" fill="#F8E8A0" stroke="black" stroke-width="0.5"/>
</svg>
