<svg width="33" height="17" viewBox="0 0 33 17" fill="none" xmlns="http://www.w3.org/2000/svg">
<path d="M11.1768 13.8334C11.1768 15.1325 9.92943 16.25 8.30488 16.25C6.68033 16.25 5.43293 15.1325 5.43293 13.8334C5.43293 12.5342 6.68033 11.4167 8.30488 11.4167C9.92943 11.4167 11.1768 12.5342 11.1768 13.8334Z" stroke="black" stroke-width="0.5"/>
<path d="M28.3476 13.8334C28.3476 15.1325 27.1002 16.25 25.4756 16.25C23.8511 16.25 22.6037 15.1325 22.6037 13.8334C22.6037 12.5342 23.8511 11.4167 25.4756 11.4167C27.1002 11.4167 28.3476 12.5342 28.3476 13.8334Z" stroke="black" stroke-width="0.5"/>
<path d="M1.5 13.8333H3.62195C3.62195 13.8333 4.40244 9.83334 8.30488 9.83334C12.2073 9.83334 12.9878 13.8333 12.9878 13.8333H20.7927C20.7927 13.8333 21.5732 9.83334 25.4756 9.83334C29.378 9.83334 30.1585 13.8333 30.1585 13.8333H31.5C32.0523 13.8333 32.5 13.3856 32.5 12.8333V9.9032C32.5 9.46518 32.2149 9.07813 31.7966 8.9482L23.9146 6.50001L19.5244 2.12501C19.337 1.93822 19.0831 1.83334 18.8185 1.83334H7.99172C7.69554 1.83334 7.4146 1.96464 7.2246 2.19184L3.62195 6.50001L1.29117 6.99773C0.829765 7.09626 0.5 7.50388 0.5 7.97568V12.8333C0.5 13.3856 0.947716 13.8333 1.5 13.8333Z" fill="#F8E8A0" stroke="black" stroke-width="0.5"/>
<path d="M3.8647 6.5H22.3537" stroke="black" stroke-width="0.4"/>
<rect x="6.7439" y="5.83334" width="1.56098" height="1.33333" fill="#F8E8A0"/>
<rect x="9.86585" y="5.83334" width="1.56098" height="1.33333" fill="#F8E8A0"/>
<rect x="12.9878" y="5.83334" width="1.56098" height="1.33333" fill="#F8E8A0"/>
<rect x="16.1098" y="5.83334" width="1.56097" height="1.33333" fill="#F8E8A0"/>
<rect x="19.2317" y="5.83334" width="1.56098" height="1.33333" fill="#F8E8A0"/>
<rect x="13.1878" y="0.7" width="2.72195" height="0.933333" stroke="black" stroke-width="0.4"/>
</svg>
