<svg width="33" height="17" viewBox="0 0 33 17" fill="none" xmlns="http://www.w3.org/2000/svg">
<path d="M11.1768 13.5909C11.1768 15.0432 9.90791 16.25 8.30485 16.25C6.70179 16.25 5.4329 15.0432 5.4329 13.5909C5.4329 12.1387 6.70179 10.9318 8.30485 10.9318C9.90791 10.9318 11.1768 12.1387 11.1768 13.5909Z" stroke="black" stroke-width="0.5"/>
<path d="M28.3475 13.5909C28.3475 15.0432 27.0786 16.25 25.4756 16.25C23.8725 16.25 22.6036 15.0432 22.6036 13.5909C22.6036 12.1387 23.8725 10.9318 25.4756 10.9318C27.0786 10.9318 28.3475 12.1387 28.3475 13.5909Z" stroke="black" stroke-width="0.5"/>
<path d="M1.5 13.5909H3.62195C3.62195 13.5909 4.40244 9.22727 8.30488 9.22727C12.2073 9.22727 12.9878 13.5909 12.9878 13.5909H20.7927C20.7927 13.5909 21.5732 9.22727 25.4756 9.22727C29.378 9.22727 30.1585 13.5909 30.1585 13.5909H31.5C32.0523 13.5909 32.5 13.1432 32.5 12.5909V9.217C32.5 8.7884 32.2269 8.40745 31.8209 8.2699L23.9146 5.59091L19.5288 0.822999C19.3395 0.617142 19.0725 0.5 18.7928 0.5H8.01784C7.70678 0.5 7.41343 0.644752 7.22419 0.891626L3.62195 5.59091L1.27312 6.13808C0.820362 6.24355 0.5 6.64712 0.5 7.112V12.5909C0.5 13.1432 0.947716 13.5909 1.5 13.5909Z" fill="white" stroke="black" stroke-width="0.5"/>
<path d="M2.06093 6.31818H20.5499" stroke="black" stroke-width="0.4"/>
</svg>
