<svg width="8" height="8" viewBox="0 0 8 8" fill="none" xmlns="http://www.w3.org/2000/svg">
<path d="M6.8 0.8H6V0.4C6 0.293913 5.95786 0.192172 5.88284 0.117157C5.80783 0.0421427 5.70609 0 5.6 0C5.49391 0 5.39217 0.0421427 5.31716 0.117157C5.24214 0.192172 5.2 0.293913 5.2 0.4V0.8H2.8V0.4C2.8 0.293913 2.75786 0.192172 2.68284 0.117157C2.60783 0.0421427 2.50609 0 2.4 0C2.29391 0 2.19217 0.0421427 2.11716 0.117157C2.04214 0.192172 2 0.293913 2 0.4V0.8H1.2C0.88174 0.8 0.576516 0.926428 0.351472 1.15147C0.126428 1.37652 0 1.68174 0 2V6.8C0 7.11826 0.126428 7.42348 0.351472 7.64853C0.576516 7.87357 0.88174 8 1.2 8H6.8C7.11826 8 7.42348 7.87357 7.64853 7.64853C7.87357 7.42348 8 7.11826 8 6.8V2C8 1.68174 7.87357 1.37652 7.64853 1.15147C7.42348 0.926428 7.11826 0.8 6.8 0.8ZM7.2 6.8C7.2 6.90609 7.15786 7.00783 7.08284 7.08284C7.00783 7.15786 6.90609 7.2 6.8 7.2H1.2C1.09391 7.2 0.992172 7.15786 0.917157 7.08284C0.842143 7.00783 0.8 6.90609 0.8 6.8V4H7.2V6.8ZM7.2 3.2H0.8V2C0.8 1.89391 0.842143 1.79217 0.917157 1.71716C0.992172 1.64214 1.09391 1.6 1.2 1.6H2V2C2 2.10609 2.04214 2.20783 2.11716 2.28284C2.19217 2.35786 2.29391 2.4 2.4 2.4C2.50609 2.4 2.60783 2.35786 2.68284 2.28284C2.75786 2.20783 2.8 2.10609 2.8 2V1.6H5.2V2C5.2 2.10609 5.24214 2.20783 5.31716 2.28284C5.39217 2.35786 5.49391 2.4 5.6 2.4C5.70609 2.4 5.80783 2.35786 5.88284 2.28284C5.95786 2.20783 6 2.10609 6 2V1.6H6.8C6.90609 1.6 7.00783 1.64214 7.08284 1.71716C7.15786 1.79217 7.2 1.89391 7.2 2V3.2Z" fill="black"/>
</svg>
