<svg width="16" height="16" viewBox="0 0 16 16" fill="none" xmlns="http://www.w3.org/2000/svg">
<path d="M14.2042 8.2727H12.5033L12.0306 7.09088C11.5448 5.87582 10.3854 5.09088 9.0766 5.09088H5.46865C4.16012 5.09088 3.00046 5.87582 2.51439 7.09088L2.04166 8.2727H0.34109C0.119215 8.2727 -0.0435692 8.48122 0.010408 8.69628L0.180863 9.3781C0.218647 9.5298 0.35501 9.63634 0.511544 9.63634H1.08171C0.700181 9.96957 0.454442 10.4539 0.454442 11V12.3636C0.454442 12.8216 0.629442 13.2349 0.908988 13.5548V15.0909C0.908988 15.5929 1.31609 16 1.81808 16H2.72717C3.22916 16 3.63626 15.5929 3.63626 15.0909V14.1818H10.909V15.0909C10.909 15.5929 11.3161 16 11.8181 16H12.7272C13.2292 16 13.6363 15.5929 13.6363 15.0909V13.5548C13.9158 13.2352 14.0908 12.8218 14.0908 12.3636V11C14.0908 10.4539 13.8451 9.96957 13.4638 9.63634H14.034C14.1905 9.63634 14.3269 9.5298 14.3647 9.3781L14.5351 8.69628C14.5888 8.48122 14.426 8.2727 14.2042 8.2727ZM4.20245 7.76617C4.40956 7.24855 4.91098 6.90906 5.46865 6.90906H9.0766C9.63427 6.90906 10.1357 7.24855 10.3428 7.76617L10.909 9.18179H3.63626L4.20245 7.76617ZM2.72717 12.3579C2.18171 12.3579 1.81808 11.9954 1.81808 11.4517C1.81808 10.9079 2.18171 10.5454 2.72717 10.5454C3.27262 10.5454 4.09081 11.3611 4.09081 11.9048C4.09081 12.4486 3.27262 12.3579 2.72717 12.3579ZM11.8181 12.3579C11.2726 12.3579 10.4544 12.4486 10.4544 11.9048C10.4544 11.3611 11.2726 10.5454 11.8181 10.5454C12.3635 10.5454 12.7272 10.9079 12.7272 11.4517C12.7272 11.9954 12.3635 12.3579 11.8181 12.3579Z" fill="#3FB752"/>
<line x1="5.85884" y1="12.2463" x2="8.68659" y2="12.2463" stroke="#A2EA93" stroke-linecap="round"/>
<path d="M3.63635 15V14.1818L1.0909 13.8182V15C1.0909 15.5523 1.53861 16 2.0909 16H2.63635C3.18864 16 3.63635 15.5523 3.63635 15Z" fill="#555A68"/>
<path d="M10.9091 15V14.1818L13.4545 13.8182V15C13.4545 15.5523 13.0068 16 12.4545 16H11.9091C11.3568 16 10.9091 15.5523 10.9091 15Z" fill="#555A68"/>
<path d="M11.8098 0.585409C11.8697 0.401147 12.1303 0.401148 12.1902 0.58541L12.8532 2.62574C12.8799 2.70814 12.9567 2.76393 13.0434 2.76393H15.1887C15.3824 2.76393 15.463 3.01186 15.3062 3.12574L13.5706 4.38673C13.5005 4.43765 13.4712 4.52793 13.498 4.61033L14.1609 6.65066C14.2208 6.83492 14.0099 6.98814 13.8532 6.87426L12.1176 5.61327C12.0475 5.56235 11.9525 5.56235 11.8824 5.61327L10.1468 6.87426C9.9901 6.98814 9.7792 6.83492 9.83907 6.65066L10.502 4.61033C10.5288 4.52793 10.4995 4.43765 10.4294 4.38673L8.69375 3.12574C8.53701 3.01185 8.61757 2.76393 8.81131 2.76393H10.9566C11.0433 2.76393 11.1201 2.70814 11.1468 2.62574L11.8098 0.585409Z" fill="#FFC400"/>
</svg>
