<svg width="28" height="28" viewBox="0 0 28 28" fill="none" xmlns="http://www.w3.org/2000/svg">
<path d="M5.83333 9.33334C7.122 9.33334 8.16667 8.28867 8.16667 7.00001C8.16667 5.71134 7.122 4.66667 5.83333 4.66667C4.54467 4.66667 3.5 5.71134 3.5 7.00001C3.5 8.28867 4.54467 9.33334 5.83333 9.33334Z" stroke="black" stroke-width="2" stroke-linecap="round" stroke-linejoin="round"/>
<path d="M14 9.33334C15.2887 9.33334 16.3333 8.28867 16.3333 7.00001C16.3333 5.71134 15.2887 4.66667 14 4.66667C12.7113 4.66667 11.6667 5.71134 11.6667 7.00001C11.6667 8.28867 12.7113 9.33334 14 9.33334Z" stroke="black" stroke-width="2" stroke-linecap="round" stroke-linejoin="round"/>
<path d="M22.1667 9.33334C23.4553 9.33334 24.5 8.28867 24.5 7.00001C24.5 5.71134 23.4553 4.66667 22.1667 4.66667C20.878 4.66667 19.8333 5.71134 19.8333 7.00001C19.8333 8.28867 20.878 9.33334 22.1667 9.33334Z" stroke="black" stroke-width="2" stroke-linecap="round" stroke-linejoin="round"/>
<path d="M5.83333 23.3333C7.122 23.3333 8.16667 22.2887 8.16667 21C8.16667 19.7113 7.122 18.6667 5.83333 18.6667C4.54467 18.6667 3.5 19.7113 3.5 21C3.5 22.2887 4.54467 23.3333 5.83333 23.3333Z" stroke="black" stroke-width="2" stroke-linecap="round" stroke-linejoin="round"/>
<path d="M14 23.3333C15.2887 23.3333 16.3333 22.2887 16.3333 21C16.3333 19.7113 15.2887 18.6667 14 18.6667C12.7113 18.6667 11.6667 19.7113 11.6667 21C11.6667 22.2887 12.7113 23.3333 14 23.3333Z" stroke="black" stroke-width="2" stroke-linecap="round" stroke-linejoin="round"/>
<path d="M5.83334 9.33334V18.6667" stroke="black" stroke-width="2" stroke-linecap="round" stroke-linejoin="round"/>
<path d="M14 9.33334V18.6667" stroke="black" stroke-width="2" stroke-linecap="round" stroke-linejoin="round"/>
<path d="M22.1667 9.33334V11.6667C22.1667 12.2855 21.9208 12.879 21.4833 13.3166C21.0457 13.7542 20.4522 14 19.8333 14H5.83334" stroke="black" stroke-width="2" stroke-linecap="round" stroke-linejoin="round"/>
</svg>
