<svg width="42" height="21" viewBox="0 0 42 21" fill="none" xmlns="http://www.w3.org/2000/svg">
<path d="M13.6585 17.3636C13.6585 18.7543 12.4268 20 10.7561 20C9.08545 20 7.85367 18.7543 7.85367 17.3636C7.85367 15.9729 9.08545 14.7273 10.7561 14.7273C12.4268 14.7273 13.6585 15.9729 13.6585 17.3636Z" stroke="black" stroke-width="2"/>
<path d="M35.122 17.3636C35.122 18.7543 33.8902 20 32.2195 20C30.5489 20 29.3171 18.7543 29.3171 17.3636C29.3171 15.9729 30.5489 14.7273 32.2195 14.7273C33.8902 14.7273 35.122 15.9729 35.122 17.3636Z" stroke="black" stroke-width="2"/>
<path d="M2 17.3636H4.90244C4.90244 17.3636 5.87805 11.9091 10.7561 11.9091C15.6341 11.9091 16.6098 17.3636 16.6098 17.3636H26.3659C26.3659 17.3636 27.3415 11.9091 32.2195 11.9091C37.0976 11.9091 38.0732 17.3636 38.0732 17.3636H40C40.5523 17.3636 41 16.9159 41 16.3636V11.717C41 11.2884 40.7269 10.9074 40.3209 10.7699L30.2683 7.36364L24.7117 1.323C24.5224 1.11714 24.2555 1 23.9758 1H10.2739C9.96288 1 9.66953 1.14475 9.48029 1.39163L4.90244 7.36364L1.77312 8.09263C1.32036 8.1981 1 8.60167 1 9.06655V16.3636C1 16.9159 1.44772 17.3636 2 17.3636Z" fill="white" stroke="black" stroke-width="2"/>
<path d="M2.95122 8.27273H26.0624" stroke="black" stroke-width="0.4"/>
</svg>
