<svg width="32" height="32" viewBox="0 0 32 32" fill="none" xmlns="http://www.w3.org/2000/svg">
<path d="M26.36 9.64L26.3733 9.62667L21.4133 4.66667L20 6.08L22.8133 8.89333C21.56 9.37333 20.6667 10.5733 20.6667 12C20.6667 12.4377 20.7529 12.8712 20.9204 13.2756C21.0879 13.68 21.3335 14.0475 21.643 14.357C22.2681 14.9821 23.116 15.3333 24 15.3333C24.48 15.3333 24.92 15.2267 25.3333 15.0533V24.6667C25.3333 25.0203 25.1929 25.3594 24.9428 25.6095C24.6928 25.8595 24.3536 26 24 26C23.6464 26 23.3072 25.8595 23.0572 25.6095C22.8072 25.3594 22.6667 25.0203 22.6667 24.6667V18.6667C22.6667 17.9594 22.3857 17.2811 21.8856 16.781C21.3855 16.281 20.7073 16 20 16H18.6667V6.66667C18.6667 5.95942 18.3857 5.28115 17.8856 4.78105C17.3855 4.28095 16.7073 4 16 4H8.00001C7.29277 4 6.61449 4.28095 6.11439 4.78105C5.61429 5.28115 5.33334 5.95942 5.33334 6.66667V28H18.6667V18H20.6667V24.6667C20.6667 25.5507 21.0179 26.3986 21.643 27.0237C22.2681 27.6488 23.116 28 24 28C24.4377 28 24.8712 27.9138 25.2756 27.7463C25.68 27.5787 26.0475 27.3332 26.357 27.0237C26.6666 26.7142 26.9121 26.3467 27.0796 25.9423C27.2471 25.5379 27.3333 25.1044 27.3333 24.6667V12C27.3333 11.08 26.96 10.24 26.36 9.64ZM16 18V25.3333H8.00001V16H16V18ZM16 13.3333H8.00001V6.66667H16V13.3333ZM24 13.3333C23.6464 13.3333 23.3072 13.1929 23.0572 12.9428C22.8072 12.6928 22.6667 12.3536 22.6667 12C22.6667 11.6464 22.8072 11.3072 23.0572 11.0572C23.3072 10.8071 23.6464 10.6667 24 10.6667C24.3536 10.6667 24.6928 10.8071 24.9428 11.0572C25.1929 11.3072 25.3333 11.6464 25.3333 12C25.3333 12.3536 25.1929 12.6928 24.9428 12.9428C24.6928 13.1929 24.3536 13.3333 24 13.3333Z" fill="black"/>
</svg>
